<!-- Generator: Adobe Illustrator 22.0.0, SVG Export Plug-In  -->
<svg version="1.1"
	 xmlns="http://www.w3.org/2000/svg" xmlns:xlink="http://www.w3.org/1999/xlink" xmlns:a="http://ns.adobe.com/AdobeSVGViewerExtensions/3.0/"
	 x="0px" y="0px" width="154.721px" height="154.721px" viewBox="0 0 154.721 154.721"
	 style="enable-background:new 0 0 154.721 154.721;" xml:space="preserve">
<style type="text/css">
	.st0{fill:#040000;}
	.st1{fill:#FFFFFF;}
	.st2{fill:none;stroke:#231815;stroke-miterlimit:10;}
</style>
<defs>
</defs>
<rect class="st0" width="154.721" height="154.721"/>
<g>
	<path class="st1" d="M55.027,115.802v2.501H54.63c-0.556-1.509-1.323-2.237-2.303-2.184c-1.191,0.026-1.787,1.072-1.787,3.137
		c-0.026,2.091,0.662,3.137,2.065,3.137c1.35,0,2.078-0.794,2.184-2.382h0.476c-0.053,1.826-1.019,2.753-2.898,2.779
		c-2.329-0.079-3.56-1.257-3.692-3.534c0.212-2.17,1.403-3.375,3.573-3.613c0.582,0,1.244,0.199,1.985,0.596l0.397-0.437H55.027z"/>
	<path class="st1" d="M59.474,119.852v-0.476h3.931v0.476c-0.821-0.053-1.165,0.199-1.032,0.754v2.144h-0.397l-0.437-0.476
		c-0.609,0.344-1.284,0.516-2.025,0.516c-2.038-0.212-3.15-1.323-3.335-3.335c0.185-2.303,1.376-3.573,3.573-3.811
		c0.423,0,0.9,0.132,1.429,0.397c0.185,0.079,0.304,0.119,0.357,0.119c0.026,0.026,0.146-0.079,0.357-0.318h0.397v2.422h-0.397
		c-0.45-1.456-1.138-2.17-2.065-2.144c-1.218,0-1.813,1.046-1.787,3.137c0.026,2.012,0.543,3.057,1.548,3.137
		c0.794,0.026,1.178-0.45,1.151-1.429C60.798,120.143,60.374,119.773,59.474,119.852z"/>
	<path class="st1" d="M67.653,122.75h-3.692v-0.397c0.688,0.053,1.019-0.172,0.993-0.675v-4.844
		c0.026-0.476-0.304-0.701-0.993-0.675v-0.397h3.692v0.397c-0.715-0.026-1.046,0.199-0.993,0.675v4.844
		c-0.053,0.503,0.278,0.728,0.993,0.675V122.75z"/>
	<path class="st1" d="M70.79,118.859h2.263v-2.025c0.026-0.476-0.265-0.701-0.873-0.675v-0.397h3.573v0.397
		c-0.715-0.026-1.046,0.199-0.993,0.675v4.844c-0.053,0.503,0.278,0.728,0.993,0.675v0.397h-3.573v-0.397
		c0.609,0.053,0.9-0.172,0.873-0.675v-2.382H70.79v2.382c-0.053,0.503,0.238,0.728,0.873,0.675v0.397h-3.534v-0.397
		c0.662,0.053,0.979-0.172,0.953-0.675v-4.844c0.026-0.476-0.291-0.701-0.953-0.675v-0.397h3.534v0.397
		c-0.635-0.026-0.926,0.199-0.873,0.675V118.859z"/>
	<path class="st1" d="M75.951,115.763h3.573v0.397c-0.741-0.026-1.085,0.199-1.032,0.675v4.169c0.026,0.847,0.503,1.31,1.429,1.39
		c1.138,0,1.72-0.582,1.747-1.747v-3.692c0.053-0.45-0.318-0.715-1.112-0.794v-0.397h2.581v0.397
		c-0.688,0.106-1.006,0.371-0.953,0.794v3.613c0,1.482-0.887,2.223-2.66,2.223c-1.72-0.026-2.594-0.675-2.62-1.945v-4.01
		c0.026-0.476-0.291-0.701-0.953-0.675V115.763z"/>
	<path class="st1" d="M85.956,122.75h-2.779v-0.397c0.556-0.053,0.979-0.49,1.27-1.31l2.263-5.4h0.516l2.62,6.035
		c0.132,0.45,0.45,0.675,0.953,0.675v0.397h-3.653v-0.397h0.397c0.424,0.026,0.622-0.093,0.596-0.357
		c0-0.053-0.026-0.146-0.079-0.278c0-0.053,0-0.093,0-0.119l-0.516-1.151h-2.223l-0.318,0.794c-0.106,0.132-0.159,0.344-0.159,0.635
		c0,0.318,0.199,0.476,0.596,0.476h0.516V122.75z M87.306,119.892l-0.913-2.144l-0.873,2.144H87.306z"/>
	<path class="st1" d="M90.839,116.16v-0.397h2.462l3.414,4.764h0.04v-3.573c0.053-0.45-0.304-0.715-1.072-0.794v-0.397h2.541v0.397
		c-0.662,0.079-0.966,0.344-0.913,0.794v5.797h-0.953l-3.891-5.4h-0.04v4.328c-0.079,0.503,0.318,0.728,1.191,0.675v0.397h-2.739
		v-0.397c0.688,0.053,1.019-0.172,0.993-0.675v-4.844C91.898,116.358,91.554,116.133,90.839,116.16z"/>
	<path class="st1" d="M102.115,119.852v-0.476h3.931v0.476c-0.821-0.053-1.165,0.199-1.032,0.754v2.144h-0.397l-0.437-0.476
		c-0.609,0.344-1.284,0.516-2.025,0.516c-2.038-0.212-3.15-1.323-3.335-3.335c0.185-2.303,1.376-3.573,3.573-3.811
		c0.424,0,0.9,0.132,1.429,0.397c0.185,0.079,0.304,0.119,0.357,0.119c0.026,0.026,0.146-0.079,0.357-0.318h0.397v2.422h-0.397
		c-0.45-1.456-1.138-2.17-2.065-2.144c-1.218,0-1.813,1.046-1.787,3.137c0.026,2.012,0.543,3.057,1.548,3.137
		c0.794,0.026,1.178-0.45,1.151-1.429C103.439,120.143,103.015,119.773,102.115,119.852z"/>
</g>
<g>
	<path class="st1" d="M67.866,127.544h0.754v-0.675c0.008-0.159-0.088-0.233-0.291-0.225v-0.132h1.191v0.132
		c-0.238-0.008-0.349,0.066-0.331,0.225v1.615c-0.018,0.167,0.093,0.243,0.331,0.225v0.132H68.33v-0.132
		c0.203,0.018,0.299-0.058,0.291-0.225v-0.794h-0.754v0.794c-0.018,0.167,0.079,0.243,0.291,0.225v0.132H66.98v-0.132
		c0.22,0.018,0.326-0.058,0.318-0.225v-1.615c0.008-0.159-0.098-0.233-0.318-0.225v-0.132h1.178v0.132
		c-0.212-0.008-0.309,0.066-0.291,0.225V127.544z"/>
	<path class="st1" d="M71.294,128.047h-1.072c0,0.45,0.146,0.675,0.437,0.675c0.177,0,0.349-0.111,0.516-0.331l0.106,0.066
		c-0.141,0.265-0.379,0.397-0.715,0.397c-0.538-0.018-0.834-0.286-0.887-0.807c0.053-0.521,0.349-0.799,0.887-0.834
		C71.024,127.248,71.268,127.526,71.294,128.047z M70.222,127.902h0.529c0-0.389-0.079-0.577-0.238-0.569
		C70.336,127.341,70.24,127.531,70.222,127.902z"/>
	<path class="st1" d="M72.525,128.709v0.132h-1.032v-0.132c0.203,0.018,0.296-0.058,0.278-0.225v-1.588
		c0.008-0.159-0.079-0.233-0.265-0.225v-0.132l0.754-0.013v1.959C72.242,128.651,72.331,128.727,72.525,128.709z"/>
	<path class="st1" d="M73.65,128.709v0.132h-1.032v-0.132c0.203,0.018,0.296-0.058,0.278-0.225v-1.588
		c0.008-0.159-0.079-0.233-0.265-0.225v-0.132l0.754-0.013v1.959C73.367,128.651,73.456,128.727,73.65,128.709z"/>
	<path class="st1" d="M75.582,128.047c-0.061,0.521-0.357,0.789-0.887,0.807c-0.538-0.018-0.834-0.286-0.887-0.807
		c0.053-0.521,0.349-0.799,0.887-0.834C75.225,127.258,75.521,127.536,75.582,128.047z M75.013,128.047
		c-0.008-0.468-0.114-0.706-0.318-0.715c-0.212,0.008-0.318,0.246-0.318,0.715c0,0.468,0.106,0.706,0.318,0.715
		C74.899,128.754,75.005,128.515,75.013,128.047z"/>
	<path class="st1" d="M77.819,126.512h1.098v0.132c-0.194,0.008-0.291,0.053-0.291,0.132c0,0.045,0.018,0.124,0.053,0.238
		c0,0.018,0.005,0.031,0.013,0.04l0.291,1.019l0.371-1.098c0.018-0.053,0.026-0.106,0.026-0.159c0-0.114-0.101-0.172-0.304-0.172
		v-0.132h0.821v0.132c-0.167,0-0.273,0.084-0.318,0.251l-0.675,1.945h-0.265l-0.41-1.443l-0.49,1.443h-0.278l-0.516-1.879
		c-0.053-0.203-0.151-0.309-0.291-0.318v-0.132h1.046v0.132c-0.177,0-0.256,0.045-0.238,0.132c0,0.018,0,0.048,0,0.093
		c0.008,0.026,0.018,0.048,0.026,0.066l0.331,1.138l0.331-0.966l-0.053-0.185c-0.061-0.194-0.154-0.286-0.278-0.278V126.512z"/>
	<path class="st1" d="M81.683,128.047c-0.061,0.521-0.357,0.789-0.887,0.807c-0.538-0.018-0.834-0.286-0.887-0.807
		c0.053-0.521,0.349-0.799,0.887-0.834C81.326,127.258,81.622,127.536,81.683,128.047z M81.114,128.047
		c-0.008-0.468-0.114-0.706-0.318-0.715c-0.212,0.008-0.318,0.246-0.318,0.715c0,0.468,0.106,0.706,0.318,0.715
		C81,128.754,81.106,128.515,81.114,128.047z"/>
	<path class="st1" d="M82.901,128.841h-1.059v-0.132c0.185,0.018,0.273-0.058,0.265-0.225v-0.873
		c0.008-0.159-0.079-0.233-0.265-0.225v-0.119l0.715-0.013v0.357h0.013c0.106-0.256,0.256-0.389,0.45-0.397
		c0.194,0.018,0.299,0.114,0.318,0.291c-0.018,0.167-0.098,0.256-0.238,0.265c-0.151,0-0.23-0.084-0.238-0.251
		c-0.008-0.008-0.008-0.026,0-0.053c0.008-0.026,0.013-0.048,0.013-0.066c-0.194,0.151-0.291,0.481-0.291,0.993
		c-0.035,0.246,0.071,0.352,0.318,0.318V128.841z"/>
	<path class="st1" d="M84.436,128.709v0.132h-1.032v-0.132c0.203,0.018,0.296-0.058,0.278-0.225v-1.588
		c0.008-0.159-0.079-0.233-0.265-0.225v-0.132l0.754-0.013v1.959C84.153,128.651,84.242,128.727,84.436,128.709z"/>
	<path class="st1" d="M86.183,126.525v1.972c-0.018,0.167,0.058,0.243,0.225,0.225v0.119h-0.701v-0.146
		c-0.114,0.114-0.251,0.167-0.41,0.159c-0.45-0.026-0.688-0.299-0.715-0.821c0.035-0.495,0.278-0.768,0.728-0.821
		c0.159,0.008,0.286,0.058,0.384,0.146v-0.463c0.008-0.159-0.079-0.233-0.265-0.225v-0.132L86.183,126.525z M85.124,128.008
		c-0.008,0.485,0.079,0.723,0.265,0.715c0.194-0.008,0.296-0.225,0.304-0.648c-0.008-0.468-0.106-0.706-0.291-0.715
		C85.208,127.359,85.116,127.576,85.124,128.008z"/>
	<path class="st1" d="M87.136,128.1h-0.199l-0.159-0.979c-0.008-0.018-0.013-0.045-0.013-0.079
		c-0.018-0.088-0.022-0.159-0.013-0.212c0-0.23,0.093-0.349,0.278-0.357c0.185,0.008,0.283,0.127,0.291,0.357
		c0,0.053-0.008,0.124-0.026,0.212c0,0.035,0,0.061,0,0.079L87.136,128.1z M86.752,128.59c0.008-0.167,0.101-0.26,0.278-0.278
		c0.177,0.018,0.273,0.111,0.291,0.278c-0.018,0.167-0.114,0.251-0.291,0.251S86.76,128.757,86.752,128.59z"/>
</g>
<polygon class="st1" points="85.107,27.735 45.499,69.61 58.389,72.7 71.348,58.841 77.994,60.434 64.961,74.275 84.218,78.811 
	64.002,100.187 70.618,101.772 108.556,61.752 95.937,58.712 82.877,72.468 76.253,70.849 89.302,57.138 69.832,52.441 
	91.813,29.342 "/>
<polyline class="st2" points="88.974,28.029 51.186,67.882 57.346,69.358 70.382,55.611 83.521,58.759 70.616,72.539 83.801,75.698 
	96.922,61.971 102.925,63.41 66.449,101.878 "/>
</svg>