<!-- Generator: Adobe Illustrator 22.0.0, SVG Export Plug-In  -->
<svg version="1.1"
	 xmlns="http://www.w3.org/2000/svg" xmlns:xlink="http://www.w3.org/1999/xlink" xmlns:a="http://ns.adobe.com/AdobeSVGViewerExtensions/3.0/"
	 x="0px" y="0px" width="26.477px" height="26.288px" viewBox="0 0 26.477 26.288"
	 style="enable-background:new 0 0 26.477 26.288;" xml:space="preserve">
<style type="text/css">
	.st0{fill:none;stroke:#000000;stroke-miterlimit:10;}
</style>
<defs>
</defs>
<path class="st0" d="M1.134,25.461L0.502,13.162c0,0,0.093-0.613,0.892-0.613s4.254,0,4.254,0s0.762-0.056,0.892,0.427
	c0.13,0.483-0.041,0.663,0.093,0.706s4.224-5.252,4.248-8.199c0.025-2.948-0.644-4.83,1.462-4.979s3.864,3.889,3.641,6.069
	c-0.223,2.18-1.016,3.691-1.016,3.691h8.497c0,0,2.787,0.037,2.49,2.118s-1.974,1.569-2.081,1.821
	c-0.107,0.252,1.746,1.078,1.003,2.75c-0.743,1.672-2.25,1.131-2.378,1.338c-0.128,0.206,2.081,0.929,1.449,2.415
	c-0.632,1.486-2.39,0.843-2.452,1.078s1.122,1.714,0.186,3.01c-0.483,0.669-2.081,0.669-2.081,0.669h-9.326
	c0,0-2.53-1.018-2.675-0.929c-0.145,0.089,0.186,1.189-0.446,1.189s-4.979,0-4.979,0S1.161,25.986,1.134,25.461z"/>
</svg>