<!-- Generator: Adobe Illustrator 22.0.0, SVG Export Plug-In  -->
<svg version="1.1"
	 xmlns="http://www.w3.org/2000/svg" xmlns:xlink="http://www.w3.org/1999/xlink" xmlns:a="http://ns.adobe.com/AdobeSVGViewerExtensions/3.0/"
	 x="0px" y="0px" width="59.522px" height="59.522px" viewBox="0 0 59.522 59.522"
	 style="enable-background:new 0 0 59.522 59.522;" xml:space="preserve">
<style type="text/css">
	.st0{fill:#FFFFFF;}
	.st1{fill:none;stroke:#231815;stroke-miterlimit:10;}
</style>
<defs>
</defs>
<g>
	<rect width="59.522" height="59.522"/>
	<g>
		<path class="st0" d="M21.169,44.55v0.962h-0.153c-0.214-0.58-0.509-0.86-0.886-0.84c-0.458,0.01-0.687,0.412-0.687,1.207
			c-0.01,0.804,0.255,1.207,0.794,1.207c0.519,0,0.799-0.305,0.84-0.916h0.183c-0.02,0.703-0.392,1.059-1.115,1.069
			c-0.896-0.031-1.37-0.484-1.42-1.359c0.081-0.835,0.54-1.298,1.375-1.39c0.224,0,0.479,0.076,0.764,0.229l0.153-0.168H21.169z"/>
		<path class="st0" d="M22.88,46.108v-0.183h1.512v0.183c-0.316-0.02-0.448,0.076-0.397,0.29v0.825h-0.153l-0.168-0.183
			c-0.234,0.132-0.494,0.199-0.779,0.199c-0.784-0.081-1.212-0.509-1.283-1.283c0.071-0.886,0.529-1.375,1.375-1.466
			c0.163,0,0.346,0.051,0.55,0.153c0.071,0.031,0.117,0.046,0.137,0.046c0.01,0.01,0.056-0.031,0.137-0.122h0.153v0.932h-0.153
			c-0.173-0.56-0.438-0.835-0.794-0.825c-0.468,0-0.698,0.402-0.687,1.207c0.01,0.774,0.209,1.176,0.596,1.207
			c0.305,0.01,0.453-0.173,0.443-0.55C23.389,46.22,23.226,46.077,22.88,46.108z"/>
		<path class="st0" d="M26.026,47.223h-1.42V47.07c0.265,0.02,0.392-0.066,0.382-0.26v-1.863c0.01-0.183-0.117-0.27-0.382-0.26
			v-0.153h1.42v0.153c-0.275-0.01-0.402,0.076-0.382,0.26v1.863c-0.02,0.193,0.107,0.28,0.382,0.26V47.223z"/>
		<path class="st0" d="M27.233,45.726h0.871v-0.779c0.01-0.183-0.102-0.27-0.336-0.26v-0.153h1.375v0.153
			c-0.275-0.01-0.402,0.076-0.382,0.26v1.863c-0.02,0.193,0.107,0.28,0.382,0.26v0.153h-1.375V47.07
			c0.234,0.02,0.346-0.066,0.336-0.26v-0.916h-0.871v0.916c-0.02,0.193,0.092,0.28,0.336,0.26v0.153H26.21V47.07
			c0.255,0.02,0.377-0.066,0.367-0.26v-1.863c0.01-0.183-0.112-0.27-0.367-0.26v-0.153h1.359v0.153
			c-0.244-0.01-0.356,0.076-0.336,0.26V45.726z"/>
		<path class="st0" d="M29.219,44.534h1.375v0.153c-0.285-0.01-0.417,0.076-0.397,0.26v1.604c0.01,0.326,0.193,0.504,0.55,0.535
			c0.438,0,0.662-0.224,0.672-0.672v-1.42c0.02-0.173-0.122-0.275-0.428-0.305v-0.153h0.993v0.153
			c-0.265,0.041-0.387,0.143-0.367,0.305v1.39c0,0.57-0.341,0.855-1.023,0.855c-0.662-0.01-0.998-0.26-1.008-0.748v-1.543
			c0.01-0.183-0.112-0.27-0.367-0.26V44.534z"/>
		<path class="st0" d="M33.068,47.223h-1.069V47.07c0.214-0.02,0.377-0.188,0.489-0.504l0.871-2.077h0.199l1.008,2.322
			c0.051,0.173,0.173,0.26,0.367,0.26v0.153h-1.405V47.07h0.153c0.163,0.01,0.239-0.036,0.229-0.137c0-0.02-0.01-0.056-0.031-0.107
			c0-0.02,0-0.036,0-0.046l-0.199-0.443h-0.855l-0.122,0.305c-0.041,0.051-0.061,0.132-0.061,0.244c0,0.122,0.076,0.183,0.229,0.183
			h0.199V47.223z M33.587,46.123l-0.351-0.825L32.9,46.123H33.587z"/>
		<path class="st0" d="M34.946,44.687v-0.153h0.947l1.314,1.833h0.015v-1.375c0.02-0.173-0.117-0.275-0.412-0.305v-0.153h0.978
			v0.153c-0.255,0.031-0.372,0.132-0.351,0.305v2.23h-0.367l-1.497-2.077h-0.015v1.665c-0.031,0.193,0.122,0.28,0.458,0.26v0.153
			h-1.054V47.07c0.265,0.02,0.392-0.066,0.382-0.26v-1.863C35.354,44.764,35.221,44.677,34.946,44.687z"/>
		<path class="st0" d="M39.284,46.108v-0.183h1.512v0.183c-0.316-0.02-0.448,0.076-0.397,0.29v0.825h-0.153l-0.168-0.183
			c-0.234,0.132-0.494,0.199-0.779,0.199c-0.784-0.081-1.212-0.509-1.283-1.283c0.071-0.886,0.529-1.375,1.375-1.466
			c0.163,0,0.346,0.051,0.55,0.153c0.071,0.031,0.117,0.046,0.137,0.046c0.01,0.01,0.056-0.031,0.137-0.122h0.153v0.932h-0.153
			c-0.173-0.56-0.438-0.835-0.794-0.825c-0.468,0-0.698,0.402-0.687,1.207c0.01,0.774,0.209,1.176,0.596,1.207
			c0.305,0.01,0.453-0.173,0.443-0.55C39.793,46.22,39.63,46.077,39.284,46.108z"/>
	</g>
	<g>
		<path class="st0" d="M26.109,49.067h0.29v-0.26c0.003-0.061-0.034-0.09-0.112-0.087V48.67h0.458v0.051
			c-0.092-0.003-0.134,0.025-0.127,0.087v0.621c-0.007,0.064,0.036,0.094,0.127,0.087v0.051h-0.458v-0.051
			c0.078,0.007,0.115-0.022,0.112-0.087v-0.305h-0.29v0.305c-0.007,0.064,0.031,0.094,0.112,0.087v0.051h-0.453v-0.051
			c0.085,0.007,0.125-0.022,0.122-0.087v-0.621c0.003-0.061-0.038-0.09-0.122-0.087V48.67h0.453v0.051
			c-0.081-0.003-0.119,0.025-0.112,0.087V49.067z"/>
		<path class="st0" d="M27.427,49.26h-0.412c0,0.173,0.056,0.26,0.168,0.26c0.068,0,0.134-0.043,0.199-0.127l0.041,0.025
			c-0.054,0.102-0.146,0.153-0.275,0.153c-0.207-0.007-0.321-0.11-0.341-0.311c0.02-0.2,0.134-0.307,0.341-0.321
			C27.323,48.953,27.417,49.06,27.427,49.26z M27.015,49.204h0.204c0-0.15-0.031-0.222-0.092-0.219
			C27.059,48.989,27.022,49.062,27.015,49.204z"/>
		<path class="st0" d="M27.901,49.515v0.051h-0.397v-0.051c0.078,0.007,0.114-0.022,0.107-0.087v-0.611
			c0.003-0.061-0.031-0.09-0.102-0.087V48.68l0.29-0.005v0.754C27.792,49.493,27.826,49.522,27.901,49.515z"/>
		<path class="st0" d="M28.333,49.515v0.051h-0.397v-0.051c0.078,0.007,0.114-0.022,0.107-0.087v-0.611
			c0.003-0.061-0.031-0.09-0.102-0.087V48.68l0.29-0.005v0.754C28.225,49.493,28.259,49.522,28.333,49.515z"/>
		<path class="st0" d="M29.077,49.26c-0.024,0.2-0.137,0.304-0.341,0.311c-0.207-0.007-0.321-0.11-0.341-0.311
			c0.02-0.2,0.134-0.307,0.341-0.321C28.939,48.957,29.053,49.064,29.077,49.26z M28.858,49.26c-0.003-0.18-0.044-0.272-0.122-0.275
			c-0.081,0.003-0.122,0.095-0.122,0.275c0,0.18,0.041,0.272,0.122,0.275C28.814,49.532,28.855,49.441,28.858,49.26z"/>
		<path class="st0" d="M29.937,48.67h0.423v0.051c-0.074,0.003-0.112,0.02-0.112,0.051c0,0.017,0.007,0.048,0.02,0.092
			c0,0.007,0.002,0.012,0.005,0.015l0.112,0.392l0.143-0.423c0.007-0.02,0.01-0.041,0.01-0.061c0-0.044-0.039-0.066-0.117-0.066
			V48.67h0.316v0.051c-0.064,0-0.105,0.032-0.122,0.097l-0.26,0.748h-0.102l-0.158-0.555l-0.188,0.555H29.8l-0.199-0.723
			c-0.02-0.078-0.058-0.119-0.112-0.122V48.67h0.402v0.051c-0.068,0-0.099,0.017-0.092,0.051c0,0.007,0,0.018,0,0.036
			c0.003,0.01,0.007,0.018,0.01,0.025l0.127,0.438l0.127-0.372l-0.02-0.071c-0.024-0.074-0.059-0.11-0.107-0.107V48.67z"/>
		<path class="st0" d="M31.424,49.26c-0.024,0.2-0.137,0.304-0.341,0.311c-0.207-0.007-0.321-0.11-0.341-0.311
			c0.02-0.2,0.134-0.307,0.341-0.321C31.286,48.957,31.4,49.064,31.424,49.26z M31.205,49.26c-0.003-0.18-0.044-0.272-0.122-0.275
			c-0.081,0.003-0.122,0.095-0.122,0.275c0,0.18,0.041,0.272,0.122,0.275C31.161,49.532,31.202,49.441,31.205,49.26z"/>
		<path class="st0" d="M31.892,49.566h-0.407v-0.051c0.071,0.007,0.105-0.022,0.102-0.087v-0.336
			c0.003-0.061-0.031-0.09-0.102-0.087V48.96l0.275-0.005v0.137h0.005c0.041-0.099,0.099-0.15,0.173-0.153
			c0.074,0.007,0.115,0.044,0.122,0.112c-0.007,0.064-0.038,0.099-0.092,0.102c-0.058,0-0.088-0.032-0.092-0.097
			c-0.003-0.003-0.003-0.01,0-0.02c0.003-0.01,0.005-0.018,0.005-0.025c-0.074,0.058-0.112,0.185-0.112,0.382
			c-0.013,0.095,0.027,0.136,0.122,0.122V49.566z"/>
		<path class="st0" d="M32.483,49.515v0.051h-0.397v-0.051c0.078,0.007,0.114-0.022,0.107-0.087v-0.611
			c0.003-0.061-0.031-0.09-0.102-0.087V48.68l0.29-0.005v0.754C32.374,49.493,32.408,49.522,32.483,49.515z"/>
		<path class="st0" d="M33.155,48.675v0.759c-0.007,0.064,0.022,0.094,0.087,0.087v0.046h-0.27V49.51
			c-0.044,0.044-0.097,0.064-0.158,0.061c-0.173-0.01-0.265-0.115-0.275-0.316c0.013-0.19,0.107-0.295,0.28-0.316
			c0.061,0.003,0.11,0.022,0.148,0.056v-0.178c0.003-0.061-0.031-0.09-0.102-0.087V48.68L33.155,48.675z M32.748,49.245
			c-0.003,0.186,0.031,0.278,0.102,0.275c0.074-0.003,0.114-0.087,0.117-0.249c-0.003-0.18-0.041-0.272-0.112-0.275
			C32.78,48.996,32.744,49.079,32.748,49.245z"/>
		<path class="st0" d="M33.521,49.281h-0.076l-0.061-0.377c-0.003-0.007-0.005-0.017-0.005-0.031
			c-0.007-0.034-0.008-0.061-0.005-0.081c0-0.088,0.036-0.134,0.107-0.137c0.071,0.003,0.109,0.049,0.112,0.137
			c0,0.02-0.003,0.048-0.01,0.081c0,0.013,0,0.024,0,0.031L33.521,49.281z M33.374,49.469c0.003-0.064,0.039-0.1,0.107-0.107
			c0.068,0.007,0.105,0.043,0.112,0.107c-0.007,0.064-0.044,0.097-0.112,0.097S33.377,49.533,33.374,49.469z"/>
	</g>
	<polygon class="st0" points="29.331,10.357 18.268,29.574 23.367,29.574 26.973,23.227 29.602,23.227 25.967,29.574 33.578,29.544 
		27.931,39.354 30.549,39.354 41.154,20.981 36.16,20.975 32.507,27.292 29.884,27.28 33.537,20.981 25.832,20.969 31.984,10.357 	
		"/>
	<polyline class="st1" points="30.804,10.12 20.24,28.417 22.677,28.417 26.322,22.105 31.519,22.105 27.927,28.417 33.143,28.417 
		36.821,22.105 39.195,22.105 28.998,39.767 	"/>
</g>
</svg>