<!-- Generator: Adobe Illustrator 22.0.0, SVG Export Plug-In  -->
<svg version="1.1"
	 xmlns="http://www.w3.org/2000/svg" xmlns:xlink="http://www.w3.org/1999/xlink" xmlns:a="http://ns.adobe.com/AdobeSVGViewerExtensions/3.0/"
	 x="0px" y="0px" width="841.89px" height="510.24px" viewBox="0 0 841.89 510.24"
	 style="enable-background:new 0 0 841.89 510.24;" xml:space="preserve">
<style type="text/css">
	.st0{fill:#1A1A1A;}
	.st1{fill:none;}
</style>
<defs>
</defs>
<g>
	<path d="M546.363,298.65h8.584c5.007,0,7.511,2.117,7.511,6.351c0,4.273-2.523,6.409-7.569,6.409h-5.133v7.946h-3.393V298.65z
		 M549.756,301.55v6.96h4.93c1.488,0,2.59-0.271,3.306-0.812c0.696-0.561,1.044-1.459,1.044-2.697c0-1.218-0.358-2.098-1.073-2.639
		c-0.677-0.541-1.769-0.812-3.277-0.812H549.756z"/>
	<path d="M582.034,301.318c1.74,1.934,2.61,4.505,2.61,7.714c0,3.171-0.87,5.733-2.61,7.685c-1.817,2.03-4.312,3.045-7.482,3.045
		c-3.171,0-5.665-1.024-7.482-3.074c-1.721-1.953-2.581-4.504-2.581-7.656c0-3.17,0.86-5.732,2.581-7.685
		c1.778-2.069,4.272-3.103,7.482-3.103C577.722,298.245,580.216,299.27,582.034,301.318z M569.563,303.406
		c-1.122,1.373-1.682,3.248-1.682,5.626c0,2.359,0.56,4.225,1.682,5.597c1.16,1.431,2.823,2.146,4.988,2.146
		c2.146,0,3.799-0.686,4.959-2.059c1.141-1.373,1.711-3.267,1.711-5.684c0-2.417-0.57-4.33-1.711-5.742
		c-1.141-1.373-2.794-2.059-4.959-2.059C572.425,301.231,570.762,301.957,569.563,303.406z"/>
	<path d="M587.833,298.65h9.222c2.146,0,3.818,0.474,5.017,1.421c1.295,1.063,1.943,2.572,1.943,4.524
		c0,1.063-0.29,2.021-0.87,2.871c-0.638,0.928-1.518,1.537-2.639,1.827v0.058c1.798,0.406,2.813,1.614,3.045,3.625l0.348,3.335
		c0.116,1.257,0.531,2.272,1.247,3.045h-3.683c-0.483-0.619-0.783-1.518-0.899-2.697l-0.261-2.552
		c-0.116-1.141-0.464-1.953-1.044-2.436c-0.58-0.502-1.47-0.754-2.668-0.754h-5.365v8.439h-3.393V298.65z M591.226,301.55v6.467
		h5.365c1.314,0,2.33-0.28,3.045-0.841c0.638-0.58,0.957-1.392,0.957-2.436c0-1.14-0.319-1.952-0.957-2.436
		c-0.619-0.503-1.634-0.754-3.045-0.754H591.226z"/>
	<path d="M606.451,298.65h16.965v2.9h-6.786v17.806h-3.393V301.55h-6.786V298.65z"/>
	<path d="M625.88,298.65h14.123v2.9h-10.73v5.742h10.121v2.9h-10.121v9.164h-3.393V298.65z"/>
	<path d="M659.433,301.318c1.74,1.934,2.61,4.505,2.61,7.714c0,3.171-0.87,5.733-2.61,7.685c-1.817,2.03-4.312,3.045-7.482,3.045
		c-3.171,0-5.665-1.024-7.482-3.074c-1.721-1.953-2.581-4.504-2.581-7.656c0-3.17,0.86-5.732,2.581-7.685
		c1.778-2.069,4.272-3.103,7.482-3.103C655.122,298.245,657.616,299.27,659.433,301.318z M646.963,303.406
		c-1.122,1.373-1.682,3.248-1.682,5.626c0,2.359,0.56,4.225,1.682,5.597c1.16,1.431,2.823,2.146,4.988,2.146
		c2.146,0,3.799-0.686,4.959-2.059c1.141-1.373,1.711-3.267,1.711-5.684c0-2.417-0.57-4.33-1.711-5.742
		c-1.141-1.373-2.794-2.059-4.959-2.059C649.824,301.231,648.162,301.957,646.963,303.406z"/>
	<path d="M665.232,298.65h3.364v17.806h11.194v2.9h-14.558V298.65z"/>
	<path d="M682.4,298.65h3.393v20.706H682.4V298.65z"/>
	<path d="M706.528,301.318c1.74,1.934,2.61,4.505,2.61,7.714c0,3.171-0.87,5.733-2.61,7.685c-1.817,2.03-4.312,3.045-7.482,3.045
		c-3.171,0-5.665-1.024-7.482-3.074c-1.721-1.953-2.581-4.504-2.581-7.656c0-3.17,0.86-5.732,2.581-7.685
		c1.778-2.069,4.272-3.103,7.482-3.103C702.217,298.245,704.711,299.27,706.528,301.318z M694.058,303.406
		c-1.122,1.373-1.682,3.248-1.682,5.626c0,2.359,0.56,4.225,1.682,5.597c1.16,1.431,2.823,2.146,4.988,2.146
		c2.146,0,3.799-0.686,4.959-2.059c1.141-1.373,1.711-3.267,1.711-5.684c0-2.417-0.57-4.33-1.711-5.742
		c-1.141-1.373-2.794-2.059-4.959-2.059C696.919,301.231,695.257,301.957,694.058,303.406z"/>
</g>
<g>
	<path d="M546.176,327.773h3.696c0.856,0,1.528,0.196,2.016,0.588c0.512,0.416,0.768,1.016,0.768,1.8
		c0,0.472-0.132,0.896-0.396,1.272c-0.28,0.376-0.668,0.624-1.164,0.744v0.024c0.816,0.184,1.272,0.704,1.368,1.56l0.132,1.32
		c0.048,0.52,0.2,0.94,0.456,1.26h-1.068c-0.2-0.296-0.316-0.676-0.348-1.14l-0.108-1.14c-0.048-0.512-0.228-0.876-0.54-1.092
		c-0.28-0.208-0.692-0.312-1.236-0.312h-2.592v3.684h-0.984V327.773z M547.161,328.625v3.18h2.592c0.624,0,1.108-0.148,1.452-0.444
		c0.304-0.28,0.456-0.668,0.456-1.164c0-0.528-0.148-0.92-0.444-1.176c-0.312-0.264-0.8-0.396-1.464-0.396H547.161z"/>
	<path d="M558.836,330.665c0.368,0.416,0.552,0.98,0.552,1.692v3.984h-0.9v-1.044c-0.248,0.344-0.568,0.624-0.96,0.84
		c-0.472,0.248-0.984,0.372-1.536,0.372c-0.624,0-1.12-0.16-1.488-0.48c-0.384-0.328-0.576-0.764-0.576-1.308
		c0-0.792,0.316-1.368,0.948-1.728c0.512-0.304,1.2-0.456,2.064-0.456l1.488-0.012v-0.204c0-1.04-0.54-1.56-1.62-1.56
		c-0.504,0-0.896,0.104-1.176,0.312c-0.312,0.216-0.504,0.536-0.576,0.96h-0.948c0.096-0.712,0.4-1.24,0.912-1.584
		c0.448-0.32,1.063-0.48,1.848-0.48C557.748,329.969,558.404,330.201,558.836,330.665z M558.428,333.281L557,333.293
		c-1.392,0-2.088,0.472-2.088,1.416c0,0.304,0.112,0.552,0.336,0.744c0.232,0.184,0.548,0.276,0.948,0.276
		c0.624,0,1.156-0.192,1.596-0.576c0.424-0.384,0.636-0.828,0.636-1.332V333.281z"/>
	<path d="M562.532,328.133v2.004h1.536v0.804h-1.536v3.948c0,0.24,0.044,0.404,0.132,0.492c0.088,0.104,0.24,0.156,0.456,0.156
		h0.792v0.804h-0.936c-0.512,0-0.876-0.132-1.092-0.396c-0.2-0.232-0.3-0.584-0.3-1.056v-3.948h-1.248v-0.804h1.248v-1.608
		L562.532,328.133z"/>
	<path d="M566.444,328.001c0.144,0.12,0.216,0.288,0.216,0.504c0,0.2-0.072,0.372-0.216,0.516c-0.152,0.136-0.324,0.204-0.516,0.204
		s-0.364-0.068-0.516-0.204c-0.136-0.136-0.204-0.308-0.204-0.516c0-0.224,0.068-0.392,0.204-0.504
		c0.136-0.136,0.308-0.204,0.516-0.204C566.136,327.797,566.308,327.865,566.444,328.001z M565.448,330.137h0.96v6.204h-0.96
		V330.137z"/>
	<path d="M573.2,330.929c0.528,0.608,0.792,1.38,0.792,2.316c0,0.92-0.26,1.684-0.78,2.292c-0.56,0.648-1.304,0.972-2.232,0.972
		c-0.928,0-1.668-0.324-2.22-0.972c-0.528-0.6-0.792-1.364-0.792-2.292c0-0.936,0.264-1.708,0.792-2.316
		c0.544-0.64,1.284-0.96,2.22-0.96S572.656,330.289,573.2,330.929z M569.444,331.529c-0.328,0.448-0.492,1.02-0.492,1.716
		c0,0.688,0.164,1.256,0.492,1.704c0.36,0.504,0.872,0.756,1.536,0.756c0.648,0,1.164-0.252,1.548-0.756
		c0.328-0.464,0.492-1.032,0.492-1.704c0-0.68-0.164-1.252-0.492-1.716c-0.384-0.504-0.9-0.756-1.548-0.756
		C570.316,330.773,569.804,331.025,569.444,331.529z"/>
	<path d="M580.459,332.525v3.816h-0.96v-3.744c0-1.208-0.544-1.812-1.632-1.812c-0.432,0-0.804,0.156-1.116,0.468
		c-0.328,0.328-0.512,0.776-0.552,1.344v3.744h-0.96v-6.204h0.96v0.912c0.216-0.352,0.492-0.616,0.828-0.792
		c0.336-0.192,0.708-0.288,1.116-0.288C579.688,329.969,580.459,330.821,580.459,332.525z"/>
	<path d="M586.616,330.665c0.368,0.416,0.552,0.98,0.552,1.692v3.984h-0.9v-1.044c-0.248,0.344-0.568,0.624-0.96,0.84
		c-0.472,0.248-0.984,0.372-1.536,0.372c-0.624,0-1.12-0.16-1.488-0.48c-0.384-0.328-0.576-0.764-0.576-1.308
		c0-0.792,0.316-1.368,0.948-1.728c0.512-0.304,1.2-0.456,2.064-0.456l1.488-0.012v-0.204c0-1.04-0.54-1.56-1.62-1.56
		c-0.504,0-0.896,0.104-1.176,0.312c-0.312,0.216-0.504,0.536-0.576,0.96h-0.948c0.096-0.712,0.4-1.24,0.912-1.584
		c0.448-0.32,1.063-0.48,1.848-0.48C585.527,329.969,586.184,330.201,586.616,330.665z M586.208,333.281l-1.428,0.012
		c-1.392,0-2.088,0.472-2.088,1.416c0,0.304,0.112,0.552,0.336,0.744c0.232,0.184,0.548,0.276,0.948,0.276
		c0.624,0,1.156-0.192,1.596-0.576c0.424-0.384,0.636-0.828,0.636-1.332V333.281z"/>
	<path d="M588.848,327.605h0.948v8.736h-0.948V327.605z"/>
	<path d="M592.783,328.001c0.144,0.12,0.216,0.288,0.216,0.504c0,0.2-0.072,0.372-0.216,0.516c-0.152,0.136-0.324,0.204-0.516,0.204
		s-0.364-0.068-0.516-0.204c-0.136-0.136-0.204-0.308-0.204-0.516c0-0.224,0.068-0.392,0.204-0.504
		c0.136-0.136,0.308-0.204,0.516-0.204C592.476,327.797,592.647,327.865,592.783,328.001z M591.788,330.137h0.96v6.204h-0.96
		V330.137z"/>
	<path d="M596.203,328.133v2.004h1.536v0.804h-1.536v3.948c0,0.24,0.044,0.404,0.132,0.492c0.088,0.104,0.24,0.156,0.456,0.156
		h0.792v0.804h-0.936c-0.512,0-0.876-0.132-1.092-0.396c-0.2-0.232-0.3-0.584-0.3-1.056v-3.948h-1.248v-0.804h1.248v-1.608
		L596.203,328.133z"/>
	<path d="M598.123,330.137h1.044l1.896,4.896l1.836-4.896h1.056l-3.396,8.58h-1.044l1.068-2.52L598.123,330.137z"/>
	<path d="M610.663,331.421c-0.368-0.392-0.628-0.708-0.78-0.948c-0.232-0.352-0.348-0.7-0.348-1.044c0-0.568,0.216-1.02,0.648-1.356
		c0.4-0.312,0.904-0.468,1.512-0.468s1.104,0.156,1.488,0.468c0.416,0.32,0.624,0.752,0.624,1.296c0,0.56-0.268,1.06-0.804,1.5
		c-0.056,0.041-0.224,0.148-0.504,0.324c-0.208,0.144-0.38,0.256-0.516,0.336l2.148,2.268c0.304-0.664,0.488-1.488,0.552-2.472
		h0.972c-0.048,1.264-0.32,2.336-0.816,3.216l1.704,1.8h-1.248l-0.996-1.056c-0.72,0.816-1.648,1.224-2.784,1.224
		c-0.864,0-1.572-0.208-2.124-0.624c-0.584-0.456-0.876-1.084-0.876-1.884s0.372-1.468,1.116-2.004L610.663,331.421z
		 M613.651,334.601l-2.448-2.604c-0.376,0.24-0.732,0.488-1.068,0.744c-0.424,0.352-0.636,0.776-0.636,1.272
		c0,0.48,0.192,0.876,0.576,1.188c0.36,0.288,0.828,0.432,1.404,0.432C612.375,335.633,613.099,335.289,613.651,334.601z
		 M610.819,328.661c-0.208,0.16-0.312,0.412-0.312,0.756c0,0.232,0.128,0.524,0.384,0.876c0.104,0.144,0.292,0.372,0.564,0.684
		c0.072-0.048,0.156-0.096,0.252-0.144c0.744-0.432,1.116-0.9,1.116-1.404c0-0.304-0.096-0.552-0.288-0.744
		c-0.208-0.208-0.496-0.312-0.864-0.312C611.294,328.373,611.011,328.469,610.819,328.661z"/>
	<path d="M626.743,328.265c0.568,0.456,0.896,1.136,0.984,2.04h-0.972c-0.104-0.616-0.344-1.076-0.72-1.38
		c-0.376-0.304-0.916-0.456-1.62-0.456c-0.648,0-1.144,0.104-1.488,0.312c-0.408,0.24-0.612,0.604-0.612,1.092
		c0,0.432,0.244,0.78,0.732,1.044c0.208,0.12,0.732,0.3,1.572,0.54c1.128,0.336,1.872,0.612,2.232,0.828
		c0.712,0.432,1.068,1.036,1.068,1.812c0,0.752-0.3,1.344-0.9,1.776c-0.608,0.424-1.416,0.636-2.424,0.636s-1.8-0.216-2.376-0.648
		c-0.672-0.52-1.044-1.304-1.116-2.352h0.972c0.088,0.744,0.348,1.292,0.78,1.644c0.408,0.32,0.988,0.48,1.74,0.48
		c0.704,0,1.272-0.132,1.704-0.396s0.648-0.624,0.648-1.08c0-0.536-0.284-0.956-0.852-1.26c-0.216-0.128-0.82-0.336-1.812-0.624
		c-1.008-0.304-1.664-0.536-1.968-0.696c-0.656-0.384-0.984-0.936-0.984-1.656c0-0.752,0.316-1.332,0.948-1.74
		c0.568-0.384,1.296-0.576,2.184-0.576C625.438,327.605,626.199,327.825,626.743,328.265z"/>
	<path d="M633.859,330.977c0.456,0.6,0.696,1.444,0.72,2.532h-4.896c0.048,0.704,0.236,1.244,0.564,1.62
		c0.336,0.384,0.8,0.576,1.392,0.576c0.504,0,0.916-0.127,1.236-0.384c0.256-0.208,0.464-0.532,0.624-0.972h0.96
		c-0.144,0.592-0.424,1.08-0.84,1.464c-0.528,0.464-1.188,0.696-1.98,0.696c-0.888,0-1.6-0.292-2.136-0.876
		c-0.544-0.592-0.816-1.392-0.816-2.4c0-0.928,0.26-1.692,0.78-2.292c0.528-0.648,1.24-0.972,2.136-0.972
		C632.603,329.969,633.354,330.305,633.859,330.977z M630.295,331.313c-0.328,0.352-0.524,0.836-0.588,1.452h3.876
		c-0.12-1.328-0.772-1.992-1.956-1.992C631.075,330.773,630.631,330.953,630.295,331.313z"/>
	<path d="M640.926,332.525v3.816h-0.96v-3.744c0-1.208-0.544-1.812-1.632-1.812c-0.432,0-0.804,0.156-1.116,0.468
		c-0.328,0.328-0.512,0.776-0.552,1.344v3.744h-0.96v-6.204h0.96v0.912c0.216-0.352,0.492-0.616,0.828-0.792
		c0.336-0.192,0.708-0.288,1.116-0.288C640.154,329.969,640.926,330.821,640.926,332.525z"/>
	<path d="M647.154,331.901h-0.936c-0.088-0.4-0.248-0.68-0.48-0.84c-0.264-0.192-0.644-0.288-1.14-0.288
		c-0.44,0-0.776,0.08-1.008,0.24c-0.264,0.152-0.396,0.368-0.396,0.648c0,0.272,0.176,0.496,0.528,0.672
		c0.2,0.096,0.628,0.232,1.284,0.408c0.736,0.176,1.268,0.368,1.596,0.576c0.496,0.312,0.744,0.736,0.744,1.272
		c0,1.28-0.876,1.92-2.628,1.92c-1.632,0-2.52-0.716-2.664-2.148h0.936c0.072,0.48,0.244,0.832,0.516,1.056
		c0.264,0.192,0.66,0.288,1.188,0.288c1.112,0,1.668-0.352,1.668-1.056c0-0.344-0.196-0.612-0.588-0.804
		c-0.2-0.096-0.64-0.228-1.32-0.396c-0.744-0.184-1.256-0.368-1.536-0.552c-0.472-0.28-0.708-0.684-0.708-1.212
		c0-0.52,0.232-0.936,0.696-1.248c0.432-0.312,1-0.468,1.704-0.468C646.138,329.969,646.986,330.613,647.154,331.901z"/>
	<path d="M649.782,328.001c0.144,0.12,0.216,0.288,0.216,0.504c0,0.2-0.072,0.372-0.216,0.516c-0.152,0.136-0.324,0.204-0.516,0.204
		s-0.364-0.068-0.516-0.204c-0.136-0.136-0.204-0.308-0.204-0.516c0-0.224,0.068-0.392,0.204-0.504
		c0.136-0.136,0.308-0.204,0.516-0.204C649.475,327.797,649.646,327.865,649.782,328.001z M648.787,330.137h0.96v6.204h-0.96
		V330.137z"/>
	<path d="M651.546,327.605h0.96v3.672c0.48-0.872,1.164-1.308,2.052-1.308c0.888,0,1.58,0.332,2.076,0.996
		c0.464,0.608,0.696,1.36,0.696,2.256c0,0.928-0.232,1.696-0.696,2.304c-0.52,0.656-1.228,0.984-2.124,0.984
		c-0.952,0-1.64-0.396-2.064-1.188v1.02h-0.9V327.605z M652.998,331.433c-0.352,0.432-0.528,1.016-0.528,1.752v0.12
		c0,0.696,0.156,1.26,0.468,1.692c0.336,0.48,0.82,0.72,1.452,0.72c0.664,0,1.168-0.244,1.512-0.732
		c0.296-0.448,0.444-1.036,0.444-1.764c0-0.744-0.156-1.324-0.468-1.74c-0.344-0.48-0.852-0.72-1.524-0.72
		C653.778,330.761,653.326,330.985,652.998,331.433z"/>
	<path d="M659.886,328.001c0.144,0.12,0.216,0.288,0.216,0.504c0,0.2-0.072,0.372-0.216,0.516c-0.152,0.136-0.324,0.204-0.516,0.204
		s-0.364-0.068-0.516-0.204c-0.136-0.136-0.204-0.308-0.204-0.516c0-0.224,0.068-0.392,0.204-0.504
		c0.136-0.136,0.308-0.204,0.516-0.204C659.579,327.797,659.75,327.865,659.886,328.001z M658.891,330.137h0.96v6.204h-0.96V330.137
		z"/>
	<path d="M661.842,327.605h0.948v8.736h-0.948V327.605z"/>
	<path d="M665.778,328.001c0.144,0.12,0.216,0.288,0.216,0.504c0,0.2-0.072,0.372-0.216,0.516c-0.152,0.136-0.324,0.204-0.516,0.204
		s-0.364-0.068-0.516-0.204c-0.136-0.136-0.204-0.308-0.204-0.516c0-0.224,0.068-0.392,0.204-0.504
		c0.136-0.136,0.308-0.204,0.516-0.204C665.47,327.797,665.642,327.865,665.778,328.001z M664.782,330.137h0.96v6.204h-0.96V330.137
		z"/>
	<path d="M669.198,328.133v2.004h1.536v0.804h-1.536v3.948c0,0.24,0.044,0.404,0.132,0.492c0.088,0.104,0.24,0.156,0.456,0.156
		h0.792v0.804h-0.936c-0.512,0-0.876-0.132-1.092-0.396c-0.2-0.232-0.3-0.584-0.3-1.056v-3.948h-1.248v-0.804h1.248v-1.608
		L669.198,328.133z"/>
	<path d="M671.118,330.137h1.044l1.896,4.896l1.836-4.896h1.056l-3.396,8.58h-1.044l1.068-2.52L671.118,330.137z"/>
</g>
<g>
	<path class="st0" d="M472.324,336.292v-2.368c0-0.555,0.133-0.989,0.4-1.304c0.267-0.314,0.646-0.472,1.136-0.472
		c0.352,0,0.656,0.096,0.912,0.288c0.251,0.192,0.416,0.47,0.496,0.832h0.016c0.128-0.613,0.488-0.946,1.08-1l0.832-0.072
		c0.357-0.032,0.637-0.115,0.84-0.248v0.344c-0.187,0.106-0.448,0.176-0.784,0.208l-0.824,0.072
		c-0.368,0.032-0.632,0.176-0.792,0.432c-0.144,0.224-0.216,0.533-0.216,0.928v2.048h2.616v0.312H472.324z M472.612,335.98h2.52
		v-2.04c0-0.48-0.12-0.851-0.36-1.112c-0.229-0.245-0.53-0.368-0.904-0.368c-0.405,0-0.715,0.115-0.928,0.344
		c-0.218,0.251-0.328,0.632-0.328,1.144V335.98z"/>
	<path class="st0" d="M474.444,328.076c0.373-0.272,0.915-0.424,1.624-0.456v3.456c0.555-0.016,0.989-0.163,1.304-0.44
		c0.331-0.288,0.496-0.664,0.496-1.128c0-0.411-0.115-0.747-0.344-1.008c-0.197-0.213-0.469-0.368-0.816-0.464v-0.328
		c0.4,0.096,0.731,0.277,0.992,0.544c0.299,0.331,0.448,0.75,0.448,1.256c0,0.576-0.2,1.032-0.6,1.368
		c-0.4,0.347-0.928,0.52-1.584,0.52c-0.603,0-1.109-0.165-1.52-0.496c-0.438-0.352-0.656-0.813-0.656-1.384
		C473.787,328.876,474.006,328.396,474.444,328.076z M474.556,330.611c0.325,0.277,0.739,0.432,1.24,0.464v-3.136
		c-1.152,0.085-1.728,0.608-1.728,1.568C474.068,329.966,474.23,330.335,474.556,330.611z"/>
	<path class="st0" d="M475.043,323.892v0.304c-0.309,0.053-0.544,0.176-0.704,0.368c-0.182,0.219-0.272,0.528-0.272,0.928
		c0,0.341,0.075,0.613,0.224,0.816c0.144,0.224,0.328,0.336,0.552,0.336c0.24,0,0.432-0.13,0.576-0.392
		c0.091-0.17,0.192-0.466,0.304-0.888c0.128-0.512,0.253-0.872,0.376-1.08c0.192-0.336,0.464-0.504,0.816-0.504
		c0.821,0,1.232,0.536,1.232,1.608c0,1.029-0.464,1.592-1.392,1.688v-0.312c0.405-0.048,0.693-0.189,0.864-0.424
		c0.166-0.213,0.248-0.531,0.248-0.952c0-0.864-0.314-1.296-0.944-1.296c-0.272,0-0.48,0.144-0.624,0.432
		c-0.08,0.144-0.184,0.464-0.312,0.96c-0.128,0.485-0.251,0.821-0.368,1.008c-0.187,0.304-0.442,0.456-0.768,0.456
		c-0.325,0-0.584-0.144-0.776-0.432c-0.192-0.283-0.288-0.624-0.288-1.024C473.787,324.553,474.206,324.02,475.043,323.892z"/>
	<path class="st0" d="M474.459,319.788c0.4-0.304,0.904-0.456,1.512-0.456c0.603,0,1.107,0.149,1.512,0.448
		c0.442,0.331,0.664,0.79,0.664,1.376c0,0.731-0.362,1.24-1.088,1.528h2.56v0.312h-5.72V322.7h0.968
		c-0.72-0.314-1.08-0.827-1.08-1.536C473.787,320.583,474.012,320.124,474.459,319.788z M474.636,322.316
		c0.331,0.25,0.768,0.376,1.312,0.376h0.096c0.528,0,0.96-0.128,1.296-0.384c0.352-0.272,0.528-0.645,0.528-1.12
		c0-0.501-0.184-0.888-0.552-1.16c-0.346-0.25-0.794-0.376-1.344-0.376c-0.544,0-0.987,0.125-1.328,0.376
		c-0.384,0.272-0.576,0.656-0.576,1.152C474.068,321.671,474.257,322.049,474.636,322.316z"/>
	<path class="st0" d="M474.444,315.388c0.373-0.272,0.915-0.424,1.624-0.456v3.456c0.555-0.016,0.989-0.163,1.304-0.44
		c0.331-0.288,0.496-0.664,0.496-1.128c0-0.411-0.115-0.747-0.344-1.008c-0.197-0.213-0.469-0.368-0.816-0.464v-0.328
		c0.4,0.096,0.731,0.277,0.992,0.544c0.299,0.331,0.448,0.75,0.448,1.256c0,0.576-0.2,1.032-0.6,1.368
		c-0.4,0.347-0.928,0.52-1.584,0.52c-0.603,0-1.109-0.165-1.52-0.496c-0.438-0.352-0.656-0.813-0.656-1.384
		C473.787,316.188,474.006,315.708,474.444,315.388z M474.556,317.924c0.325,0.277,0.739,0.432,1.24,0.464v-3.136
		c-1.152,0.085-1.728,0.608-1.728,1.568C474.068,317.279,474.23,317.647,474.556,317.924z"/>
	<path class="st0" d="M474.147,311.277c0.24-0.304,0.603-0.488,1.088-0.552v0.304c-0.384,0.053-0.675,0.203-0.872,0.448
		c-0.197,0.251-0.296,0.573-0.296,0.968c0,0.475,0.187,0.856,0.56,1.144c0.352,0.272,0.813,0.408,1.384,0.408
		c0.56,0,1.005-0.13,1.336-0.392c0.347-0.267,0.52-0.65,0.52-1.152c0-0.821-0.429-1.304-1.288-1.448V310.7
		c0.507,0.08,0.896,0.272,1.168,0.576c0.267,0.309,0.4,0.701,0.4,1.176c0,0.603-0.208,1.069-0.624,1.4
		c-0.384,0.304-0.888,0.456-1.512,0.456c-0.635,0-1.155-0.16-1.56-0.48c-0.443-0.331-0.664-0.792-0.664-1.384
		C473.787,311.97,473.908,311.58,474.147,311.277z"/>
	<path class="st0" d="M472.563,309.036h1.336v-1.144h0.28v1.144h2.984c0.224,0,0.376-0.037,0.456-0.112
		c0.091-0.064,0.136-0.203,0.136-0.416v-0.52h0.28v0.544c0,0.31-0.077,0.525-0.232,0.648c-0.139,0.107-0.352,0.16-0.64,0.16h-2.984
		v0.936h-0.28v-0.936h-1.2L472.563,309.036z"/>
	<path class="st0" d="M472.324,302.1h0.288v0.672c0,0.251,0.061,0.43,0.184,0.536c0.112,0.107,0.312,0.16,0.6,0.16h0.504v-1.312
		h0.28v1.312h3.856v0.304h-3.856v1.184h-0.28v-1.184h-0.504c-0.352,0-0.613-0.077-0.784-0.232c-0.192-0.16-0.288-0.411-0.288-0.752
		V302.1z"/>
	<path class="st0" d="M474.468,298.34c0.405-0.325,0.907-0.488,1.504-0.488c0.582,0,1.083,0.163,1.504,0.488
		c0.448,0.357,0.672,0.837,0.672,1.44c0,0.608-0.224,1.088-0.672,1.44c-0.411,0.325-0.912,0.488-1.504,0.488
		c-0.608,0-1.109-0.163-1.504-0.488c-0.454-0.352-0.68-0.832-0.68-1.44C473.787,299.177,474.014,298.697,474.468,298.34z
		 M474.652,300.988c0.352,0.272,0.792,0.408,1.32,0.408c0.523,0,0.96-0.136,1.312-0.408c0.389-0.299,0.584-0.702,0.584-1.208
		c0-0.496-0.195-0.899-0.584-1.208c-0.352-0.272-0.789-0.408-1.312-0.408c-0.528,0-0.968,0.136-1.32,0.408
		c-0.39,0.304-0.584,0.707-0.584,1.208C474.068,300.292,474.262,300.695,474.652,300.988z"/>
	<path class="st0" d="M473.868,294.7h0.328c-0.064,0.224-0.096,0.442-0.096,0.656c0,0.421,0.195,0.755,0.584,1
		c0.331,0.213,0.72,0.32,1.168,0.32h2.184v0.312h-4.136v-0.312h0.864c-0.267-0.101-0.488-0.261-0.664-0.48
		c-0.208-0.25-0.312-0.536-0.312-0.856C473.787,295.068,473.814,294.855,473.868,294.7z"/>
	<path class="st0" d="M472.324,291.404v-3.96h0.288v3.648h2.312v-3.464h0.288v3.464h2.536v-3.784h0.288v4.096H472.324z"/>
	<path class="st0" d="M473.899,286.916v-0.344l3.736-1.424l-3.736-1.424v-0.344l4.136,1.6v0.336L473.899,286.916z"/>
	<path class="st0" d="M474.267,279.861c0.267-0.235,0.632-0.352,1.096-0.352h2.672v0.296h-0.888
		c0.246,0.171,0.467,0.403,0.664,0.696c0.224,0.352,0.336,0.733,0.336,1.144c0,0.395-0.101,0.717-0.304,0.968
		c-0.213,0.251-0.496,0.376-0.848,0.376c-0.528,0-0.909-0.221-1.144-0.664c-0.187-0.341-0.28-0.808-0.28-1.4l-0.008-1.112h-0.168
		c-0.885,0-1.328,0.44-1.328,1.32c0,0.395,0.088,0.712,0.264,0.952c0.187,0.267,0.454,0.424,0.8,0.472v0.304
		c-0.448-0.064-0.787-0.253-1.016-0.568c-0.219-0.288-0.328-0.677-0.328-1.168C473.787,280.559,473.948,280.138,474.267,279.861z
		 M475.835,279.813l0.008,1.104c0.005,1.173,0.392,1.76,1.16,1.76c0.262,0,0.472-0.099,0.632-0.296
		c0.155-0.197,0.232-0.461,0.232-0.792c0-0.448-0.157-0.861-0.472-1.24c-0.314-0.357-0.634-0.536-0.96-0.536H475.835z"/>
	<path class="st0" d="M475.499,275.253h2.536v0.312h-2.528c-0.96,0-1.44,0.421-1.44,1.264c0,0.374,0.136,0.686,0.408,0.936
		c0.261,0.256,0.613,0.392,1.056,0.408h2.504v0.312h-4.136v-0.312h0.752c-0.256-0.123-0.467-0.309-0.632-0.56
		c-0.154-0.24-0.232-0.518-0.232-0.832C473.787,275.762,474.358,275.253,475.499,275.253z"/>
	<path class="st0" d="M474.86,270.949h-0.96v-0.312h3.816c1.344,0,2.016,0.605,2.016,1.816c0,0.534-0.12,0.944-0.36,1.232
		c-0.229,0.277-0.557,0.448-0.984,0.512v-0.304c0.336-0.064,0.592-0.203,0.768-0.416c0.197-0.245,0.296-0.586,0.296-1.024
		c0-1.002-0.571-1.504-1.712-1.504h-0.864c0.709,0.304,1.064,0.832,1.064,1.584c0,0.582-0.21,1.045-0.632,1.392
		c-0.389,0.309-0.869,0.464-1.44,0.464c-0.581,0-1.062-0.155-1.44-0.464c-0.427-0.341-0.64-0.805-0.64-1.392
		C473.787,271.781,474.145,271.253,474.86,270.949z M474.612,273.677c0.32,0.267,0.739,0.4,1.256,0.4
		c0.491,0,0.904-0.128,1.24-0.384c0.368-0.283,0.552-0.677,0.552-1.184c0-0.485-0.179-0.875-0.536-1.168
		c-0.341-0.261-0.76-0.392-1.256-0.392c-0.501,0-0.92,0.131-1.256,0.392c-0.363,0.283-0.544,0.672-0.544,1.168
		C474.068,273.01,474.249,273.4,474.612,273.677z"/>
	<path class="st0" d="M474.444,266.533c0.373-0.272,0.915-0.424,1.624-0.456v3.456c0.555-0.016,0.989-0.163,1.304-0.44
		c0.331-0.288,0.496-0.664,0.496-1.128c0-0.411-0.115-0.747-0.344-1.008c-0.197-0.213-0.469-0.368-0.816-0.464v-0.328
		c0.4,0.096,0.731,0.277,0.992,0.544c0.299,0.331,0.448,0.75,0.448,1.256c0,0.576-0.2,1.032-0.6,1.368
		c-0.4,0.347-0.928,0.52-1.584,0.52c-0.603,0-1.109-0.165-1.52-0.496c-0.438-0.352-0.656-0.813-0.656-1.384
		C473.787,267.333,474.006,266.853,474.444,266.533z M474.556,269.069c0.325,0.277,0.739,0.432,1.24,0.464v-3.136
		c-1.152,0.085-1.728,0.608-1.728,1.568C474.068,268.423,474.23,268.792,474.556,269.069z"/>
	<path class="st0" d="M472.211,265.109v-0.304h5.824v0.304H472.211z"/>
	<path class="st0" d="M472.587,262.949c0.054-0.064,0.128-0.096,0.224-0.096c0.085,0,0.16,0.032,0.224,0.096
		s0.096,0.139,0.096,0.224c0,0.091-0.032,0.166-0.096,0.224c-0.064,0.064-0.139,0.096-0.224,0.096c-0.096,0-0.17-0.032-0.224-0.096
		c-0.064-0.059-0.096-0.133-0.096-0.224C472.492,263.088,472.523,263.013,472.587,262.949z M473.899,263.325v-0.304h4.136v0.304
		H473.899z"/>
	<path class="st0" d="M474.468,258.517c0.405-0.325,0.907-0.488,1.504-0.488c0.582,0,1.083,0.163,1.504,0.488
		c0.448,0.357,0.672,0.837,0.672,1.44c0,0.608-0.224,1.088-0.672,1.44c-0.411,0.325-0.912,0.488-1.504,0.488
		c-0.608,0-1.109-0.163-1.504-0.488c-0.454-0.352-0.68-0.832-0.68-1.44C473.787,259.354,474.014,258.874,474.468,258.517z
		 M474.652,261.165c0.352,0.272,0.792,0.408,1.32,0.408c0.523,0,0.96-0.136,1.312-0.408c0.389-0.299,0.584-0.702,0.584-1.208
		c0-0.496-0.195-0.899-0.584-1.208c-0.352-0.272-0.789-0.408-1.312-0.408c-0.528,0-0.968,0.136-1.32,0.408
		c-0.39,0.304-0.584,0.707-0.584,1.208C474.068,260.469,474.262,260.872,474.652,261.165z"/>
	<path class="st0" d="M475.499,253.933h2.536v0.312h-2.528c-0.96,0-1.44,0.421-1.44,1.264c0,0.374,0.136,0.686,0.408,0.936
		c0.261,0.256,0.613,0.392,1.056,0.408h2.504v0.312h-4.136v-0.312h0.752c-0.256-0.123-0.467-0.309-0.632-0.56
		c-0.154-0.24-0.232-0.518-0.232-0.832C473.787,254.442,474.358,253.933,475.499,253.933z"/>
	<path class="st0" d="M483.691,332.323c0.336-0.464,0.782-0.728,1.336-0.792v0.304c-0.464,0.064-0.837,0.293-1.12,0.688
		c-0.267,0.378-0.4,0.816-0.4,1.312c0,0.741,0.264,1.333,0.792,1.776c0.501,0.405,1.139,0.608,1.912,0.608
		c0.768,0,1.395-0.203,1.88-0.608c0.507-0.416,0.76-0.984,0.76-1.704c0-0.512-0.141-0.962-0.424-1.352
		c-0.325-0.421-0.768-0.688-1.328-0.8v-0.304c0.656,0.128,1.171,0.427,1.544,0.896c0.336,0.438,0.504,0.958,0.504,1.56
		c0,0.811-0.291,1.459-0.872,1.944c-0.539,0.454-1.227,0.68-2.064,0.68c-0.842,0-1.541-0.229-2.096-0.688
		c-0.603-0.485-0.904-1.155-0.904-2.008C483.211,333.259,483.371,332.756,483.691,332.323z"/>
	<path class="st0" d="M485.267,327.619c0.267-0.235,0.632-0.352,1.096-0.352h2.672v0.296h-0.888
		c0.246,0.171,0.467,0.403,0.664,0.696c0.224,0.352,0.336,0.733,0.336,1.144c0,0.395-0.101,0.717-0.304,0.968
		c-0.213,0.251-0.496,0.376-0.848,0.376c-0.528,0-0.909-0.221-1.144-0.664c-0.187-0.341-0.28-0.808-0.28-1.4l-0.008-1.112h-0.168
		c-0.885,0-1.328,0.44-1.328,1.32c0,0.395,0.088,0.712,0.264,0.952c0.187,0.267,0.454,0.424,0.8,0.472v0.304
		c-0.448-0.064-0.787-0.253-1.016-0.568c-0.219-0.288-0.328-0.677-0.328-1.168C484.787,328.318,484.948,327.897,485.267,327.619z
		 M486.835,327.571l0.008,1.104c0.005,1.173,0.392,1.76,1.16,1.76c0.262,0,0.472-0.099,0.632-0.296
		c0.155-0.197,0.232-0.461,0.232-0.792c0-0.448-0.157-0.861-0.472-1.24c-0.314-0.357-0.634-0.536-0.96-0.536H486.835z"/>
	<path class="st0" d="M486.499,323.011h2.536v0.312h-2.528c-0.96,0-1.44,0.421-1.44,1.264c0,0.374,0.136,0.686,0.408,0.936
		c0.261,0.256,0.613,0.392,1.056,0.408h2.504v0.312h-4.136v-0.312h0.752c-0.256-0.123-0.467-0.309-0.632-0.56
		c-0.154-0.24-0.232-0.518-0.232-0.832C484.787,323.521,485.358,323.011,486.499,323.011z"/>
	<path class="st0" d="M484.899,319.796v-0.344l3.648-1.456l-3.648-1.44v-0.352l5.72,2.296v0.344l-1.688-0.688L484.899,319.796z"/>
	<path class="st0" d="M485.468,312.444c0.405-0.325,0.907-0.488,1.504-0.488c0.582,0,1.083,0.163,1.504,0.488
		c0.448,0.357,0.672,0.837,0.672,1.44c0,0.608-0.224,1.088-0.672,1.44c-0.411,0.325-0.912,0.488-1.504,0.488
		c-0.608,0-1.109-0.163-1.504-0.488c-0.454-0.352-0.68-0.832-0.68-1.44C484.787,313.281,485.014,312.801,485.468,312.444z
		 M485.652,315.092c0.352,0.272,0.792,0.408,1.32,0.408c0.523,0,0.96-0.136,1.312-0.408c0.389-0.299,0.584-0.702,0.584-1.208
		c0-0.496-0.195-0.899-0.584-1.208c-0.352-0.272-0.789-0.408-1.312-0.408c-0.528,0-0.968,0.136-1.32,0.408
		c-0.39,0.304-0.584,0.707-0.584,1.208C485.068,314.396,485.262,314.798,485.652,315.092z"/>
	<path class="st0" d="M484.899,311.091v-0.312h2.536c0.469,0,0.821-0.099,1.056-0.296c0.25-0.208,0.376-0.53,0.376-0.968
		c0-0.374-0.136-0.688-0.408-0.944c-0.272-0.256-0.624-0.392-1.056-0.408h-2.504v-0.304h4.136v0.304h-0.768
		c0.587,0.314,0.88,0.784,0.88,1.408c0,1.014-0.568,1.52-1.704,1.52H484.899z"/>
	<path class="st0" d="M484.868,301.884h0.328c-0.064,0.224-0.096,0.442-0.096,0.656c0,0.421,0.195,0.755,0.584,1
		c0.331,0.213,0.72,0.32,1.168,0.32h2.184v0.312h-4.136v-0.312h0.864c-0.267-0.101-0.488-0.261-0.664-0.48
		c-0.208-0.25-0.312-0.536-0.312-0.856C484.787,302.252,484.814,302.039,484.868,301.884z"/>
	<path class="st0" d="M485.444,298.252c0.373-0.272,0.915-0.424,1.624-0.456v3.456c0.555-0.016,0.989-0.163,1.304-0.44
		c0.331-0.288,0.496-0.664,0.496-1.128c0-0.411-0.115-0.747-0.344-1.008c-0.197-0.213-0.469-0.368-0.816-0.464v-0.328
		c0.4,0.096,0.731,0.277,0.992,0.544c0.299,0.331,0.448,0.75,0.448,1.256c0,0.576-0.2,1.032-0.6,1.368
		c-0.4,0.347-0.928,0.52-1.584,0.52c-0.603,0-1.109-0.165-1.52-0.496c-0.438-0.352-0.656-0.813-0.656-1.384
		C484.787,299.052,485.006,298.572,485.444,298.252z M485.556,300.788c0.325,0.277,0.739,0.432,1.24,0.464v-3.136
		c-1.152,0.085-1.728,0.608-1.728,1.568C485.068,300.143,485.23,300.511,485.556,300.788z"/>
	<path class="st0" d="M485.267,294.044c0.267-0.235,0.632-0.352,1.096-0.352h2.672v0.296h-0.888
		c0.246,0.171,0.467,0.403,0.664,0.696c0.224,0.352,0.336,0.733,0.336,1.144c0,0.395-0.101,0.717-0.304,0.968
		c-0.213,0.251-0.496,0.376-0.848,0.376c-0.528,0-0.909-0.221-1.144-0.664c-0.187-0.341-0.28-0.808-0.28-1.4l-0.008-1.112h-0.168
		c-0.885,0-1.328,0.44-1.328,1.32c0,0.395,0.088,0.712,0.264,0.952c0.187,0.267,0.454,0.424,0.8,0.472v0.304
		c-0.448-0.064-0.787-0.253-1.016-0.568c-0.219-0.288-0.328-0.677-0.328-1.168C484.787,294.743,484.948,294.321,485.267,294.044z
		 M486.835,293.996l0.008,1.104c0.005,1.173,0.392,1.76,1.16,1.76c0.262,0,0.472-0.099,0.632-0.296
		c0.155-0.197,0.232-0.461,0.232-0.792c0-0.448-0.157-0.861-0.472-1.24c-0.314-0.357-0.634-0.536-0.96-0.536H486.835z"/>
	<path class="st0" d="M483.211,289.476v-0.312h5.824v0.296h-0.968c0.72,0.288,1.08,0.803,1.08,1.544
		c0,0.586-0.221,1.045-0.664,1.376c-0.395,0.298-0.899,0.448-1.512,0.448c-0.608,0-1.112-0.152-1.512-0.456
		c-0.448-0.331-0.672-0.784-0.672-1.36c0-0.736,0.368-1.248,1.104-1.536H483.211z M485.636,292.132
		c0.336,0.256,0.781,0.384,1.336,0.384s1-0.125,1.336-0.376c0.374-0.277,0.56-0.664,0.56-1.16c0-0.485-0.181-0.864-0.544-1.136
		c-0.341-0.25-0.771-0.376-1.288-0.376h-0.104c-0.539,0-0.979,0.128-1.32,0.384c-0.363,0.277-0.544,0.651-0.544,1.12
		C485.068,291.479,485.257,291.866,485.636,292.132z"/>
	<path class="st0" d="M486.043,282.532v0.304c-0.309,0.053-0.544,0.176-0.704,0.368c-0.182,0.219-0.272,0.528-0.272,0.928
		c0,0.341,0.075,0.613,0.224,0.816c0.144,0.224,0.328,0.336,0.552,0.336c0.24,0,0.432-0.13,0.576-0.392
		c0.091-0.17,0.192-0.466,0.304-0.888c0.128-0.512,0.253-0.872,0.376-1.08c0.192-0.336,0.464-0.504,0.816-0.504
		c0.821,0,1.232,0.536,1.232,1.608c0,1.029-0.464,1.592-1.392,1.688v-0.312c0.405-0.048,0.693-0.189,0.864-0.424
		c0.166-0.213,0.248-0.531,0.248-0.952c0-0.864-0.314-1.296-0.944-1.296c-0.272,0-0.48,0.144-0.624,0.432
		c-0.08,0.144-0.184,0.464-0.312,0.96c-0.128,0.485-0.251,0.821-0.368,1.008c-0.187,0.304-0.442,0.456-0.768,0.456
		c-0.325,0-0.584-0.144-0.776-0.432c-0.192-0.283-0.288-0.624-0.288-1.024C484.787,283.194,485.206,282.66,486.043,282.532z"/>
	<path class="st0" d="M483.211,281.636v-0.312h2.52c-0.293-0.144-0.525-0.341-0.696-0.592c-0.165-0.234-0.248-0.507-0.248-0.816
		c0-0.458,0.136-0.824,0.408-1.096c0.277-0.272,0.669-0.408,1.176-0.408h2.664v0.304h-2.64c-0.421,0-0.752,0.115-0.992,0.344
		c-0.224,0.224-0.336,0.528-0.336,0.912c0,0.368,0.149,0.683,0.448,0.944c0.304,0.272,0.672,0.408,1.104,0.408h2.416v0.312H483.211z
		"/>
	<path class="st0" d="M485.444,274.301c0.373-0.272,0.915-0.424,1.624-0.456v3.456c0.555-0.016,0.989-0.163,1.304-0.44
		c0.331-0.288,0.496-0.664,0.496-1.128c0-0.411-0.115-0.747-0.344-1.008c-0.197-0.213-0.469-0.368-0.816-0.464v-0.328
		c0.4,0.096,0.731,0.277,0.992,0.544c0.299,0.331,0.448,0.75,0.448,1.256c0,0.576-0.2,1.032-0.6,1.368
		c-0.4,0.347-0.928,0.52-1.584,0.52c-0.603,0-1.109-0.165-1.52-0.496c-0.438-0.352-0.656-0.813-0.656-1.384
		C484.787,275.101,485.006,274.621,485.444,274.301z M485.556,276.837c0.325,0.277,0.739,0.432,1.24,0.464v-3.136
		c-1.152,0.085-1.728,0.608-1.728,1.568C485.068,276.192,485.23,276.56,485.556,276.837z"/>
	<path class="st0" d="M485.444,269.981c0.373-0.272,0.915-0.424,1.624-0.456v3.456c0.555-0.016,0.989-0.163,1.304-0.44
		c0.331-0.288,0.496-0.664,0.496-1.128c0-0.411-0.115-0.747-0.344-1.008c-0.197-0.213-0.469-0.368-0.816-0.464v-0.328
		c0.4,0.096,0.731,0.277,0.992,0.544c0.299,0.331,0.448,0.75,0.448,1.256c0,0.576-0.2,1.032-0.6,1.368
		c-0.4,0.347-0.928,0.52-1.584,0.52c-0.603,0-1.109-0.165-1.52-0.496c-0.438-0.352-0.656-0.813-0.656-1.384
		C484.787,270.781,485.006,270.301,485.444,269.981z M485.556,272.517c0.325,0.277,0.739,0.432,1.24,0.464v-3.136
		c-1.152,0.085-1.728,0.608-1.728,1.568C485.068,271.872,485.23,272.24,485.556,272.517z"/>
	<path class="st0" d="M483.563,267.861h1.336v-1.144h0.28v1.144h2.984c0.224,0,0.376-0.037,0.456-0.112
		c0.091-0.064,0.136-0.203,0.136-0.416v-0.52h0.28v0.544c0,0.31-0.077,0.525-0.232,0.648c-0.139,0.107-0.352,0.16-0.64,0.16h-2.984
		v0.936h-0.28v-0.936h-1.2L483.563,267.861z"/>
	<path class="st0" d="M485.707,260.477c-0.288-0.128-0.512-0.306-0.672-0.536c-0.165-0.219-0.248-0.478-0.248-0.776
		c0-0.438,0.133-0.779,0.4-1.024c0.272-0.245,0.653-0.368,1.144-0.368h2.704v0.304h-2.68c-0.421,0-0.736,0.088-0.944,0.264
		c-0.229,0.192-0.344,0.485-0.344,0.88c0,0.336,0.125,0.611,0.376,0.824c0.24,0.224,0.546,0.336,0.92,0.336h2.672v0.312h-2.68
		c-0.858,0-1.288,0.374-1.288,1.12c0,0.336,0.136,0.616,0.408,0.84c0.261,0.229,0.589,0.344,0.984,0.344h2.576v0.312h-4.136v-0.312
		h0.704c-0.544-0.272-0.816-0.68-0.816-1.224C484.787,261.101,485.094,260.669,485.707,260.477z"/>
	<path class="st0" d="M484.899,256.749v-0.312h2.536c0.469,0,0.821-0.099,1.056-0.296c0.25-0.208,0.376-0.53,0.376-0.968
		c0-0.374-0.136-0.688-0.408-0.944c-0.272-0.256-0.624-0.392-1.056-0.408h-2.504v-0.304h4.136v0.304h-0.768
		c0.587,0.314,0.88,0.784,0.88,1.408c0,1.014-0.568,1.52-1.704,1.52H484.899z"/>
	<path class="st0" d="M486.043,249.549v0.304c-0.309,0.053-0.544,0.176-0.704,0.368c-0.182,0.219-0.272,0.528-0.272,0.928
		c0,0.341,0.075,0.613,0.224,0.816c0.144,0.224,0.328,0.336,0.552,0.336c0.24,0,0.432-0.13,0.576-0.392
		c0.091-0.17,0.192-0.466,0.304-0.888c0.128-0.512,0.253-0.872,0.376-1.08c0.192-0.336,0.464-0.504,0.816-0.504
		c0.821,0,1.232,0.536,1.232,1.608c0,1.029-0.464,1.592-1.392,1.688v-0.312c0.405-0.048,0.693-0.189,0.864-0.424
		c0.166-0.213,0.248-0.531,0.248-0.952c0-0.864-0.314-1.296-0.944-1.296c-0.272,0-0.48,0.144-0.624,0.432
		c-0.08,0.144-0.184,0.464-0.312,0.96c-0.128,0.485-0.251,0.821-0.368,1.008c-0.187,0.304-0.442,0.456-0.768,0.456
		c-0.325,0-0.584-0.144-0.776-0.432c-0.192-0.283-0.288-0.624-0.288-1.024C484.787,250.211,485.206,249.677,486.043,249.549z"/>
	<path class="st0" d="M483.587,248.005c0.054-0.064,0.128-0.096,0.224-0.096c0.085,0,0.16,0.032,0.224,0.096
		s0.096,0.139,0.096,0.224c0,0.091-0.032,0.166-0.096,0.224c-0.064,0.064-0.139,0.096-0.224,0.096c-0.096,0-0.17-0.032-0.224-0.096
		c-0.064-0.059-0.096-0.133-0.096-0.224C483.492,248.144,483.523,248.069,483.587,248.005z M484.899,248.381v-0.304h4.136v0.304
		H484.899z"/>
	<path class="st0" d="M485.147,243.909c0.24-0.304,0.603-0.488,1.088-0.552v0.304c-0.384,0.053-0.675,0.203-0.872,0.448
		c-0.197,0.251-0.296,0.573-0.296,0.968c0,0.475,0.187,0.856,0.56,1.144c0.352,0.272,0.813,0.408,1.384,0.408
		c0.56,0,1.005-0.13,1.336-0.392c0.347-0.267,0.52-0.65,0.52-1.152c0-0.821-0.429-1.304-1.288-1.448v-0.304
		c0.507,0.08,0.896,0.272,1.168,0.576c0.267,0.309,0.4,0.701,0.4,1.176c0,0.603-0.208,1.069-0.624,1.4
		c-0.384,0.304-0.888,0.456-1.512,0.456c-0.635,0-1.155-0.16-1.56-0.48c-0.443-0.331-0.664-0.792-0.664-1.384
		C484.787,244.603,484.908,244.213,485.147,243.909z"/>
	<path class="st0" d="M483.643,239.781c0.267-0.277,0.627-0.416,1.08-0.416c0.31,0,0.603,0.099,0.88,0.296
		c0.112,0.085,0.315,0.291,0.608,0.616c0.182,0.208,0.342,0.352,0.48,0.432c0.198,0.128,0.416,0.192,0.656,0.192h0.28v0.312h-0.28
		c-0.213,0-0.408-0.045-0.584-0.136c-0.245-0.107-0.515-0.323-0.808-0.648c-0.24-0.256-0.408-0.421-0.504-0.496
		c-0.229-0.171-0.467-0.256-0.712-0.256c-0.368,0-0.667,0.109-0.896,0.328c-0.229,0.229-0.344,0.552-0.344,0.968
		c0,0.464,0.158,0.813,0.472,1.048c0.272,0.208,0.632,0.32,1.08,0.336v0.304c-0.523-0.016-0.947-0.155-1.272-0.416
		c-0.379-0.299-0.568-0.725-0.568-1.28C483.211,240.464,483.355,240.069,483.643,239.781z M488.492,240.829
		c0.053-0.064,0.128-0.096,0.224-0.096c0.085,0,0.16,0.032,0.224,0.096s0.096,0.139,0.096,0.224c0,0.09-0.032,0.165-0.096,0.224
		c-0.064,0.064-0.139,0.096-0.224,0.096c-0.096,0-0.171-0.032-0.224-0.096c-0.064-0.059-0.096-0.133-0.096-0.224
		C488.395,240.968,488.428,240.893,488.492,240.829z"/>
	<path class="st0" d="M494.324,336.292v-0.312h5.424v-3.568h0.288v3.88H494.324z"/>
	<path class="st0" d="M496.444,328.62c0.373-0.272,0.915-0.424,1.624-0.456v3.456c0.555-0.016,0.989-0.163,1.304-0.44
		c0.331-0.288,0.496-0.664,0.496-1.128c0-0.411-0.115-0.747-0.344-1.008c-0.197-0.213-0.469-0.368-0.816-0.464v-0.328
		c0.4,0.096,0.731,0.277,0.992,0.544c0.299,0.331,0.448,0.75,0.448,1.256c0,0.576-0.2,1.032-0.6,1.368
		c-0.4,0.347-0.928,0.52-1.584,0.52c-0.603,0-1.109-0.165-1.52-0.496c-0.438-0.352-0.656-0.813-0.656-1.384
		C495.787,329.42,496.006,328.94,496.444,328.62z M496.556,331.155c0.325,0.277,0.739,0.432,1.24,0.464v-3.136
		c-1.152,0.085-1.728,0.608-1.728,1.568C496.068,330.51,496.23,330.879,496.556,331.155z"/>
	<path class="st0" d="M494.563,326.5h1.336v-1.144h0.28v1.144h2.984c0.224,0,0.376-0.037,0.456-0.112
		c0.091-0.064,0.136-0.203,0.136-0.416v-0.52h0.28v0.544c0,0.31-0.077,0.525-0.232,0.648c-0.139,0.107-0.352,0.16-0.64,0.16h-2.984
		v0.936h-0.28v-0.936h-1.2L494.563,326.5z"/>
	<path class="st0" d="M494.74,323.836c0.571,0,0.984,0.224,1.24,0.672l-0.208,0.136c-0.24-0.347-0.552-0.528-0.936-0.544
		l0.008,0.104c0,0.106-0.027,0.187-0.08,0.24c-0.053,0.059-0.128,0.088-0.224,0.088c-0.112,0-0.194-0.027-0.248-0.08
		c-0.053-0.053-0.08-0.133-0.08-0.24C494.211,323.961,494.388,323.836,494.74,323.836z"/>
	<path class="st0" d="M497.043,319.9v0.304c-0.309,0.053-0.544,0.176-0.704,0.368c-0.182,0.219-0.272,0.528-0.272,0.928
		c0,0.341,0.075,0.613,0.224,0.816c0.144,0.224,0.328,0.336,0.552,0.336c0.24,0,0.432-0.13,0.576-0.392
		c0.091-0.17,0.192-0.466,0.304-0.888c0.128-0.512,0.253-0.872,0.376-1.08c0.192-0.336,0.464-0.504,0.816-0.504
		c0.821,0,1.232,0.536,1.232,1.608c0,1.029-0.464,1.592-1.392,1.688v-0.312c0.405-0.048,0.693-0.189,0.864-0.424
		c0.166-0.213,0.248-0.531,0.248-0.952c0-0.864-0.314-1.296-0.944-1.296c-0.272,0-0.48,0.144-0.624,0.432
		c-0.08,0.144-0.184,0.464-0.312,0.96c-0.128,0.485-0.251,0.821-0.368,1.008c-0.187,0.304-0.442,0.456-0.768,0.456
		c-0.325,0-0.584-0.144-0.776-0.432c-0.192-0.283-0.288-0.624-0.288-1.024C495.787,320.561,496.206,320.027,497.043,319.9z"/>
	<path class="st0" d="M496.147,313.468c0.24-0.304,0.603-0.488,1.088-0.552v0.304c-0.384,0.053-0.675,0.203-0.872,0.448
		c-0.197,0.251-0.296,0.573-0.296,0.968c0,0.475,0.187,0.856,0.56,1.144c0.352,0.272,0.813,0.408,1.384,0.408
		c0.56,0,1.005-0.13,1.336-0.392c0.347-0.267,0.52-0.65,0.52-1.152c0-0.821-0.429-1.304-1.288-1.448v-0.304
		c0.507,0.08,0.896,0.272,1.168,0.576c0.267,0.309,0.4,0.701,0.4,1.176c0,0.603-0.208,1.069-0.624,1.4
		c-0.384,0.304-0.888,0.456-1.512,0.456c-0.635,0-1.155-0.16-1.56-0.48c-0.443-0.331-0.664-0.792-0.664-1.384
		C495.787,314.161,495.908,313.772,496.147,313.468z"/>
	<path class="st0" d="M496.468,308.9c0.405-0.325,0.907-0.488,1.504-0.488c0.582,0,1.083,0.163,1.504,0.488
		c0.448,0.357,0.672,0.837,0.672,1.44c0,0.608-0.224,1.088-0.672,1.44c-0.411,0.325-0.912,0.488-1.504,0.488
		c-0.608,0-1.109-0.163-1.504-0.488c-0.454-0.352-0.68-0.832-0.68-1.44C495.787,309.737,496.014,309.257,496.468,308.9z
		 M496.652,311.548c0.352,0.272,0.792,0.408,1.32,0.408c0.523,0,0.96-0.136,1.312-0.408c0.389-0.299,0.584-0.702,0.584-1.208
		c0-0.496-0.195-0.899-0.584-1.208c-0.352-0.272-0.789-0.408-1.312-0.408c-0.528,0-0.968,0.136-1.32,0.408
		c-0.39,0.304-0.584,0.707-0.584,1.208C496.068,310.852,496.262,311.255,496.652,311.548z"/>
	<path class="st0" d="M496.468,304.34c0.405-0.325,0.907-0.488,1.504-0.488c0.582,0,1.083,0.163,1.504,0.488
		c0.448,0.357,0.672,0.837,0.672,1.44c0,0.608-0.224,1.088-0.672,1.44c-0.411,0.325-0.912,0.488-1.504,0.488
		c-0.608,0-1.109-0.163-1.504-0.488c-0.454-0.352-0.68-0.832-0.68-1.44C495.787,305.177,496.014,304.697,496.468,304.34z
		 M496.652,306.988c0.352,0.272,0.792,0.408,1.32,0.408c0.523,0,0.96-0.136,1.312-0.408c0.389-0.299,0.584-0.702,0.584-1.208
		c0-0.496-0.195-0.899-0.584-1.208c-0.352-0.272-0.789-0.408-1.312-0.408c-0.528,0-0.968,0.136-1.32,0.408
		c-0.39,0.304-0.584,0.707-0.584,1.208C496.068,306.292,496.262,306.694,496.652,306.988z"/>
	<path class="st0" d="M494.211,302.987v-0.312h3.952l-2.264-2.536v-0.448l1.608,1.816l2.528-2v0.408l-2.32,1.816l0.848,0.944h1.472
		v0.312H494.211z"/>
	<path class="st0" d="M496.267,293.363c0.267-0.235,0.632-0.352,1.096-0.352h2.672v0.296h-0.888
		c0.246,0.171,0.467,0.403,0.664,0.696c0.224,0.352,0.336,0.733,0.336,1.144c0,0.395-0.101,0.717-0.304,0.968
		c-0.213,0.251-0.496,0.376-0.848,0.376c-0.528,0-0.909-0.221-1.144-0.664c-0.187-0.341-0.28-0.808-0.28-1.4l-0.008-1.112h-0.168
		c-0.885,0-1.328,0.44-1.328,1.32c0,0.395,0.088,0.712,0.264,0.952c0.187,0.267,0.454,0.424,0.8,0.472v0.304
		c-0.448-0.064-0.787-0.253-1.016-0.568c-0.219-0.288-0.328-0.677-0.328-1.168C495.787,294.062,495.948,293.641,496.267,293.363z
		 M497.835,293.316l0.008,1.104c0.005,1.173,0.392,1.76,1.16,1.76c0.262,0,0.472-0.099,0.632-0.296
		c0.155-0.197,0.232-0.461,0.232-0.792c0-0.448-0.157-0.861-0.472-1.24c-0.314-0.357-0.634-0.536-0.96-0.536H497.835z"/>
	<path class="st0" d="M495.899,291.987v-0.312h2.536c0.469,0,0.821-0.099,1.056-0.296c0.25-0.208,0.376-0.53,0.376-0.968
		c0-0.374-0.136-0.688-0.408-0.944c-0.272-0.256-0.624-0.392-1.056-0.408h-2.504v-0.304h4.136v0.304h-0.768
		c0.587,0.314,0.88,0.784,0.88,1.408c0,1.014-0.568,1.52-1.704,1.52H495.899z"/>
	<path class="st0" d="M494.563,286.852h1.336v-1.144h0.28v1.144h2.984c0.224,0,0.376-0.037,0.456-0.112
		c0.091-0.064,0.136-0.203,0.136-0.416v-0.52h0.28v0.544c0,0.31-0.077,0.525-0.232,0.648c-0.139,0.107-0.352,0.16-0.64,0.16h-2.984
		v0.936h-0.28v-0.936h-1.2L494.563,286.852z"/>
	<path class="st0" d="M494.211,284.964v-0.312h2.52c-0.293-0.144-0.525-0.341-0.696-0.592c-0.165-0.234-0.248-0.507-0.248-0.816
		c0-0.458,0.136-0.824,0.408-1.096c0.277-0.272,0.669-0.408,1.176-0.408h2.664v0.304h-2.64c-0.421,0-0.752,0.115-0.992,0.344
		c-0.224,0.224-0.336,0.528-0.336,0.912c0,0.368,0.149,0.683,0.448,0.944c0.304,0.272,0.672,0.408,1.104,0.408h2.416v0.312H494.211z
		"/>
	<path class="st0" d="M496.444,277.628c0.373-0.272,0.915-0.424,1.624-0.456v3.456c0.555-0.016,0.989-0.163,1.304-0.44
		c0.331-0.288,0.496-0.664,0.496-1.128c0-0.411-0.115-0.747-0.344-1.008c-0.197-0.213-0.469-0.368-0.816-0.464v-0.328
		c0.4,0.096,0.731,0.277,0.992,0.544c0.299,0.331,0.448,0.75,0.448,1.256c0,0.576-0.2,1.032-0.6,1.368
		c-0.4,0.347-0.928,0.52-1.584,0.52c-0.603,0-1.109-0.165-1.52-0.496c-0.438-0.352-0.656-0.813-0.656-1.384
		C495.787,278.428,496.006,277.948,496.444,277.628z M496.556,280.164c0.325,0.277,0.739,0.432,1.24,0.464v-3.136
		c-1.152,0.085-1.728,0.608-1.728,1.568C496.068,279.519,496.23,279.887,496.556,280.164z"/>
	<path class="st0" d="M497.499,273.156h2.536v0.312h-2.528c-0.96,0-1.44,0.421-1.44,1.264c0,0.374,0.136,0.686,0.408,0.936
		c0.261,0.256,0.613,0.392,1.056,0.408h2.504v0.312h-4.136v-0.312h0.752c-0.256-0.123-0.467-0.309-0.632-0.56
		c-0.154-0.24-0.232-0.518-0.232-0.832C495.787,273.665,496.358,273.156,497.499,273.156z"/>
	<path class="st0" d="M494.563,271.252h1.336v-1.144h0.28v1.144h2.984c0.224,0,0.376-0.037,0.456-0.112
		c0.091-0.064,0.136-0.203,0.136-0.416v-0.52h0.28v0.544c0,0.31-0.077,0.525-0.232,0.648c-0.139,0.107-0.352,0.16-0.64,0.16h-2.984
		v0.936h-0.28v-0.936h-1.2L494.563,271.252z"/>
	<path class="st0" d="M494.587,268.716c0.054-0.064,0.128-0.096,0.224-0.096c0.085,0,0.16,0.032,0.224,0.096
		s0.096,0.139,0.096,0.224c0,0.091-0.032,0.166-0.096,0.224c-0.064,0.064-0.139,0.096-0.224,0.096c-0.096,0-0.17-0.032-0.224-0.096
		c-0.064-0.059-0.096-0.133-0.096-0.224C494.492,268.855,494.523,268.78,494.587,268.716z M495.899,269.092v-0.304h4.136v0.304
		H495.899z"/>
	<path class="st0" d="M496.147,264.62c0.24-0.304,0.603-0.488,1.088-0.552v0.304c-0.384,0.053-0.675,0.203-0.872,0.448
		c-0.197,0.251-0.296,0.573-0.296,0.968c0,0.475,0.187,0.856,0.56,1.144c0.352,0.272,0.813,0.408,1.384,0.408
		c0.56,0,1.005-0.13,1.336-0.392c0.347-0.267,0.52-0.65,0.52-1.152c0-0.821-0.429-1.304-1.288-1.448v-0.304
		c0.507,0.08,0.896,0.272,1.168,0.576c0.267,0.309,0.4,0.701,0.4,1.176c0,0.603-0.208,1.069-0.624,1.4
		c-0.384,0.304-0.888,0.456-1.512,0.456c-0.635,0-1.155-0.16-1.56-0.48c-0.443-0.331-0.664-0.792-0.664-1.384
		C495.787,265.314,495.908,264.924,496.147,264.62z"/>
	<path class="st0" d="M494.691,256.548c0.336-0.464,0.782-0.728,1.336-0.792v0.304c-0.464,0.064-0.837,0.293-1.12,0.688
		c-0.267,0.378-0.4,0.816-0.4,1.312c0,0.741,0.264,1.333,0.792,1.776c0.501,0.405,1.139,0.608,1.912,0.608
		c0.768,0,1.395-0.203,1.88-0.608c0.507-0.416,0.76-0.984,0.76-1.704c0-0.512-0.141-0.962-0.424-1.352
		c-0.325-0.421-0.768-0.688-1.328-0.8v-0.304c0.656,0.128,1.171,0.427,1.544,0.896c0.336,0.438,0.504,0.958,0.504,1.56
		c0,0.811-0.291,1.459-0.872,1.944c-0.539,0.454-1.227,0.68-2.064,0.68c-0.842,0-1.541-0.229-2.096-0.688
		c-0.603-0.485-0.904-1.155-0.904-2.008C494.211,257.484,494.371,256.98,494.691,256.548z"/>
	<path class="st0" d="M494.211,254.812V254.5h2.52c-0.293-0.144-0.525-0.341-0.696-0.592c-0.165-0.234-0.248-0.507-0.248-0.816
		c0-0.458,0.136-0.824,0.408-1.096c0.277-0.272,0.669-0.408,1.176-0.408h2.664v0.304h-2.64c-0.421,0-0.752,0.115-0.992,0.344
		c-0.224,0.224-0.336,0.528-0.336,0.912c0,0.368,0.149,0.683,0.448,0.944c0.304,0.272,0.672,0.408,1.104,0.408h2.416v0.312H494.211z
		"/>
	<path class="st0" d="M494.587,249.908c0.054-0.064,0.128-0.096,0.224-0.096c0.085,0,0.16,0.032,0.224,0.096
		s0.096,0.139,0.096,0.224c0,0.091-0.032,0.166-0.096,0.224c-0.064,0.064-0.139,0.096-0.224,0.096c-0.096,0-0.17-0.032-0.224-0.096
		c-0.064-0.059-0.096-0.133-0.096-0.224C494.492,250.047,494.523,249.972,494.587,249.908z M495.899,250.284v-0.304h4.136v0.304
		H495.899z"/>
	<path class="st0" d="M497.499,245.452h2.536v0.312h-2.528c-0.96,0-1.44,0.421-1.44,1.264c0,0.374,0.136,0.686,0.408,0.936
		c0.261,0.256,0.613,0.392,1.056,0.408h2.504v0.312h-4.136v-0.312h0.752c-0.256-0.123-0.467-0.309-0.632-0.56
		c-0.154-0.24-0.232-0.518-0.232-0.832C495.787,245.961,496.358,245.452,497.499,245.452z"/>
	<path class="st0" d="M496.444,241.348c0.373-0.272,0.915-0.424,1.624-0.456v3.456c0.555-0.016,0.989-0.163,1.304-0.44
		c0.331-0.288,0.496-0.664,0.496-1.128c0-0.411-0.115-0.747-0.344-1.008c-0.197-0.213-0.469-0.368-0.816-0.464v-0.328
		c0.4,0.096,0.731,0.277,0.992,0.544c0.299,0.331,0.448,0.75,0.448,1.256c0,0.576-0.2,1.032-0.6,1.368
		c-0.4,0.347-0.928,0.52-1.584,0.52c-0.603,0-1.109-0.165-1.52-0.496c-0.438-0.352-0.656-0.813-0.656-1.384
		C495.787,242.148,496.006,241.668,496.444,241.348z M496.556,243.884c0.325,0.277,0.739,0.432,1.24,0.464v-3.136
		c-1.152,0.085-1.728,0.608-1.728,1.568C496.068,243.239,496.23,243.607,496.556,243.884z"/>
	<path class="st0" d="M497.043,237.164v0.304c-0.309,0.053-0.544,0.176-0.704,0.368c-0.182,0.219-0.272,0.528-0.272,0.928
		c0,0.341,0.075,0.613,0.224,0.816c0.144,0.224,0.328,0.336,0.552,0.336c0.24,0,0.432-0.13,0.576-0.392
		c0.091-0.17,0.192-0.466,0.304-0.888c0.128-0.512,0.253-0.872,0.376-1.08c0.192-0.336,0.464-0.504,0.816-0.504
		c0.821,0,1.232,0.536,1.232,1.608c0,1.029-0.464,1.592-1.392,1.688v-0.312c0.405-0.048,0.693-0.189,0.864-0.424
		c0.166-0.213,0.248-0.531,0.248-0.952c0-0.864-0.314-1.296-0.944-1.296c-0.272,0-0.48,0.144-0.624,0.432
		c-0.08,0.144-0.184,0.464-0.312,0.96c-0.128,0.485-0.251,0.821-0.368,1.008c-0.187,0.304-0.442,0.456-0.768,0.456
		c-0.325,0-0.584-0.144-0.776-0.432c-0.192-0.283-0.288-0.624-0.288-1.024C495.787,237.826,496.206,237.292,497.043,237.164z"/>
	<path class="st0" d="M496.444,233.189c0.373-0.272,0.915-0.424,1.624-0.456v3.456c0.555-0.016,0.989-0.163,1.304-0.44
		c0.331-0.288,0.496-0.664,0.496-1.128c0-0.411-0.115-0.747-0.344-1.008c-0.197-0.213-0.469-0.368-0.816-0.464v-0.328
		c0.4,0.096,0.731,0.277,0.992,0.544c0.299,0.331,0.448,0.75,0.448,1.256c0,0.576-0.2,1.032-0.6,1.368
		c-0.4,0.347-0.928,0.52-1.584,0.52c-0.603,0-1.109-0.165-1.52-0.496c-0.438-0.352-0.656-0.813-0.656-1.384
		C495.787,233.988,496.006,233.508,496.444,233.189z M496.556,235.724c0.325,0.277,0.739,0.432,1.24,0.464v-3.136
		c-1.152,0.085-1.728,0.608-1.728,1.568C496.068,235.079,496.23,235.447,496.556,235.724z"/>
	<path class="st0" d="M496.147,226.413c0.24-0.304,0.603-0.488,1.088-0.552v0.304c-0.384,0.053-0.675,0.203-0.872,0.448
		c-0.197,0.251-0.296,0.573-0.296,0.968c0,0.475,0.187,0.856,0.56,1.144c0.352,0.272,0.813,0.408,1.384,0.408
		c0.56,0,1.005-0.13,1.336-0.392c0.347-0.267,0.52-0.65,0.52-1.152c0-0.821-0.429-1.304-1.288-1.448v-0.304
		c0.507,0.08,0.896,0.272,1.168,0.576c0.267,0.309,0.4,0.701,0.4,1.176c0,0.603-0.208,1.069-0.624,1.4
		c-0.384,0.304-0.888,0.456-1.512,0.456c-0.635,0-1.155-0.16-1.56-0.48c-0.443-0.331-0.664-0.792-0.664-1.384
		C495.787,227.106,495.908,226.716,496.147,226.413z"/>
	<path class="st0" d="M495.899,225.052v-0.312h2.536c0.469,0,0.821-0.099,1.056-0.296c0.25-0.208,0.376-0.53,0.376-0.968
		c0-0.374-0.136-0.688-0.408-0.944c-0.272-0.256-0.624-0.392-1.056-0.408h-2.504v-0.304h4.136v0.304h-0.768
		c0.587,0.314,0.88,0.784,0.88,1.408c0,1.014-0.568,1.52-1.704,1.52H495.899z"/>
	<path class="st0" d="M494.587,220.149c0.054-0.064,0.128-0.096,0.224-0.096c0.085,0,0.16,0.032,0.224,0.096
		s0.096,0.139,0.096,0.224c0,0.091-0.032,0.166-0.096,0.224c-0.064,0.064-0.139,0.096-0.224,0.096c-0.096,0-0.17-0.032-0.224-0.096
		c-0.064-0.059-0.096-0.133-0.096-0.224C494.492,220.287,494.523,220.213,494.587,220.149z M495.899,220.525v-0.304h4.136v0.304
		H495.899z"/>
	<path class="st0" d="M497.043,215.981v0.304c-0.309,0.053-0.544,0.176-0.704,0.368c-0.182,0.219-0.272,0.528-0.272,0.928
		c0,0.341,0.075,0.613,0.224,0.816c0.144,0.224,0.328,0.336,0.552,0.336c0.24,0,0.432-0.13,0.576-0.392
		c0.091-0.17,0.192-0.466,0.304-0.888c0.128-0.512,0.253-0.872,0.376-1.08c0.192-0.336,0.464-0.504,0.816-0.504
		c0.821,0,1.232,0.536,1.232,1.608c0,1.029-0.464,1.592-1.392,1.688v-0.312c0.405-0.048,0.693-0.189,0.864-0.424
		c0.166-0.213,0.248-0.531,0.248-0.952c0-0.864-0.314-1.296-0.944-1.296c-0.272,0-0.48,0.144-0.624,0.432
		c-0.08,0.144-0.184,0.464-0.312,0.96c-0.128,0.485-0.251,0.821-0.368,1.008c-0.187,0.304-0.442,0.456-0.768,0.456
		c-0.325,0-0.584-0.144-0.776-0.432c-0.192-0.283-0.288-0.624-0.288-1.024C495.787,216.642,496.206,216.109,497.043,215.981z"/>
	<path class="st0" d="M494.587,214.437c0.054-0.064,0.128-0.096,0.224-0.096c0.085,0,0.16,0.032,0.224,0.096
		s0.096,0.139,0.096,0.224c0,0.091-0.032,0.166-0.096,0.224c-0.064,0.064-0.139,0.096-0.224,0.096c-0.096,0-0.17-0.032-0.224-0.096
		c-0.064-0.059-0.096-0.133-0.096-0.224C494.492,214.575,494.523,214.501,494.587,214.437z M495.899,214.813v-0.304h4.136v0.304
		H495.899z"/>
	<path class="st0" d="M497.499,209.981h2.536v0.312h-2.528c-0.96,0-1.44,0.421-1.44,1.264c0,0.374,0.136,0.686,0.408,0.936
		c0.261,0.256,0.613,0.392,1.056,0.408h2.504v0.312h-4.136v-0.312h0.752c-0.256-0.123-0.467-0.309-0.632-0.56
		c-0.154-0.24-0.232-0.518-0.232-0.832C495.787,210.49,496.358,209.981,497.499,209.981z"/>
	<path class="st0" d="M496.444,205.877c0.373-0.272,0.915-0.424,1.624-0.456v3.456c0.555-0.016,0.989-0.163,1.304-0.44
		c0.331-0.288,0.496-0.664,0.496-1.128c0-0.411-0.115-0.747-0.344-1.008c-0.197-0.213-0.469-0.368-0.816-0.464v-0.328
		c0.4,0.096,0.731,0.277,0.992,0.544c0.299,0.331,0.448,0.75,0.448,1.256c0,0.576-0.2,1.032-0.6,1.368
		c-0.4,0.347-0.928,0.52-1.584,0.52c-0.603,0-1.109-0.165-1.52-0.496c-0.438-0.352-0.656-0.813-0.656-1.384
		C495.787,206.677,496.006,206.197,496.444,205.877z M496.556,208.413c0.325,0.277,0.739,0.432,1.24,0.464v-3.136
		c-1.152,0.085-1.728,0.608-1.728,1.568C496.068,207.768,496.23,208.136,496.556,208.413z"/>
	<path class="st0" d="M499.492,203.589c0.053-0.064,0.128-0.096,0.224-0.096c0.085,0,0.16,0.032,0.224,0.096
		s0.096,0.139,0.096,0.224c0,0.091-0.032,0.166-0.096,0.224c-0.064,0.064-0.139,0.096-0.224,0.096c-0.096,0-0.171-0.032-0.224-0.096
		c-0.064-0.059-0.096-0.133-0.096-0.224C499.395,203.728,499.428,203.653,499.492,203.589z M494.324,203.981v-0.336l4.296,0.032
		v0.272L494.324,203.981z"/>
	<path class="st0" d="M505.683,333.035c0.315-0.368,0.757-0.576,1.328-0.624v0.312c-0.485,0.059-0.859,0.235-1.12,0.528
		c-0.261,0.299-0.392,0.712-0.392,1.24c0,0.512,0.094,0.91,0.28,1.192c0.197,0.326,0.493,0.488,0.888,0.488
		c0.347,0,0.624-0.2,0.832-0.6c0.096-0.17,0.224-0.552,0.384-1.144c0.192-0.709,0.368-1.194,0.528-1.456
		c0.277-0.464,0.675-0.696,1.192-0.696c0.48,0,0.861,0.205,1.144,0.616c0.267,0.395,0.4,0.899,0.4,1.512
		c0,0.64-0.157,1.147-0.472,1.52c-0.347,0.411-0.856,0.64-1.528,0.688v-0.304c0.571-0.048,1.005-0.248,1.304-0.6
		c0.267-0.326,0.4-0.757,0.4-1.296c0-0.539-0.112-0.976-0.336-1.312c-0.229-0.341-0.531-0.512-0.904-0.512
		c-0.421,0-0.75,0.203-0.984,0.608c-0.133,0.219-0.288,0.659-0.464,1.32c-0.197,0.683-0.347,1.12-0.448,1.312
		c-0.246,0.438-0.592,0.656-1.04,0.656c-0.491,0-0.861-0.206-1.112-0.616c-0.234-0.347-0.352-0.808-0.352-1.384
		C505.211,333.865,505.369,333.382,505.683,333.035z"/>
	<path class="st0" d="M505.211,331.491v-0.312h2.52c-0.293-0.144-0.525-0.341-0.696-0.592c-0.165-0.234-0.248-0.507-0.248-0.816
		c0-0.458,0.136-0.824,0.408-1.096c0.277-0.272,0.669-0.408,1.176-0.408h2.664v0.304h-2.64c-0.421,0-0.752,0.115-0.992,0.344
		c-0.224,0.224-0.336,0.528-0.336,0.912c0,0.368,0.149,0.683,0.448,0.944c0.304,0.272,0.672,0.408,1.104,0.408h2.416v0.312H505.211z
		"/>
	<path class="st0" d="M507.468,324.027c0.405-0.325,0.907-0.488,1.504-0.488c0.582,0,1.083,0.163,1.504,0.488
		c0.448,0.357,0.672,0.837,0.672,1.44c0,0.608-0.224,1.088-0.672,1.44c-0.411,0.325-0.912,0.488-1.504,0.488
		c-0.608,0-1.109-0.163-1.504-0.488c-0.454-0.352-0.68-0.832-0.68-1.44C506.787,324.865,507.014,324.385,507.468,324.027z
		 M507.652,326.676c0.352,0.272,0.792,0.408,1.32,0.408c0.523,0,0.96-0.136,1.312-0.408c0.389-0.299,0.584-0.702,0.584-1.208
		c0-0.496-0.195-0.899-0.584-1.208c-0.352-0.272-0.789-0.408-1.312-0.408c-0.528,0-0.968,0.136-1.32,0.408
		c-0.39,0.304-0.584,0.707-0.584,1.208C507.068,325.98,507.262,326.382,507.652,326.676z"/>
	<path class="st0" d="M507.459,319.467c0.4-0.304,0.904-0.456,1.512-0.456c0.603,0,1.107,0.149,1.512,0.448
		c0.442,0.331,0.664,0.79,0.664,1.376c0,0.731-0.362,1.24-1.088,1.528h2.56v0.312h-5.72v-0.296h0.968
		c-0.72-0.314-1.08-0.827-1.08-1.536C506.787,320.262,507.012,319.804,507.459,319.467z M507.636,321.996
		c0.331,0.25,0.768,0.376,1.312,0.376h0.096c0.528,0,0.96-0.128,1.296-0.384c0.352-0.272,0.528-0.645,0.528-1.12
		c0-0.501-0.184-0.888-0.552-1.16c-0.346-0.25-0.794-0.376-1.344-0.376c-0.544,0-0.987,0.125-1.328,0.376
		c-0.384,0.272-0.576,0.656-0.576,1.152C507.068,321.35,507.257,321.729,507.636,321.996z"/>
	<path class="st0" d="M507.459,314.94c0.4-0.304,0.904-0.456,1.512-0.456c0.603,0,1.107,0.149,1.512,0.448
		c0.442,0.331,0.664,0.79,0.664,1.376c0,0.731-0.362,1.24-1.088,1.528h2.56v0.312h-5.72v-0.296h0.968
		c-0.72-0.314-1.08-0.827-1.08-1.536C506.787,315.735,507.012,315.276,507.459,314.94z M507.636,317.468
		c0.331,0.25,0.768,0.376,1.312,0.376h0.096c0.528,0,0.96-0.128,1.296-0.384c0.352-0.272,0.528-0.645,0.528-1.12
		c0-0.501-0.184-0.888-0.552-1.16c-0.346-0.25-0.794-0.376-1.344-0.376c-0.544,0-0.987,0.125-1.328,0.376
		c-0.384,0.272-0.576,0.656-0.576,1.152C507.068,316.822,507.257,317.201,507.636,317.468z"/>
	<path class="st0" d="M505.587,312.972c0.054-0.064,0.128-0.096,0.224-0.096c0.085,0,0.16,0.032,0.224,0.096
		s0.096,0.139,0.096,0.224c0,0.091-0.032,0.166-0.096,0.224c-0.064,0.064-0.139,0.096-0.224,0.096c-0.096,0-0.17-0.032-0.224-0.096
		c-0.064-0.059-0.096-0.133-0.096-0.224C505.492,313.111,505.523,313.036,505.587,312.972z M506.899,313.348v-0.304h4.136v0.304
		H506.899z"/>
	<path class="st0" d="M508.499,308.516h2.536v0.312h-2.528c-0.96,0-1.44,0.421-1.44,1.264c0,0.374,0.136,0.686,0.408,0.936
		c0.261,0.256,0.613,0.392,1.056,0.408h2.504v0.312h-4.136v-0.312h0.752c-0.256-0.123-0.467-0.309-0.632-0.56
		c-0.154-0.24-0.232-0.518-0.232-0.832C506.787,309.025,507.358,308.516,508.499,308.516z"/>
	<path class="st0" d="M507.86,304.212h-0.96V303.9h3.816c1.344,0,2.016,0.605,2.016,1.816c0,0.534-0.12,0.944-0.36,1.232
		c-0.229,0.277-0.557,0.448-0.984,0.512v-0.304c0.336-0.064,0.592-0.203,0.768-0.416c0.197-0.245,0.296-0.586,0.296-1.024
		c0-1.002-0.571-1.504-1.712-1.504h-0.864c0.709,0.304,1.064,0.832,1.064,1.584c0,0.582-0.21,1.045-0.632,1.392
		c-0.389,0.309-0.869,0.464-1.44,0.464c-0.581,0-1.062-0.155-1.44-0.464c-0.427-0.341-0.64-0.805-0.64-1.392
		C506.787,305.044,507.145,304.516,507.86,304.212z M507.612,306.94c0.32,0.267,0.739,0.4,1.256,0.4c0.491,0,0.904-0.128,1.24-0.384
		c0.368-0.283,0.552-0.677,0.552-1.184c0-0.485-0.179-0.875-0.536-1.168c-0.341-0.261-0.76-0.392-1.256-0.392
		c-0.501,0-0.92,0.131-1.256,0.392c-0.363,0.283-0.544,0.672-0.544,1.168C507.068,306.274,507.249,306.663,507.612,306.94z"/>
	<path class="st0" d="M507.267,297.244c0.267-0.235,0.632-0.352,1.096-0.352h2.672v0.296h-0.888
		c0.246,0.171,0.467,0.403,0.664,0.696c0.224,0.352,0.336,0.733,0.336,1.144c0,0.395-0.101,0.717-0.304,0.968
		c-0.213,0.251-0.496,0.376-0.848,0.376c-0.528,0-0.909-0.221-1.144-0.664c-0.187-0.341-0.28-0.808-0.28-1.4l-0.008-1.112h-0.168
		c-0.885,0-1.328,0.44-1.328,1.32c0,0.395,0.088,0.712,0.264,0.952c0.187,0.267,0.454,0.424,0.8,0.472v0.304
		c-0.448-0.064-0.787-0.253-1.016-0.568c-0.219-0.288-0.328-0.677-0.328-1.168C506.787,297.943,506.948,297.522,507.267,297.244z
		 M508.835,297.196l0.008,1.104c0.005,1.173,0.392,1.76,1.16,1.76c0.262,0,0.472-0.099,0.632-0.296
		c0.155-0.197,0.232-0.461,0.232-0.792c0-0.448-0.157-0.861-0.472-1.24c-0.314-0.357-0.634-0.536-0.96-0.536H508.835z"/>
	<path class="st0" d="M508.499,292.636h2.536v0.312h-2.528c-0.96,0-1.44,0.421-1.44,1.264c0,0.374,0.136,0.686,0.408,0.936
		c0.261,0.256,0.613,0.392,1.056,0.408h2.504v0.312h-4.136v-0.312h0.752c-0.256-0.123-0.467-0.309-0.632-0.56
		c-0.154-0.24-0.232-0.518-0.232-0.832C506.787,293.146,507.358,292.636,508.499,292.636z"/>
	<path class="st0" d="M505.211,288.421v-0.312h5.824v0.296h-0.968c0.72,0.288,1.08,0.803,1.08,1.544
		c0,0.586-0.221,1.045-0.664,1.376c-0.395,0.298-0.899,0.448-1.512,0.448c-0.608,0-1.112-0.152-1.512-0.456
		c-0.448-0.331-0.672-0.784-0.672-1.36c0-0.736,0.368-1.248,1.104-1.536H505.211z M507.636,291.077
		c0.336,0.256,0.781,0.384,1.336,0.384s1-0.125,1.336-0.376c0.374-0.277,0.56-0.664,0.56-1.16c0-0.485-0.181-0.864-0.544-1.136
		c-0.341-0.25-0.771-0.376-1.288-0.376h-0.104c-0.539,0-0.979,0.128-1.32,0.384c-0.363,0.277-0.544,0.651-0.544,1.12
		C507.068,290.423,507.257,290.81,507.636,291.077z"/>
	<path class="st0" d="M505.211,284.237v-0.304h5.824v0.304H505.211z"/>
	<path class="st0" d="M507.444,279.645c0.373-0.272,0.915-0.424,1.624-0.456v3.456c0.555-0.016,0.989-0.163,1.304-0.44
		c0.331-0.288,0.496-0.664,0.496-1.128c0-0.411-0.115-0.747-0.344-1.008c-0.197-0.213-0.469-0.368-0.816-0.464v-0.328
		c0.4,0.096,0.731,0.277,0.992,0.544c0.299,0.331,0.448,0.75,0.448,1.256c0,0.576-0.2,1.032-0.6,1.368
		c-0.4,0.347-0.928,0.52-1.584,0.52c-0.603,0-1.109-0.165-1.52-0.496c-0.438-0.352-0.656-0.813-0.656-1.384
		C506.787,280.445,507.006,279.965,507.444,279.645z M507.556,282.181c0.325,0.277,0.739,0.432,1.24,0.464v-3.136
		c-1.152,0.085-1.728,0.608-1.728,1.568C507.068,281.536,507.23,281.904,507.556,282.181z"/>
	<path class="st0" d="M507.267,275.437c0.267-0.235,0.632-0.352,1.096-0.352h2.672v0.296h-0.888
		c0.246,0.171,0.467,0.403,0.664,0.696c0.224,0.352,0.336,0.733,0.336,1.144c0,0.395-0.101,0.717-0.304,0.968
		c-0.213,0.251-0.496,0.376-0.848,0.376c-0.528,0-0.909-0.221-1.144-0.664c-0.187-0.341-0.28-0.808-0.28-1.4l-0.008-1.112h-0.168
		c-0.885,0-1.328,0.44-1.328,1.32c0,0.395,0.088,0.712,0.264,0.952c0.187,0.267,0.454,0.424,0.8,0.472v0.304
		c-0.448-0.064-0.787-0.253-1.016-0.568c-0.219-0.288-0.328-0.677-0.328-1.168C506.787,276.136,506.948,275.715,507.267,275.437z
		 M508.835,275.389l0.008,1.104c0.005,1.173,0.392,1.76,1.16,1.76c0.262,0,0.472-0.099,0.632-0.296
		c0.155-0.197,0.232-0.461,0.232-0.792c0-0.448-0.157-0.861-0.472-1.24c-0.314-0.357-0.634-0.536-0.96-0.536H508.835z"/>
	<path class="st0" d="M506.868,271.773h0.328c-0.064,0.224-0.096,0.442-0.096,0.656c0,0.421,0.195,0.755,0.584,1
		c0.331,0.213,0.72,0.32,1.168,0.32h2.184v0.312h-4.136v-0.312h0.864c-0.267-0.101-0.488-0.261-0.664-0.48
		c-0.208-0.25-0.312-0.536-0.312-0.856C506.787,272.141,506.814,271.928,506.868,271.773z"/>
	<path class="st0" d="M508.499,267.989h2.536v0.312h-2.528c-0.96,0-1.44,0.421-1.44,1.264c0,0.374,0.136,0.686,0.408,0.936
		c0.261,0.256,0.613,0.392,1.056,0.408h2.504v0.312h-4.136v-0.312h0.752c-0.256-0.123-0.467-0.309-0.632-0.56
		c-0.154-0.24-0.232-0.518-0.232-0.832C506.787,268.498,507.358,267.989,508.499,267.989z"/>
	<path class="st0" d="M505.587,266.317c0.054-0.064,0.128-0.096,0.224-0.096c0.085,0,0.16,0.032,0.224,0.096
		s0.096,0.139,0.096,0.224c0,0.091-0.032,0.166-0.096,0.224c-0.064,0.064-0.139,0.096-0.224,0.096c-0.096,0-0.17-0.032-0.224-0.096
		c-0.064-0.059-0.096-0.133-0.096-0.224C505.492,266.456,505.523,266.381,505.587,266.317z M506.899,266.693v-0.304h4.136v0.304
		H506.899z"/>
	<path class="st0" d="M508.499,261.861h2.536v0.312h-2.528c-0.96,0-1.44,0.421-1.44,1.264c0,0.374,0.136,0.686,0.408,0.936
		c0.261,0.256,0.613,0.392,1.056,0.408h2.504v0.312h-4.136v-0.312h0.752c-0.256-0.123-0.467-0.309-0.632-0.56
		c-0.154-0.24-0.232-0.518-0.232-0.832C506.787,262.37,507.358,261.861,508.499,261.861z"/>
	<path class="st0" d="M507.86,257.557h-0.96v-0.312h3.816c1.344,0,2.016,0.605,2.016,1.816c0,0.534-0.12,0.944-0.36,1.232
		c-0.229,0.277-0.557,0.448-0.984,0.512v-0.304c0.336-0.064,0.592-0.203,0.768-0.416c0.197-0.245,0.296-0.586,0.296-1.024
		c0-1.002-0.571-1.504-1.712-1.504h-0.864c0.709,0.304,1.064,0.832,1.064,1.584c0,0.582-0.21,1.045-0.632,1.392
		c-0.389,0.309-0.869,0.464-1.44,0.464c-0.581,0-1.062-0.155-1.44-0.464c-0.427-0.341-0.64-0.805-0.64-1.392
		C506.787,258.389,507.145,257.861,507.86,257.557z M507.612,260.285c0.32,0.267,0.739,0.4,1.256,0.4
		c0.491,0,0.904-0.128,1.24-0.384c0.368-0.283,0.552-0.677,0.552-1.184c0-0.485-0.179-0.875-0.536-1.168
		c-0.341-0.261-0.76-0.392-1.256-0.392c-0.501,0-0.92,0.131-1.256,0.392c-0.363,0.283-0.544,0.672-0.544,1.168
		C507.068,259.619,507.249,260.008,507.612,260.285z"/>
	<path class="st0" d="M507.707,250.725c-0.288-0.128-0.512-0.306-0.672-0.536c-0.165-0.219-0.248-0.478-0.248-0.776
		c0-0.438,0.133-0.779,0.4-1.024c0.272-0.245,0.653-0.368,1.144-0.368h2.704v0.304h-2.68c-0.421,0-0.736,0.088-0.944,0.264
		c-0.229,0.192-0.344,0.485-0.344,0.88c0,0.336,0.125,0.611,0.376,0.824c0.24,0.224,0.546,0.336,0.92,0.336h2.672v0.312h-2.68
		c-0.858,0-1.288,0.374-1.288,1.12c0,0.336,0.136,0.616,0.408,0.84c0.261,0.229,0.589,0.344,0.984,0.344h2.576v0.312h-4.136v-0.312
		h0.704c-0.544-0.272-0.816-0.68-0.816-1.224C506.787,251.349,507.094,250.917,507.707,250.725z"/>
	<path class="st0" d="M507.267,244.029c0.267-0.235,0.632-0.352,1.096-0.352h2.672v0.296h-0.888
		c0.246,0.171,0.467,0.403,0.664,0.696c0.224,0.352,0.336,0.733,0.336,1.144c0,0.395-0.101,0.717-0.304,0.968
		c-0.213,0.251-0.496,0.376-0.848,0.376c-0.528,0-0.909-0.221-1.144-0.664c-0.187-0.341-0.28-0.808-0.28-1.4l-0.008-1.112h-0.168
		c-0.885,0-1.328,0.44-1.328,1.32c0,0.395,0.088,0.712,0.264,0.952c0.187,0.267,0.454,0.424,0.8,0.472v0.304
		c-0.448-0.064-0.787-0.253-1.016-0.568c-0.219-0.288-0.328-0.677-0.328-1.168C506.787,244.728,506.948,244.306,507.267,244.029z
		 M508.835,243.981l0.008,1.104c0.005,1.173,0.392,1.76,1.16,1.76c0.262,0,0.472-0.099,0.632-0.296
		c0.155-0.197,0.232-0.461,0.232-0.792c0-0.448-0.157-0.861-0.472-1.24c-0.314-0.357-0.634-0.536-0.96-0.536H508.835z"/>
	<path class="st0" d="M505.563,241.773h1.336v-1.144h0.28v1.144h2.984c0.224,0,0.376-0.037,0.456-0.112
		c0.091-0.064,0.136-0.203,0.136-0.416v-0.52h0.28v0.544c0,0.31-0.077,0.525-0.232,0.648c-0.139,0.107-0.352,0.16-0.64,0.16h-2.984
		v0.936h-0.28v-0.936h-1.2L505.563,241.773z"/>
	<path class="st0" d="M505.211,239.884v-0.312h2.52c-0.293-0.144-0.525-0.341-0.696-0.592c-0.165-0.234-0.248-0.507-0.248-0.816
		c0-0.458,0.136-0.824,0.408-1.096c0.277-0.272,0.669-0.408,1.176-0.408h2.664v0.304h-2.64c-0.421,0-0.752,0.115-0.992,0.344
		c-0.224,0.224-0.336,0.528-0.336,0.912c0,0.368,0.149,0.683,0.448,0.944c0.304,0.272,0.672,0.408,1.104,0.408h2.416v0.312H505.211z
		"/>
	<path class="st0" d="M507.444,232.549c0.373-0.272,0.915-0.424,1.624-0.456v3.456c0.555-0.016,0.989-0.163,1.304-0.44
		c0.331-0.288,0.496-0.664,0.496-1.128c0-0.411-0.115-0.747-0.344-1.008c-0.197-0.213-0.469-0.368-0.816-0.464v-0.328
		c0.4,0.096,0.731,0.277,0.992,0.544c0.299,0.331,0.448,0.75,0.448,1.256c0,0.576-0.2,1.032-0.6,1.368
		c-0.4,0.347-0.928,0.52-1.584,0.52c-0.603,0-1.109-0.165-1.52-0.496c-0.438-0.352-0.656-0.813-0.656-1.384
		C506.787,233.349,507.006,232.869,507.444,232.549z M507.556,235.085c0.325,0.277,0.739,0.432,1.24,0.464v-3.136
		c-1.152,0.085-1.728,0.608-1.728,1.568C507.068,234.44,507.23,234.808,507.556,235.085z"/>
	<path class="st0" d="M507.707,228.477c-0.288-0.128-0.512-0.306-0.672-0.536c-0.165-0.219-0.248-0.478-0.248-0.776
		c0-0.438,0.133-0.779,0.4-1.024c0.272-0.245,0.653-0.368,1.144-0.368h2.704v0.304h-2.68c-0.421,0-0.736,0.088-0.944,0.264
		c-0.229,0.192-0.344,0.485-0.344,0.88c0,0.336,0.125,0.611,0.376,0.824c0.24,0.224,0.546,0.336,0.92,0.336h2.672v0.312h-2.68
		c-0.858,0-1.288,0.374-1.288,1.12c0,0.336,0.136,0.616,0.408,0.84c0.261,0.229,0.589,0.344,0.984,0.344h2.576v0.312h-4.136v-0.312
		h0.704c-0.544-0.272-0.816-0.68-0.816-1.224C506.787,229.101,507.094,228.669,507.707,228.477z"/>
	<path class="st0" d="M507.267,221.781c0.267-0.235,0.632-0.352,1.096-0.352h2.672v0.296h-0.888
		c0.246,0.171,0.467,0.403,0.664,0.696c0.224,0.352,0.336,0.733,0.336,1.144c0,0.395-0.101,0.717-0.304,0.968
		c-0.213,0.251-0.496,0.376-0.848,0.376c-0.528,0-0.909-0.221-1.144-0.664c-0.187-0.341-0.28-0.808-0.28-1.4l-0.008-1.112h-0.168
		c-0.885,0-1.328,0.44-1.328,1.32c0,0.395,0.088,0.712,0.264,0.952c0.187,0.267,0.454,0.424,0.8,0.472v0.304
		c-0.448-0.064-0.787-0.253-1.016-0.568c-0.219-0.288-0.328-0.677-0.328-1.168C506.787,222.48,506.948,222.058,507.267,221.781z
		 M508.835,221.733l0.008,1.104c0.005,1.173,0.392,1.76,1.16,1.76c0.262,0,0.472-0.099,0.632-0.296
		c0.155-0.197,0.232-0.461,0.232-0.792c0-0.448-0.157-0.861-0.472-1.24c-0.314-0.357-0.634-0.536-0.96-0.536H508.835z"/>
	<path class="st0" d="M505.563,219.525h1.336v-1.144h0.28v1.144h2.984c0.224,0,0.376-0.037,0.456-0.112
		c0.091-0.064,0.136-0.203,0.136-0.416v-0.52h0.28v0.544c0,0.31-0.077,0.525-0.232,0.648c-0.139,0.107-0.352,0.16-0.64,0.16h-2.984
		v0.936h-0.28v-0.936h-1.2L505.563,219.525z"/>
	<path class="st0" d="M505.587,216.988c0.054-0.064,0.128-0.096,0.224-0.096c0.085,0,0.16,0.032,0.224,0.096
		s0.096,0.139,0.096,0.224c0,0.091-0.032,0.166-0.096,0.224c-0.064,0.064-0.139,0.096-0.224,0.096c-0.096,0-0.17-0.032-0.224-0.096
		c-0.064-0.059-0.096-0.133-0.096-0.224C505.492,217.127,505.523,217.052,505.587,216.988z M506.899,217.364v-0.304h4.136v0.304
		H506.899z"/>
	<path class="st0" d="M507.147,212.893c0.24-0.304,0.603-0.488,1.088-0.552v0.304c-0.384,0.053-0.675,0.203-0.872,0.448
		c-0.197,0.251-0.296,0.573-0.296,0.968c0,0.475,0.187,0.856,0.56,1.144c0.352,0.272,0.813,0.408,1.384,0.408
		c0.56,0,1.005-0.13,1.336-0.392c0.347-0.267,0.52-0.65,0.52-1.152c0-0.821-0.429-1.304-1.288-1.448v-0.304
		c0.507,0.08,0.896,0.272,1.168,0.576c0.267,0.309,0.4,0.701,0.4,1.176c0,0.603-0.208,1.069-0.624,1.4
		c-0.384,0.304-0.888,0.456-1.512,0.456c-0.635,0-1.155-0.16-1.56-0.48c-0.443-0.331-0.664-0.792-0.664-1.384
		C506.787,213.586,506.908,213.196,507.147,212.893z"/>
	<path class="st0" d="M508.043,208.589v0.304c-0.309,0.053-0.544,0.176-0.704,0.368c-0.182,0.219-0.272,0.528-0.272,0.928
		c0,0.341,0.075,0.613,0.224,0.816c0.144,0.224,0.328,0.336,0.552,0.336c0.24,0,0.432-0.13,0.576-0.392
		c0.091-0.17,0.192-0.466,0.304-0.888c0.128-0.512,0.253-0.872,0.376-1.08c0.192-0.336,0.464-0.504,0.816-0.504
		c0.821,0,1.232,0.536,1.232,1.608c0,1.029-0.464,1.592-1.392,1.688v-0.312c0.405-0.048,0.693-0.189,0.864-0.424
		c0.166-0.213,0.248-0.531,0.248-0.952c0-0.864-0.314-1.296-0.944-1.296c-0.272,0-0.48,0.144-0.624,0.432
		c-0.08,0.144-0.184,0.464-0.312,0.96c-0.128,0.485-0.251,0.821-0.368,1.008c-0.187,0.304-0.442,0.456-0.768,0.456
		c-0.325,0-0.584-0.144-0.776-0.432c-0.192-0.283-0.288-0.624-0.288-1.024C506.787,209.25,507.206,208.716,508.043,208.589z"/>
	<path class="st0" d="M516.324,336.292v-3.736h0.288v3.424h2.328v-3.256h0.288v3.256h2.808v0.312H516.324z"/>
	<path class="st0" d="M516.587,331.163c0.054-0.064,0.128-0.096,0.224-0.096c0.085,0,0.16,0.032,0.224,0.096
		s0.096,0.139,0.096,0.224c0,0.091-0.032,0.166-0.096,0.224c-0.064,0.064-0.139,0.096-0.224,0.096c-0.096,0-0.17-0.032-0.224-0.096
		c-0.064-0.059-0.096-0.133-0.096-0.224C516.492,331.302,516.523,331.227,516.587,331.163z M517.899,331.539v-0.304h4.136v0.304
		H517.899z"/>
	<path class="st0" d="M519.499,326.707h2.536v0.312h-2.528c-0.96,0-1.44,0.421-1.44,1.264c0,0.374,0.136,0.686,0.408,0.936
		c0.261,0.256,0.613,0.392,1.056,0.408h2.504v0.312h-4.136v-0.312h0.752c-0.256-0.123-0.467-0.309-0.632-0.56
		c-0.154-0.24-0.232-0.518-0.232-0.832C517.787,327.216,518.358,326.707,519.499,326.707z"/>
	<path class="st0" d="M518.267,322.715c0.267-0.235,0.632-0.352,1.096-0.352h2.672v0.296h-0.888
		c0.246,0.171,0.467,0.403,0.664,0.696c0.224,0.352,0.336,0.733,0.336,1.144c0,0.395-0.101,0.717-0.304,0.968
		c-0.213,0.251-0.496,0.376-0.848,0.376c-0.528,0-0.909-0.221-1.144-0.664c-0.187-0.341-0.28-0.808-0.28-1.4l-0.008-1.112h-0.168
		c-0.885,0-1.328,0.44-1.328,1.32c0,0.395,0.088,0.712,0.264,0.952c0.187,0.267,0.454,0.424,0.8,0.472v0.304
		c-0.448-0.064-0.787-0.253-1.016-0.568c-0.219-0.288-0.328-0.677-0.328-1.168C517.787,323.414,517.948,322.993,518.267,322.715z
		 M519.835,322.668l0.008,1.104c0.005,1.173,0.392,1.76,1.16,1.76c0.262,0,0.472-0.099,0.632-0.296
		c0.155-0.197,0.232-0.461,0.232-0.792c0-0.448-0.157-0.861-0.472-1.24c-0.314-0.357-0.634-0.536-0.96-0.536H519.835z"/>
	<path class="st0" d="M516.211,321.155v-0.304h5.824v0.304H516.211z"/>
	<path class="st0" d="M516.211,316.979v-0.312h2.688c-0.741-0.288-1.112-0.797-1.112-1.528c0-0.576,0.224-1.032,0.672-1.368
		c0.4-0.304,0.904-0.456,1.512-0.456c0.603,0,1.107,0.149,1.512,0.448c0.442,0.336,0.664,0.797,0.664,1.384
		c0,0.742-0.36,1.253-1.08,1.536h0.968v0.296H516.211z M518.612,316.291c0.341,0.256,0.781,0.384,1.32,0.384h0.104
		c0.528,0,0.958-0.125,1.288-0.376c0.363-0.267,0.544-0.646,0.544-1.136s-0.187-0.877-0.56-1.16
		c-0.347-0.251-0.792-0.376-1.336-0.376c-0.555,0-1,0.128-1.336,0.384c-0.379,0.277-0.568,0.664-0.568,1.16
		C518.068,315.652,518.249,316.025,518.612,316.291z"/>
	<path class="st0" d="M518.267,309.484c0.267-0.235,0.632-0.352,1.096-0.352h2.672v0.296h-0.888
		c0.246,0.171,0.467,0.403,0.664,0.696c0.224,0.352,0.336,0.733,0.336,1.144c0,0.395-0.101,0.717-0.304,0.968
		c-0.213,0.251-0.496,0.376-0.848,0.376c-0.528,0-0.909-0.221-1.144-0.664c-0.187-0.341-0.28-0.808-0.28-1.4l-0.008-1.112h-0.168
		c-0.885,0-1.328,0.44-1.328,1.32c0,0.395,0.088,0.712,0.264,0.952c0.187,0.267,0.454,0.424,0.8,0.472v0.304
		c-0.448-0.064-0.787-0.253-1.016-0.568c-0.219-0.288-0.328-0.677-0.328-1.168C517.787,310.182,517.948,309.761,518.267,309.484z
		 M519.835,309.436l0.008,1.104c0.005,1.173,0.392,1.76,1.16,1.76c0.262,0,0.472-0.099,0.632-0.296
		c0.155-0.197,0.232-0.461,0.232-0.792c0-0.448-0.157-0.861-0.472-1.24c-0.314-0.357-0.634-0.536-0.96-0.536H519.835z"/>
	<path class="st0" d="M516.563,307.228h1.336v-1.144h0.28v1.144h2.984c0.224,0,0.376-0.037,0.456-0.112
		c0.091-0.064,0.136-0.203,0.136-0.416v-0.52h0.28v0.544c0,0.31-0.077,0.525-0.232,0.648c-0.139,0.107-0.352,0.16-0.64,0.16h-2.984
		v0.936h-0.28v-0.936h-1.2L516.563,307.228z"/>
	<path class="st0" d="M516.563,304.46h1.336v-1.144h0.28v1.144h2.984c0.224,0,0.376-0.037,0.456-0.112
		c0.091-0.064,0.136-0.203,0.136-0.416v-0.52h0.28v0.544c0,0.31-0.077,0.525-0.232,0.648c-0.139,0.107-0.352,0.16-0.64,0.16h-2.984
		v0.936h-0.28v-0.936h-1.2L516.563,304.46z"/>
	<path class="st0" d="M516.211,302.388v-0.304h5.824v0.304H516.211z"/>
	<path class="st0" d="M518.444,297.796c0.373-0.272,0.915-0.424,1.624-0.456v3.456c0.555-0.016,0.989-0.163,1.304-0.44
		c0.331-0.288,0.496-0.664,0.496-1.128c0-0.411-0.115-0.747-0.344-1.008c-0.197-0.213-0.469-0.368-0.816-0.464v-0.328
		c0.4,0.096,0.731,0.277,0.992,0.544c0.299,0.331,0.448,0.75,0.448,1.256c0,0.576-0.2,1.032-0.6,1.368
		c-0.4,0.347-0.928,0.52-1.584,0.52c-0.603,0-1.109-0.165-1.52-0.496c-0.438-0.352-0.656-0.813-0.656-1.384
		C517.787,298.596,518.006,298.116,518.444,297.796z M518.555,300.332c0.325,0.277,0.739,0.432,1.24,0.464v-3.136
		c-1.152,0.085-1.728,0.608-1.728,1.568C518.068,299.687,518.23,300.055,518.555,300.332z"/>
	<path class="st0" d="M518.563,295.836c0.059-0.059,0.133-0.088,0.224-0.088c0.085,0,0.16,0.032,0.224,0.096
		s0.096,0.139,0.096,0.224c0,0.091-0.032,0.166-0.096,0.224c-0.064,0.064-0.139,0.096-0.224,0.096c-0.096,0-0.17-0.032-0.224-0.096
		c-0.064-0.059-0.096-0.133-0.096-0.224S518.499,295.9,518.563,295.836z M521.492,295.836c0.059-0.059,0.133-0.088,0.224-0.088
		c0.085,0,0.16,0.032,0.224,0.096s0.096,0.139,0.096,0.224c0,0.091-0.032,0.166-0.096,0.224c-0.064,0.064-0.139,0.096-0.224,0.096
		c-0.096,0-0.171-0.032-0.224-0.096c-0.064-0.059-0.096-0.133-0.096-0.224S521.428,295.9,521.492,295.836z"/>
	<path class="st0" d="M516.324,292.244v-4.68h0.288v2.176h5.424v0.312h-5.424v2.192H516.324z"/>
	<path class="st0" d="M516.211,286.9v-0.312h2.52c-0.293-0.144-0.525-0.341-0.696-0.592c-0.165-0.234-0.248-0.507-0.248-0.816
		c0-0.458,0.136-0.824,0.408-1.096c0.277-0.272,0.669-0.408,1.176-0.408h2.664v0.304h-2.64c-0.421,0-0.752,0.115-0.992,0.344
		c-0.224,0.224-0.336,0.528-0.336,0.912c0,0.368,0.149,0.683,0.448,0.944c0.304,0.272,0.672,0.408,1.104,0.408h2.416v0.312H516.211z
		"/>
	<path class="st0" d="M518.444,279.565c0.373-0.272,0.915-0.424,1.624-0.456v3.456c0.555-0.016,0.989-0.163,1.304-0.44
		c0.331-0.288,0.496-0.664,0.496-1.128c0-0.411-0.115-0.747-0.344-1.008c-0.197-0.213-0.469-0.368-0.816-0.464v-0.328
		c0.4,0.096,0.731,0.277,0.992,0.544c0.299,0.331,0.448,0.75,0.448,1.256c0,0.576-0.2,1.032-0.6,1.368
		c-0.4,0.347-0.928,0.52-1.584,0.52c-0.603,0-1.109-0.165-1.52-0.496c-0.438-0.352-0.656-0.813-0.656-1.384
		C517.787,280.364,518.006,279.884,518.444,279.565z M518.555,282.1c0.325,0.277,0.739,0.432,1.24,0.464v-3.136
		c-1.152,0.085-1.728,0.608-1.728,1.568C518.068,281.455,518.23,281.823,518.555,282.1z"/>
	<path class="st0" d="M516.211,275.477v-0.304h5.824v0.304H516.211z"/>
	<path class="st0" d="M518.267,270.997c0.267-0.235,0.632-0.352,1.096-0.352h2.672v0.296h-0.888
		c0.246,0.171,0.467,0.403,0.664,0.696c0.224,0.352,0.336,0.733,0.336,1.144c0,0.395-0.101,0.717-0.304,0.968
		c-0.213,0.251-0.496,0.376-0.848,0.376c-0.528,0-0.909-0.221-1.144-0.664c-0.187-0.341-0.28-0.808-0.28-1.4l-0.008-1.112h-0.168
		c-0.885,0-1.328,0.44-1.328,1.32c0,0.395,0.088,0.712,0.264,0.952c0.187,0.267,0.454,0.424,0.8,0.472v0.304
		c-0.448-0.064-0.787-0.253-1.016-0.568c-0.219-0.288-0.328-0.677-0.328-1.168C517.787,271.695,517.948,271.274,518.267,270.997z
		 M519.835,270.949l0.008,1.104c0.005,1.173,0.392,1.76,1.16,1.76c0.262,0,0.472-0.099,0.632-0.296
		c0.155-0.197,0.232-0.461,0.232-0.792c0-0.448-0.157-0.861-0.472-1.24c-0.314-0.357-0.634-0.536-0.96-0.536H519.835z"/>
	<path class="st0" d="M519.043,266.676v0.304c-0.309,0.053-0.544,0.176-0.704,0.368c-0.182,0.219-0.272,0.528-0.272,0.928
		c0,0.341,0.075,0.613,0.224,0.816c0.144,0.224,0.328,0.336,0.552,0.336c0.24,0,0.432-0.13,0.576-0.392
		c0.091-0.17,0.192-0.466,0.304-0.888c0.128-0.512,0.253-0.872,0.376-1.08c0.192-0.336,0.464-0.504,0.816-0.504
		c0.821,0,1.232,0.536,1.232,1.608c0,1.029-0.464,1.592-1.392,1.688v-0.312c0.405-0.048,0.693-0.189,0.864-0.424
		c0.166-0.213,0.248-0.531,0.248-0.952c0-0.864-0.314-1.296-0.944-1.296c-0.272,0-0.48,0.144-0.624,0.432
		c-0.08,0.144-0.184,0.464-0.312,0.96c-0.128,0.485-0.251,0.821-0.368,1.008c-0.187,0.304-0.442,0.456-0.768,0.456
		c-0.325,0-0.584-0.144-0.776-0.432c-0.192-0.283-0.288-0.624-0.288-1.024C517.787,267.338,518.206,266.804,519.043,266.676z"/>
	<path class="st0" d="M516.563,264.901h1.336v-1.144h0.28v1.144h2.984c0.224,0,0.376-0.037,0.456-0.112
		c0.091-0.064,0.136-0.203,0.136-0.416v-0.52h0.28v0.544c0,0.31-0.077,0.525-0.232,0.648c-0.139,0.107-0.352,0.16-0.64,0.16h-2.984
		v0.936h-0.28v-0.936h-1.2L516.563,264.901z"/>
	<path class="st0" d="M518.707,257.516c-0.288-0.128-0.512-0.306-0.672-0.536c-0.165-0.219-0.248-0.478-0.248-0.776
		c0-0.437,0.133-0.779,0.4-1.024c0.272-0.245,0.653-0.368,1.144-0.368h2.704v0.304h-2.68c-0.421,0-0.736,0.088-0.944,0.264
		c-0.229,0.192-0.344,0.485-0.344,0.88c0,0.336,0.125,0.611,0.376,0.824c0.24,0.224,0.546,0.336,0.92,0.336h2.672v0.312h-2.68
		c-0.858,0-1.288,0.374-1.288,1.12c0,0.336,0.136,0.616,0.408,0.84c0.261,0.229,0.589,0.344,0.984,0.344h2.576v0.312h-4.136v-0.312
		h0.704c-0.544-0.272-0.816-0.68-0.816-1.224C517.787,258.14,518.094,257.709,518.707,257.516z"/>
	<path class="st0" d="M516.587,253.14c0.054-0.064,0.128-0.096,0.224-0.096c0.085,0,0.16,0.032,0.224,0.096s0.096,0.139,0.096,0.224
		c0,0.091-0.032,0.166-0.096,0.224c-0.064,0.064-0.139,0.096-0.224,0.096c-0.096,0-0.17-0.032-0.224-0.096
		c-0.064-0.059-0.096-0.133-0.096-0.224C516.492,253.279,516.523,253.204,516.587,253.14z M517.899,253.516v-0.304h4.136v0.304
		H517.899z"/>
	<path class="st0" d="M516.211,251.733v-0.304h5.824v0.304H516.211z"/>
	<path class="st0" d="M518.444,247.141c0.373-0.272,0.915-0.424,1.624-0.456v3.456c0.555-0.016,0.989-0.163,1.304-0.44
		c0.331-0.288,0.496-0.664,0.496-1.128c0-0.411-0.115-0.747-0.344-1.008c-0.197-0.213-0.469-0.368-0.816-0.464v-0.328
		c0.4,0.096,0.731,0.277,0.992,0.544c0.299,0.331,0.448,0.75,0.448,1.256c0,0.576-0.2,1.032-0.6,1.368
		c-0.4,0.347-0.928,0.52-1.584,0.52c-0.603,0-1.109-0.165-1.52-0.496c-0.438-0.352-0.656-0.813-0.656-1.384
		C517.787,247.941,518.006,247.461,518.444,247.141z M518.555,249.676c0.325,0.277,0.739,0.432,1.24,0.464v-3.136
		c-1.152,0.085-1.728,0.608-1.728,1.568C518.068,249.031,518.23,249.4,518.555,249.676z"/>
	<path class="st0" d="M518.468,240.028c0.405-0.325,0.907-0.488,1.504-0.488c0.582,0,1.083,0.163,1.504,0.488
		c0.448,0.357,0.672,0.837,0.672,1.44c0,0.608-0.224,1.088-0.672,1.44c-0.411,0.325-0.912,0.488-1.504,0.488
		c-0.608,0-1.109-0.163-1.504-0.488c-0.454-0.352-0.68-0.832-0.68-1.44C517.787,240.866,518.014,240.386,518.468,240.028z
		 M518.652,242.677c0.352,0.272,0.792,0.408,1.32,0.408c0.523,0,0.96-0.136,1.312-0.408c0.389-0.299,0.584-0.702,0.584-1.208
		c0-0.496-0.195-0.899-0.584-1.208c-0.352-0.272-0.789-0.408-1.312-0.408c-0.528,0-0.968,0.136-1.32,0.408
		c-0.39,0.304-0.584,0.707-0.584,1.208C518.068,241.981,518.262,242.383,518.652,242.677z"/>
	<path class="st0" d="M516.324,236.293h0.288v0.672c0,0.251,0.061,0.43,0.184,0.536c0.112,0.107,0.312,0.16,0.6,0.16h0.504v-1.312
		h0.28v1.312h3.856v0.304h-3.856v1.184h-0.28v-1.184h-0.504c-0.352,0-0.613-0.077-0.784-0.232c-0.192-0.16-0.288-0.411-0.288-0.752
		V236.293z"/>
	<path class="st0" d="M516.211,229.884v-0.312h5.824v0.296h-0.968c0.72,0.288,1.08,0.803,1.08,1.544
		c0,0.586-0.221,1.045-0.664,1.376c-0.395,0.298-0.899,0.448-1.512,0.448c-0.608,0-1.112-0.152-1.512-0.456
		c-0.448-0.331-0.672-0.784-0.672-1.36c0-0.736,0.368-1.248,1.104-1.536H516.211z M518.636,232.541
		c0.336,0.256,0.781,0.384,1.336,0.384s1-0.125,1.336-0.376c0.374-0.277,0.56-0.664,0.56-1.16c0-0.485-0.181-0.864-0.544-1.136
		c-0.341-0.25-0.771-0.376-1.288-0.376h-0.104c-0.539,0-0.979,0.128-1.32,0.384c-0.363,0.277-0.544,0.651-0.544,1.12
		C518.068,231.887,518.257,232.274,518.636,232.541z"/>
	<path class="st0" d="M518.444,225.469c0.373-0.272,0.915-0.424,1.624-0.456v3.456c0.555-0.016,0.989-0.163,1.304-0.44
		c0.331-0.288,0.496-0.664,0.496-1.128c0-0.411-0.115-0.747-0.344-1.008c-0.197-0.213-0.469-0.368-0.816-0.464v-0.328
		c0.4,0.096,0.731,0.277,0.992,0.544c0.299,0.331,0.448,0.75,0.448,1.256c0,0.576-0.2,1.032-0.6,1.368
		c-0.4,0.347-0.928,0.52-1.584,0.52c-0.603,0-1.109-0.165-1.52-0.496c-0.438-0.352-0.656-0.813-0.656-1.384
		C517.787,226.269,518.006,225.789,518.444,225.469z M518.555,228.005c0.325,0.277,0.739,0.432,1.24,0.464v-3.136
		c-1.152,0.085-1.728,0.608-1.728,1.568C518.068,227.36,518.23,227.728,518.555,228.005z"/>
	<path class="st0" d="M516.211,224.045v-0.304h5.824v0.304H516.211z"/>
	<path class="st0" d="M516.587,221.885c0.054-0.064,0.128-0.096,0.224-0.096c0.085,0,0.16,0.032,0.224,0.096
		s0.096,0.139,0.096,0.224c0,0.091-0.032,0.166-0.096,0.224c-0.064,0.064-0.139,0.096-0.224,0.096c-0.096,0-0.17-0.032-0.224-0.096
		c-0.064-0.059-0.096-0.133-0.096-0.224C516.492,222.024,516.523,221.949,516.587,221.885z M517.899,222.261v-0.304h4.136v0.304
		H517.899z"/>
	<path class="st0" d="M517.899,221.133v-0.344l3.736-1.424l-3.736-1.424v-0.344l4.136,1.6v0.336L517.899,221.133z"/>
	<path class="st0" d="M518.444,213.965c0.373-0.272,0.915-0.424,1.624-0.456v3.456c0.555-0.016,0.989-0.163,1.304-0.44
		c0.331-0.288,0.496-0.664,0.496-1.128c0-0.411-0.115-0.747-0.344-1.008c-0.197-0.213-0.469-0.368-0.816-0.464v-0.328
		c0.4,0.096,0.731,0.277,0.992,0.544c0.299,0.331,0.448,0.75,0.448,1.256c0,0.576-0.2,1.032-0.6,1.368
		c-0.4,0.347-0.928,0.52-1.584,0.52c-0.603,0-1.109-0.165-1.52-0.496c-0.438-0.352-0.656-0.813-0.656-1.384
		C517.787,214.765,518.006,214.285,518.444,213.965z M518.555,216.501c0.325,0.277,0.739,0.432,1.24,0.464v-3.136
		c-1.152,0.085-1.728,0.608-1.728,1.568C518.068,215.856,518.23,216.224,518.555,216.501z"/>
	<path class="st0" d="M517.867,210.438h0.328c-0.064,0.224-0.096,0.442-0.096,0.656c0,0.421,0.195,0.755,0.584,1
		c0.331,0.213,0.72,0.32,1.168,0.32h2.184v0.312h-4.136v-0.312h0.864c-0.267-0.101-0.488-0.261-0.664-0.48
		c-0.208-0.25-0.312-0.536-0.312-0.856C517.787,210.805,517.814,210.592,517.867,210.438z"/>
	<path class="st0" d="M517.899,210.358v-0.344l3.648-1.456l-3.648-1.44v-0.352l5.72,2.296v0.344l-1.688-0.688L517.899,210.358z"/>
	<path class="st0" d="M519.043,200.606v0.304c-0.309,0.053-0.544,0.176-0.704,0.368c-0.182,0.219-0.272,0.528-0.272,0.928
		c0,0.341,0.075,0.613,0.224,0.816c0.144,0.224,0.328,0.336,0.552,0.336c0.24,0,0.432-0.13,0.576-0.392
		c0.091-0.17,0.192-0.466,0.304-0.888c0.128-0.512,0.253-0.872,0.376-1.08c0.192-0.336,0.464-0.504,0.816-0.504
		c0.821,0,1.232,0.536,1.232,1.608c0,1.029-0.464,1.592-1.392,1.688v-0.312c0.405-0.048,0.693-0.189,0.864-0.424
		c0.166-0.213,0.248-0.531,0.248-0.952c0-0.864-0.314-1.296-0.944-1.296c-0.272,0-0.48,0.144-0.624,0.432
		c-0.08,0.144-0.184,0.464-0.312,0.96c-0.128,0.485-0.251,0.821-0.368,1.008c-0.187,0.304-0.442,0.456-0.768,0.456
		c-0.325,0-0.584-0.144-0.776-0.432c-0.192-0.283-0.288-0.624-0.288-1.024C517.787,201.267,518.206,200.734,519.043,200.606z"/>
	<path class="st0" d="M518.444,196.63c0.373-0.272,0.915-0.424,1.624-0.456v3.456c0.555-0.016,0.989-0.163,1.304-0.44
		c0.331-0.288,0.496-0.664,0.496-1.128c0-0.411-0.115-0.747-0.344-1.008c-0.197-0.213-0.469-0.368-0.816-0.464v-0.328
		c0.4,0.096,0.731,0.277,0.992,0.544c0.299,0.331,0.448,0.75,0.448,1.256c0,0.576-0.2,1.032-0.6,1.368
		c-0.4,0.347-0.928,0.52-1.584,0.52c-0.603,0-1.109-0.165-1.52-0.496c-0.438-0.352-0.656-0.813-0.656-1.384
		C517.787,197.43,518.006,196.95,518.444,196.63z M518.555,199.166c0.325,0.277,0.739,0.432,1.24,0.464v-3.136
		c-1.152,0.085-1.728,0.608-1.728,1.568C518.068,198.521,518.23,198.889,518.555,199.166z"/>
	<path class="st0" d="M517.867,193.102h0.328c-0.064,0.224-0.096,0.442-0.096,0.656c0,0.421,0.195,0.755,0.584,1
		c0.331,0.213,0.72,0.32,1.168,0.32h2.184v0.312h-4.136v-0.312h0.864c-0.267-0.101-0.488-0.261-0.664-0.48
		c-0.208-0.25-0.312-0.536-0.312-0.856C517.787,193.47,517.814,193.257,517.867,193.102z"/>
	<path class="st0" d="M517.899,193.022v-0.344l3.736-1.424l-3.736-1.424v-0.344l4.136,1.6v0.336L517.899,193.022z"/>
	<path class="st0" d="M516.587,188.286c0.054-0.064,0.128-0.096,0.224-0.096c0.085,0,0.16,0.032,0.224,0.096
		s0.096,0.139,0.096,0.224c0,0.091-0.032,0.166-0.096,0.224c-0.064,0.064-0.139,0.096-0.224,0.096c-0.096,0-0.17-0.032-0.224-0.096
		c-0.064-0.059-0.096-0.133-0.096-0.224C516.492,188.424,516.523,188.35,516.587,188.286z M517.899,188.662v-0.304h4.136v0.304
		H517.899z"/>
	<path class="st0" d="M518.147,184.19c0.24-0.304,0.603-0.488,1.088-0.552v0.304c-0.384,0.053-0.675,0.203-0.872,0.448
		c-0.197,0.251-0.296,0.573-0.296,0.968c0,0.475,0.187,0.856,0.56,1.144c0.352,0.272,0.813,0.408,1.384,0.408
		c0.56,0,1.005-0.13,1.336-0.392c0.347-0.267,0.52-0.65,0.52-1.152c0-0.821-0.429-1.304-1.288-1.448v-0.304
		c0.507,0.08,0.896,0.272,1.168,0.576c0.267,0.309,0.4,0.701,0.4,1.176c0,0.603-0.208,1.069-0.624,1.4
		c-0.384,0.304-0.888,0.456-1.512,0.456c-0.635,0-1.155-0.16-1.56-0.48c-0.443-0.331-0.664-0.792-0.664-1.384
		C517.787,184.883,517.908,184.494,518.147,184.19z"/>
	<path class="st0" d="M518.444,179.75c0.373-0.272,0.915-0.424,1.624-0.456v3.456c0.555-0.016,0.989-0.163,1.304-0.44
		c0.331-0.288,0.496-0.664,0.496-1.128c0-0.411-0.115-0.747-0.344-1.008c-0.197-0.213-0.469-0.368-0.816-0.464v-0.328
		c0.4,0.096,0.731,0.277,0.992,0.544c0.299,0.331,0.448,0.75,0.448,1.256c0,0.576-0.2,1.032-0.6,1.368
		c-0.4,0.347-0.928,0.52-1.584,0.52c-0.603,0-1.109-0.165-1.52-0.496c-0.438-0.352-0.656-0.813-0.656-1.384
		C517.787,180.55,518.006,180.07,518.444,179.75z M518.555,182.286c0.325,0.277,0.739,0.432,1.24,0.464v-3.136
		c-1.152,0.085-1.728,0.608-1.728,1.568C518.068,181.641,518.23,182.009,518.555,182.286z"/>
</g>
<rect class="st1" width="841.89" height="510.24"/>
</svg>