<!-- Generator: Adobe Illustrator 22.0.0, SVG Export Plug-In  -->
<svg version="1.1"
	 xmlns="http://www.w3.org/2000/svg" xmlns:xlink="http://www.w3.org/1999/xlink" xmlns:a="http://ns.adobe.com/AdobeSVGViewerExtensions/3.0/"
	 x="0px" y="0px" width="511.939px" height="7.05px" viewBox="0 0 511.939 7.05" style="enable-background:new 0 0 511.939 7.05;"
	 xml:space="preserve">
<style type="text/css">
	.st0{fill:#666666;}
</style>
<defs>
</defs>
<g>
	<path class="st0" d="M0,0.105h0.518l3.24,4.643H3.78V0.105h0.465V5.46h-0.51L0.48,0.779H0.457V5.46H0V0.105z"/>
	<path class="st0" d="M8.332,2.092C8.647,2.473,8.805,2.95,8.805,3.525c0,0.564-0.157,1.039-0.473,1.425
		C7.982,5.359,7.525,5.564,6.96,5.564S5.938,5.359,5.588,4.95C5.272,4.564,5.115,4.09,5.115,3.525c0-0.575,0.16-1.053,0.48-1.434
		C5.93,1.683,6.385,1.478,6.96,1.478C7.529,1.478,7.987,1.683,8.332,2.092z M5.918,2.377c-0.23,0.295-0.346,0.678-0.346,1.148
		c0,0.465,0.115,0.845,0.346,1.14c0.254,0.34,0.602,0.51,1.042,0.51c0.444,0,0.795-0.17,1.05-0.51
		c0.23-0.315,0.346-0.694,0.346-1.14c0-0.461-0.115-0.843-0.346-1.148c-0.25-0.34-0.6-0.51-1.05-0.51
		C6.516,1.867,6.168,2.037,5.918,2.377z"/>
	<path class="st0" d="M10.537,0.33v1.252h1.013v0.391h-1.013v2.625c0,0.17,0.03,0.293,0.09,0.367
		c0.061,0.07,0.173,0.105,0.338,0.105h0.488v0.39h-0.549c-0.299,0-0.514-0.077-0.645-0.232c-0.115-0.13-0.172-0.34-0.172-0.63V1.973
		H9.262V1.582h0.826V0.518L10.537,0.33z"/>
	<path class="st0" d="M15.18,2.1c0.275,0.371,0.422,0.888,0.442,1.553h-3.149c0.024,0.475,0.152,0.848,0.383,1.117
		c0.239,0.271,0.559,0.405,0.959,0.405c0.346,0,0.631-0.093,0.855-0.277c0.18-0.155,0.317-0.382,0.412-0.683h0.457
		c-0.09,0.375-0.262,0.683-0.517,0.923c-0.315,0.284-0.718,0.427-1.208,0.427c-0.545,0-0.979-0.185-1.305-0.555
		c-0.335-0.369-0.502-0.867-0.502-1.492c0-0.57,0.159-1.047,0.479-1.433c0.33-0.405,0.768-0.607,1.313-0.607
		C14.414,1.478,14.875,1.686,15.18,2.1z M12.885,2.266c-0.234,0.265-0.37,0.604-0.404,1.02h2.67
		c-0.076-0.945-0.523-1.418-1.344-1.418C13.422,1.867,13.115,2,12.885,2.266z"/>
	<path class="st0" d="M17.107,2.07c0.074,0.064,0.112,0.154,0.112,0.27c0,0.1-0.04,0.19-0.12,0.27
		c-0.08,0.07-0.168,0.105-0.263,0.105c-0.11,0-0.2-0.037-0.271-0.112c-0.074-0.075-0.111-0.163-0.111-0.263
		c0-0.115,0.037-0.205,0.111-0.27c0.065-0.07,0.156-0.105,0.271-0.105C16.947,1.965,17.037,2,17.107,2.07z M17.107,4.814
		c0.074,0.065,0.112,0.156,0.112,0.271c0,0.101-0.04,0.19-0.12,0.271c-0.08,0.069-0.168,0.104-0.263,0.104
		c-0.11,0-0.2-0.038-0.271-0.112c-0.074-0.075-0.111-0.162-0.111-0.263c0-0.114,0.037-0.205,0.111-0.271
		c0.065-0.069,0.156-0.104,0.271-0.104C16.947,4.71,17.037,4.745,17.107,4.814z"/>
	<path class="st0" d="M20.918,0.105h0.457V5.46h-0.457V0.105z"/>
	<path class="st0" d="M23.4,0.33v1.252h1.012v0.391H23.4v2.625c0,0.17,0.029,0.293,0.09,0.367c0.06,0.07,0.172,0.105,0.337,0.105
		h0.487v0.39h-0.547c-0.301,0-0.516-0.077-0.646-0.232c-0.114-0.13-0.173-0.34-0.173-0.63V1.973h-0.824V1.582h0.824V0.518L23.4,0.33
		z"/>
	<path class="st0" d="M28.313,0.3c0.074,0.06,0.112,0.147,0.112,0.263c0,0.1-0.04,0.189-0.12,0.27
		c-0.08,0.07-0.168,0.105-0.263,0.105c-0.11,0-0.2-0.035-0.271-0.105c-0.074-0.074-0.111-0.164-0.111-0.27
		c0-0.115,0.037-0.203,0.111-0.263c0.07-0.075,0.16-0.112,0.271-0.112C28.146,0.188,28.237,0.225,28.313,0.3z M27.816,1.582h0.451
		V5.46h-0.451V1.582z"/>
	<path class="st0" d="M32.302,2.67h-0.442c-0.051-0.27-0.158-0.467-0.322-0.592C31.361,1.938,31.1,1.867,30.75,1.867
		c-0.291,0-0.523,0.058-0.698,0.173c-0.18,0.12-0.271,0.274-0.271,0.465c0,0.195,0.115,0.353,0.346,0.473
		c0.154,0.075,0.428,0.165,0.817,0.271c0.476,0.119,0.81,0.239,1.005,0.359c0.311,0.189,0.465,0.45,0.465,0.78
		c0,0.784-0.525,1.177-1.574,1.177c-0.996,0-1.538-0.441-1.628-1.327h0.442c0.045,0.341,0.165,0.585,0.359,0.735
		c0.181,0.135,0.451,0.202,0.811,0.202c0.75,0,1.125-0.255,1.125-0.765c0-0.235-0.127-0.415-0.383-0.54
		c-0.14-0.07-0.428-0.16-0.861-0.271C30.25,3.48,29.934,3.365,29.76,3.255c-0.295-0.175-0.443-0.423-0.443-0.742
		c0-0.315,0.141-0.567,0.42-0.758c0.266-0.185,0.605-0.277,1.021-0.277C31.677,1.478,32.191,1.875,32.302,2.67z"/>
	<path class="st0" d="M38.699,2.092c0.314,0.381,0.473,0.858,0.473,1.434c0,0.564-0.158,1.039-0.473,1.425
		c-0.35,0.409-0.808,0.614-1.373,0.614c-0.564,0-1.021-0.205-1.372-0.614c-0.315-0.386-0.473-0.86-0.473-1.425
		c0-0.575,0.16-1.053,0.48-1.434c0.335-0.409,0.79-0.614,1.364-0.614C37.896,1.478,38.354,1.683,38.699,2.092z M36.284,2.377
		c-0.229,0.295-0.345,0.678-0.345,1.148c0,0.465,0.115,0.845,0.345,1.14c0.255,0.34,0.603,0.51,1.042,0.51
		c0.445,0,0.795-0.17,1.051-0.51c0.229-0.315,0.345-0.694,0.345-1.14c0-0.461-0.115-0.843-0.345-1.148
		c-0.25-0.34-0.6-0.51-1.051-0.51C36.882,1.867,36.534,2.037,36.284,2.377z"/>
	<path class="st0" d="M43.117,3.075V5.46h-0.451V3.105c0-0.826-0.367-1.238-1.102-1.238c-0.311,0-0.57,0.113-0.78,0.338
		c-0.22,0.22-0.343,0.525-0.368,0.915v2.34h-0.449V1.582h0.449V2.22c0.136-0.229,0.311-0.412,0.525-0.548
		c0.211-0.129,0.455-0.194,0.735-0.194C42.637,1.478,43.117,2.01,43.117,3.075z"/>
	<path class="st0" d="M44.204,0h0.45v5.46h-0.45V0z"/>
	<path class="st0" d="M45.307,1.582h0.495l1.267,3.232l1.254-3.232h0.494L46.68,6.945h-0.488l0.652-1.583L45.307,1.582z"/>
	<path class="st0" d="M51.824,1.582h0.449v2.371c0,0.404,0.086,0.707,0.256,0.906c0.18,0.211,0.457,0.315,0.832,0.315
		c0.295,0,0.558-0.114,0.787-0.345c0.226-0.225,0.354-0.522,0.383-0.893V1.582h0.45V5.46h-0.45V4.808
		c-0.3,0.505-0.73,0.757-1.289,0.757c-0.945,0-1.418-0.529-1.418-1.59V1.582z"/>
	<path class="st0" d="M58.791,2.67H58.35c-0.051-0.27-0.158-0.467-0.323-0.592c-0.175-0.141-0.438-0.211-0.787-0.211
		c-0.29,0-0.522,0.058-0.698,0.173c-0.18,0.12-0.27,0.274-0.27,0.465c0,0.195,0.115,0.353,0.346,0.473
		c0.154,0.075,0.427,0.165,0.816,0.271c0.476,0.119,0.811,0.239,1.006,0.359c0.31,0.189,0.465,0.45,0.465,0.78
		c0,0.784-0.525,1.177-1.575,1.177c-0.995,0-1.538-0.441-1.628-1.327h0.443c0.045,0.341,0.164,0.585,0.359,0.735
		c0.18,0.135,0.45,0.202,0.811,0.202c0.75,0,1.125-0.255,1.125-0.765c0-0.235-0.128-0.415-0.383-0.54
		C57.916,3.8,57.629,3.71,57.194,3.6c-0.455-0.119-0.771-0.234-0.945-0.345c-0.295-0.175-0.442-0.423-0.442-0.742
		c0-0.315,0.14-0.567,0.42-0.758c0.266-0.185,0.605-0.277,1.02-0.277C58.166,1.478,58.682,1.875,58.791,2.67z"/>
	<path class="st0" d="M62.571,2.1c0.274,0.371,0.423,0.888,0.442,1.553h-3.15c0.025,0.475,0.152,0.848,0.383,1.117
		c0.24,0.271,0.561,0.405,0.961,0.405c0.344,0,0.629-0.093,0.854-0.277c0.18-0.155,0.317-0.382,0.412-0.683h0.458
		c-0.09,0.375-0.263,0.683-0.518,0.923c-0.315,0.284-0.718,0.427-1.207,0.427c-0.546,0-0.98-0.185-1.306-0.555
		c-0.335-0.369-0.503-0.867-0.503-1.492c0-0.57,0.16-1.047,0.48-1.433c0.33-0.405,0.768-0.607,1.313-0.607
		C61.807,1.478,62.266,1.686,62.571,2.1z M60.276,2.266c-0.235,0.265-0.37,0.604-0.405,1.02h2.67
		c-0.074-0.945-0.521-1.418-1.342-1.418C60.814,1.867,60.506,2,60.276,2.266z"/>
	<path class="st0" d="M66.658,0h0.451v5.46h-0.428V4.695c-0.271,0.58-0.723,0.869-1.357,0.869c-0.556,0-0.993-0.205-1.313-0.614
		c-0.285-0.375-0.428-0.853-0.428-1.433c0-0.57,0.143-1.043,0.428-1.418c0.31-0.414,0.739-0.622,1.289-0.622
		c0.621,0,1.072,0.308,1.357,0.923V0z M64.363,2.355c-0.215,0.279-0.322,0.667-0.322,1.162c0,0.484,0.105,0.875,0.315,1.17
		c0.235,0.33,0.572,0.495,1.013,0.495c0.42,0,0.747-0.16,0.982-0.479c0.215-0.301,0.322-0.676,0.322-1.125V3.487
		c0-0.47-0.115-0.857-0.346-1.162c-0.234-0.31-0.549-0.466-0.944-0.466C64.943,1.859,64.604,2.025,64.363,2.355z"/>
	<path class="st0" d="M72.816,0.105v0.396h-0.652c-0.201,0-0.343,0.051-0.428,0.15c-0.09,0.096-0.135,0.255-0.135,0.48v0.449h1.162
		v0.391h-1.162V5.46H71.15V1.973h-1.034V1.582h1.034V1.125c0-0.33,0.08-0.578,0.24-0.742c0.166-0.186,0.41-0.277,0.735-0.277H72.816
		z"/>
	<path class="st0" d="M76.394,2.092c0.315,0.381,0.473,0.858,0.473,1.434c0,0.564-0.157,1.039-0.473,1.425
		c-0.351,0.409-0.808,0.614-1.372,0.614c-0.565,0-1.023-0.205-1.373-0.614c-0.314-0.386-0.473-0.86-0.473-1.425
		c0-0.575,0.16-1.053,0.48-1.434c0.334-0.409,0.789-0.614,1.365-0.614C75.591,1.478,76.049,1.683,76.394,2.092z M73.979,2.377
		c-0.23,0.295-0.346,0.678-0.346,1.148c0,0.465,0.115,0.845,0.346,1.14c0.255,0.34,0.603,0.51,1.043,0.51
		c0.444,0,0.795-0.17,1.049-0.51c0.23-0.315,0.346-0.694,0.346-1.14c0-0.461-0.115-0.843-0.346-1.148
		c-0.25-0.34-0.6-0.51-1.049-0.51C74.576,1.867,74.229,2.037,73.979,2.377z"/>
	<path class="st0" d="M79.852,1.561v0.457c-0.186-0.055-0.383-0.082-0.594-0.082c-0.354,0-0.635,0.154-0.84,0.465
		c-0.205,0.279-0.307,0.617-0.307,1.012V5.46h-0.45V1.582h0.45v0.743c0.104-0.245,0.247-0.438,0.428-0.577
		c0.209-0.181,0.459-0.271,0.75-0.271C79.528,1.478,79.716,1.505,79.852,1.561z"/>
	<path class="st0" d="M85.708,1.92c0.229,0.255,0.345,0.603,0.345,1.043V5.46h-0.427V4.717c-0.16,0.23-0.37,0.424-0.63,0.578
		c-0.305,0.18-0.643,0.27-1.013,0.27c-0.38,0-0.688-0.098-0.923-0.292c-0.234-0.2-0.353-0.468-0.353-0.803
		c0-0.495,0.202-0.854,0.608-1.079c0.324-0.186,0.757-0.278,1.297-0.278l0.99-0.007V2.963c0-0.735-0.375-1.104-1.125-1.104
		c-0.346,0-0.615,0.073-0.811,0.219c-0.22,0.145-0.352,0.369-0.397,0.674h-0.442c0.061-0.435,0.242-0.76,0.548-0.975
		c0.28-0.199,0.655-0.3,1.125-0.3C85.046,1.478,85.448,1.625,85.708,1.92z M85.604,3.473L84.636,3.48
		c-0.979,0.004-1.47,0.332-1.47,0.982c0,0.215,0.082,0.39,0.247,0.524c0.16,0.136,0.38,0.202,0.66,0.202
		c0.405,0,0.765-0.135,1.08-0.404c0.3-0.266,0.45-0.553,0.45-0.863V3.473z"/>
	<path class="st0" d="M86.998,1.582h0.449v2.371c0,0.404,0.086,0.707,0.256,0.906c0.18,0.211,0.457,0.315,0.832,0.315
		c0.295,0,0.558-0.114,0.787-0.345c0.226-0.225,0.354-0.522,0.383-0.893V1.582h0.45V5.46h-0.45V4.808
		c-0.3,0.505-0.73,0.757-1.289,0.757c-0.945,0-1.418-0.529-1.418-1.59V1.582z"/>
	<path class="st0" d="M92.038,0.33v1.252h1.013v0.391h-1.013v2.625c0,0.17,0.03,0.293,0.09,0.367c0.06,0.07,0.173,0.105,0.337,0.105
		h0.488v0.39h-0.548c-0.3,0-0.515-0.077-0.646-0.232c-0.114-0.13-0.172-0.34-0.172-0.63V1.973h-0.825V1.582h0.825V0.518L92.038,0.33
		z"/>
	<path class="st0" d="M93.732,0h0.458v2.287c0.135-0.265,0.315-0.467,0.54-0.607c0.22-0.135,0.465-0.202,0.734-0.202
		c0.445,0,0.791,0.13,1.035,0.39c0.25,0.266,0.375,0.638,0.375,1.117V5.46h-0.449V3.045c0-0.37-0.096-0.662-0.285-0.877
		c-0.195-0.2-0.463-0.301-0.803-0.301c-0.32,0-0.593,0.131-0.818,0.391c-0.219,0.25-0.329,0.57-0.329,0.959V5.46h-0.458V0z"/>
	<path class="st0" d="M100.888,2.092c0.315,0.381,0.473,0.858,0.473,1.434c0,0.564-0.157,1.039-0.473,1.425
		c-0.351,0.409-0.808,0.614-1.372,0.614c-0.565,0-1.023-0.205-1.373-0.614c-0.314-0.386-0.473-0.86-0.473-1.425
		c0-0.575,0.16-1.053,0.48-1.434c0.334-0.409,0.789-0.614,1.365-0.614C100.085,1.478,100.543,1.683,100.888,2.092z M98.473,2.377
		c-0.23,0.295-0.346,0.678-0.346,1.148c0,0.465,0.115,0.845,0.346,1.14c0.255,0.34,0.603,0.51,1.043,0.51
		c0.444,0,0.795-0.17,1.049-0.51c0.23-0.315,0.346-0.694,0.346-1.14c0-0.461-0.115-0.843-0.346-1.148
		c-0.25-0.34-0.6-0.51-1.049-0.51C99.07,1.867,98.723,2.037,98.473,2.377z"/>
	<path class="st0" d="M104.346,1.561v0.457c-0.186-0.055-0.383-0.082-0.594-0.082c-0.354,0-0.635,0.154-0.84,0.465
		c-0.205,0.279-0.307,0.617-0.307,1.012V5.46h-0.45V1.582h0.45v0.743c0.104-0.245,0.247-0.438,0.428-0.577
		c0.209-0.181,0.459-0.271,0.75-0.271C104.022,1.478,104.21,1.505,104.346,1.561z"/>
	<path class="st0" d="M107.72,2.67h-0.442c-0.051-0.27-0.158-0.467-0.322-0.592c-0.176-0.141-0.438-0.211-0.787-0.211
		c-0.291,0-0.523,0.058-0.698,0.173c-0.18,0.12-0.271,0.274-0.271,0.465c0,0.195,0.115,0.353,0.346,0.473
		c0.154,0.075,0.428,0.165,0.817,0.271c0.476,0.119,0.81,0.239,1.005,0.359c0.311,0.189,0.465,0.45,0.465,0.78
		c0,0.784-0.525,1.177-1.574,1.177c-0.996,0-1.538-0.441-1.628-1.327h0.442c0.045,0.341,0.165,0.585,0.359,0.735
		c0.181,0.135,0.451,0.202,0.811,0.202c0.75,0,1.125-0.255,1.125-0.765c0-0.235-0.127-0.415-0.383-0.54
		c-0.14-0.07-0.428-0.16-0.861-0.271c-0.455-0.119-0.771-0.234-0.945-0.345c-0.295-0.175-0.443-0.423-0.443-0.742
		c0-0.315,0.141-0.567,0.42-0.758c0.266-0.185,0.605-0.277,1.021-0.277C107.095,1.478,107.609,1.875,107.72,2.67z"/>
	<path class="st0" d="M111.987,0.33v1.252H113v0.391h-1.013v2.625c0,0.17,0.03,0.293,0.09,0.367c0.06,0.07,0.173,0.105,0.337,0.105
		h0.488v0.39h-0.548c-0.3,0-0.515-0.077-0.646-0.232c-0.114-0.13-0.172-0.34-0.172-0.63V1.973h-0.825V1.582h0.825V0.518
		L111.987,0.33z"/>
	<path class="st0" d="M116.75,2.092c0.314,0.381,0.473,0.858,0.473,1.434c0,0.564-0.158,1.039-0.473,1.425
		c-0.351,0.409-0.809,0.614-1.373,0.614s-1.022-0.205-1.373-0.614c-0.314-0.386-0.473-0.86-0.473-1.425
		c0-0.575,0.16-1.053,0.48-1.434c0.335-0.409,0.79-0.614,1.365-0.614C115.947,1.478,116.404,1.683,116.75,2.092z M114.334,2.377
		c-0.229,0.295-0.345,0.678-0.345,1.148c0,0.465,0.115,0.845,0.345,1.14c0.256,0.34,0.604,0.51,1.043,0.51
		c0.445,0,0.795-0.17,1.05-0.51c0.229-0.315,0.345-0.694,0.345-1.14c0-0.461-0.115-0.843-0.345-1.148c-0.25-0.34-0.6-0.51-1.05-0.51
		C114.932,1.867,114.584,2.037,114.334,2.377z"/>
	<path class="st0" d="M123.364,1.92c0.229,0.255,0.345,0.603,0.345,1.043V5.46h-0.427V4.717c-0.16,0.23-0.37,0.424-0.63,0.578
		c-0.305,0.18-0.643,0.27-1.013,0.27c-0.38,0-0.688-0.098-0.923-0.292c-0.234-0.2-0.353-0.468-0.353-0.803
		c0-0.495,0.202-0.854,0.608-1.079c0.324-0.186,0.757-0.278,1.297-0.278l0.99-0.007V2.963c0-0.735-0.375-1.104-1.125-1.104
		c-0.346,0-0.615,0.073-0.811,0.219c-0.22,0.145-0.352,0.369-0.397,0.674h-0.442c0.061-0.435,0.242-0.76,0.548-0.975
		c0.28-0.199,0.655-0.3,1.125-0.3C122.702,1.478,123.104,1.625,123.364,1.92z M123.26,3.473l-0.968,0.008
		c-0.979,0.004-1.47,0.332-1.47,0.982c0,0.215,0.082,0.39,0.247,0.524c0.16,0.136,0.38,0.202,0.66,0.202
		c0.405,0,0.765-0.135,1.08-0.404c0.3-0.266,0.45-0.553,0.45-0.863V3.473z"/>
	<path class="st0" d="M127.752,2.1c0.285,0.375,0.428,0.854,0.428,1.433c0,0.565-0.141,1.038-0.42,1.418
		c-0.32,0.409-0.754,0.614-1.299,0.614c-0.619,0-1.072-0.305-1.357-0.914v2.295h-0.449V1.582h0.428v0.766
		c0.285-0.58,0.74-0.87,1.365-0.87C126.996,1.478,127.432,1.686,127.752,2.1z M125.412,2.355c-0.215,0.289-0.322,0.672-0.322,1.146
		v0.083c0,0.47,0.114,0.853,0.344,1.147c0.235,0.3,0.551,0.45,0.945,0.45c0.436,0,0.775-0.16,1.02-0.479
		c0.211-0.295,0.316-0.686,0.316-1.171s-0.104-0.874-0.309-1.17c-0.24-0.335-0.577-0.503-1.012-0.503
		C125.975,1.859,125.646,2.025,125.412,2.355z"/>
	<path class="st0" d="M132.071,2.1c0.285,0.375,0.428,0.854,0.428,1.433c0,0.565-0.14,1.038-0.42,1.418
		c-0.32,0.409-0.753,0.614-1.298,0.614c-0.619,0-1.072-0.305-1.357-0.914v2.295h-0.449V1.582h0.427v0.766
		c0.285-0.58,0.74-0.87,1.365-0.87C131.316,1.478,131.752,1.686,132.071,2.1z M129.731,2.355c-0.215,0.289-0.322,0.672-0.322,1.146
		v0.083c0,0.47,0.114,0.853,0.345,1.147c0.234,0.3,0.55,0.45,0.945,0.45c0.435,0,0.775-0.16,1.02-0.479
		c0.211-0.295,0.315-0.686,0.315-1.171s-0.103-0.874-0.308-1.17c-0.24-0.335-0.578-0.503-1.013-0.503
		C130.294,1.859,129.967,2.025,129.731,2.355z"/>
	<path class="st0" d="M133.437,0h0.45v5.46h-0.45V0z"/>
	<path class="st0" d="M134.539,1.582h0.495l1.267,3.232l1.254-3.232h0.494l-2.137,5.363h-0.488l0.652-1.583L134.539,1.582z"/>
	<path class="st0" d="M143.321,0.105v0.396h-0.652c-0.2,0-0.343,0.051-0.427,0.15c-0.091,0.096-0.136,0.255-0.136,0.48v0.449h1.163
		v0.391h-1.163V5.46h-0.45V1.973h-1.035V1.582h1.035V1.125c0-0.33,0.08-0.578,0.24-0.742c0.165-0.186,0.41-0.277,0.734-0.277
		H143.321z"/>
	<path class="st0" d="M146.898,2.092c0.315,0.381,0.473,0.858,0.473,1.434c0,0.564-0.157,1.039-0.473,1.425
		c-0.35,0.409-0.807,0.614-1.372,0.614s-1.022-0.205-1.372-0.614c-0.315-0.386-0.473-0.86-0.473-1.425
		c0-0.575,0.16-1.053,0.48-1.434c0.334-0.409,0.789-0.614,1.364-0.614C146.096,1.478,146.554,1.683,146.898,2.092z M144.484,2.377
		c-0.23,0.295-0.346,0.678-0.346,1.148c0,0.465,0.115,0.845,0.346,1.14c0.254,0.34,0.602,0.51,1.042,0.51
		c0.444,0,0.795-0.17,1.05-0.51c0.23-0.315,0.346-0.694,0.346-1.14c0-0.461-0.115-0.843-0.346-1.148c-0.25-0.34-0.6-0.51-1.05-0.51
		C145.082,1.867,144.734,2.037,144.484,2.377z"/>
	<path class="st0" d="M150.356,1.561v0.457c-0.185-0.055-0.383-0.082-0.593-0.082c-0.355,0-0.635,0.154-0.84,0.465
		c-0.205,0.279-0.308,0.617-0.308,1.012V5.46h-0.45V1.582h0.45v0.743c0.104-0.245,0.247-0.438,0.428-0.577
		c0.21-0.181,0.46-0.271,0.75-0.271C150.033,1.478,150.221,1.505,150.356,1.561z"/>
	<path class="st0" d="M156.229,2.67h-0.442c-0.05-0.27-0.157-0.467-0.323-0.592c-0.174-0.141-0.438-0.211-0.787-0.211
		c-0.289,0-0.521,0.058-0.697,0.173c-0.18,0.12-0.27,0.274-0.27,0.465c0,0.195,0.115,0.353,0.345,0.473
		c0.155,0.075,0.427,0.165,0.817,0.271c0.475,0.119,0.811,0.239,1.005,0.359c0.31,0.189,0.466,0.45,0.466,0.78
		c0,0.784-0.525,1.177-1.576,1.177c-0.994,0-1.537-0.441-1.627-1.327h0.442c0.045,0.341,0.165,0.585,0.36,0.735
		c0.18,0.135,0.449,0.202,0.81,0.202c0.75,0,1.125-0.255,1.125-0.765c0-0.235-0.128-0.415-0.382-0.54
		c-0.141-0.07-0.428-0.16-0.863-0.271c-0.455-0.119-0.77-0.234-0.945-0.345c-0.295-0.175-0.441-0.423-0.441-0.742
		c0-0.315,0.139-0.567,0.42-0.758c0.265-0.185,0.604-0.277,1.02-0.277C155.604,1.478,156.119,1.875,156.229,2.67z"/>
	<path class="st0" d="M159.828,1.814c0.295,0.226,0.473,0.57,0.533,1.035h-0.451c-0.049-0.324-0.18-0.57-0.389-0.734
		c-0.211-0.165-0.486-0.248-0.826-0.248c-0.41,0-0.734,0.158-0.975,0.473c-0.234,0.295-0.353,0.697-0.353,1.207
		c0,0.496,0.112,0.891,0.338,1.186c0.225,0.295,0.552,0.442,0.982,0.442c0.72,0,1.135-0.367,1.245-1.103h0.442
		c-0.075,0.49-0.261,0.863-0.556,1.117c-0.289,0.25-0.667,0.375-1.132,0.375c-0.575,0-1.021-0.194-1.335-0.584
		c-0.295-0.355-0.443-0.833-0.443-1.434c0-0.59,0.153-1.074,0.458-1.455c0.32-0.409,0.763-0.614,1.327-0.614
		C159.16,1.478,159.539,1.59,159.828,1.814z"/>
	<path class="st0" d="M161.096,0h0.458v2.287c0.135-0.265,0.315-0.467,0.54-0.607c0.22-0.135,0.465-0.202,0.734-0.202
		c0.445,0,0.791,0.13,1.035,0.39c0.25,0.266,0.375,0.638,0.375,1.117V5.46h-0.449V3.045c0-0.37-0.096-0.662-0.285-0.877
		c-0.195-0.2-0.463-0.301-0.803-0.301c-0.32,0-0.593,0.131-0.818,0.391c-0.219,0.25-0.329,0.57-0.329,0.959V5.46h-0.458V0z"/>
	<path class="st0" d="M168.251,2.092c0.315,0.381,0.473,0.858,0.473,1.434c0,0.564-0.157,1.039-0.473,1.425
		c-0.351,0.409-0.808,0.614-1.372,0.614c-0.565,0-1.023-0.205-1.373-0.614c-0.314-0.386-0.473-0.86-0.473-1.425
		c0-0.575,0.16-1.053,0.48-1.434c0.334-0.409,0.789-0.614,1.365-0.614C167.448,1.478,167.906,1.683,168.251,2.092z M165.836,2.377
		c-0.23,0.295-0.346,0.678-0.346,1.148c0,0.465,0.115,0.845,0.346,1.14c0.255,0.34,0.603,0.51,1.043,0.51
		c0.444,0,0.795-0.17,1.049-0.51c0.23-0.315,0.346-0.694,0.346-1.14c0-0.461-0.115-0.843-0.346-1.148
		c-0.25-0.34-0.6-0.51-1.049-0.51C166.434,1.867,166.086,2.037,165.836,2.377z"/>
	<path class="st0" d="M172.586,2.092c0.314,0.381,0.473,0.858,0.473,1.434c0,0.564-0.158,1.039-0.473,1.425
		c-0.35,0.409-0.808,0.614-1.373,0.614c-0.564,0-1.021-0.205-1.372-0.614c-0.315-0.386-0.473-0.86-0.473-1.425
		c0-0.575,0.16-1.053,0.48-1.434c0.335-0.409,0.79-0.614,1.364-0.614C171.783,1.478,172.24,1.683,172.586,2.092z M170.171,2.377
		c-0.229,0.295-0.345,0.678-0.345,1.148c0,0.465,0.115,0.845,0.345,1.14c0.255,0.34,0.603,0.51,1.042,0.51
		c0.445,0,0.795-0.17,1.051-0.51c0.229-0.315,0.345-0.694,0.345-1.14c0-0.461-0.115-0.843-0.345-1.148
		c-0.25-0.34-0.6-0.51-1.051-0.51C170.769,1.867,170.421,2.037,170.171,2.377z"/>
	<path class="st0" d="M173.996,0h0.449v5.46h-0.449V0z"/>
	<path class="st0" d="M178.031,1.582h0.449v2.371c0,0.404,0.086,0.707,0.256,0.906c0.18,0.211,0.457,0.315,0.832,0.315
		c0.295,0,0.558-0.114,0.787-0.345c0.226-0.225,0.354-0.522,0.383-0.893V1.582h0.45V5.46h-0.45V4.808
		c-0.3,0.505-0.73,0.757-1.289,0.757c-0.945,0-1.418-0.529-1.418-1.59V1.582z"/>
	<path class="st0" d="M184.998,2.67h-0.441c-0.051-0.27-0.158-0.467-0.323-0.592c-0.175-0.141-0.438-0.211-0.787-0.211
		c-0.29,0-0.522,0.058-0.698,0.173c-0.18,0.12-0.27,0.274-0.27,0.465c0,0.195,0.115,0.353,0.346,0.473
		c0.154,0.075,0.427,0.165,0.816,0.271c0.476,0.119,0.811,0.239,1.006,0.359c0.31,0.189,0.465,0.45,0.465,0.78
		c0,0.784-0.525,1.177-1.575,1.177c-0.995,0-1.538-0.441-1.628-1.327h0.443c0.045,0.341,0.164,0.585,0.359,0.735
		c0.18,0.135,0.45,0.202,0.811,0.202c0.75,0,1.125-0.255,1.125-0.765c0-0.235-0.128-0.415-0.383-0.54
		c-0.141-0.07-0.428-0.16-0.862-0.271c-0.455-0.119-0.771-0.234-0.945-0.345c-0.295-0.175-0.442-0.423-0.442-0.742
		c0-0.315,0.14-0.567,0.42-0.758c0.266-0.185,0.605-0.277,1.02-0.277C184.373,1.478,184.889,1.875,184.998,2.67z"/>
	<path class="st0" d="M188.778,2.1c0.274,0.371,0.423,0.888,0.442,1.553h-3.15c0.025,0.475,0.152,0.848,0.383,1.117
		c0.24,0.271,0.561,0.405,0.961,0.405c0.344,0,0.629-0.093,0.854-0.277c0.18-0.155,0.317-0.382,0.412-0.683h0.458
		c-0.09,0.375-0.263,0.683-0.518,0.923c-0.315,0.284-0.718,0.427-1.207,0.427c-0.546,0-0.98-0.185-1.306-0.555
		c-0.335-0.369-0.503-0.867-0.503-1.492c0-0.57,0.16-1.047,0.48-1.433c0.33-0.405,0.768-0.607,1.313-0.607
		C188.014,1.478,188.473,1.686,188.778,2.1z M186.483,2.266c-0.235,0.265-0.37,0.604-0.405,1.02h2.67
		c-0.074-0.945-0.521-1.418-1.342-1.418C187.021,1.867,186.713,2,186.483,2.266z"/>
	<path class="st0" d="M190.871,5.332c0,0.59-0.25,1.023-0.75,1.298l-0.166-0.263c0.355-0.234,0.549-0.539,0.578-0.914l-0.112,0.007
		c-0.11,0-0.202-0.032-0.278-0.098c-0.069-0.065-0.104-0.155-0.104-0.271c0-0.124,0.032-0.217,0.098-0.277
		c0.069-0.069,0.163-0.104,0.277-0.104C190.719,4.71,190.871,4.918,190.871,5.332z"/>
	<path class="st0" d="M197.223,1.92c0.23,0.255,0.346,0.603,0.346,1.043V5.46h-0.428V4.717c-0.16,0.23-0.369,0.424-0.63,0.578
		c-0.305,0.18-0.643,0.27-1.013,0.27c-0.38,0-0.688-0.098-0.922-0.292c-0.235-0.2-0.354-0.468-0.354-0.803
		c0-0.495,0.203-0.854,0.608-1.079c0.325-0.186,0.757-0.278,1.298-0.278l0.989-0.007V2.963c0-0.735-0.375-1.104-1.125-1.104
		c-0.345,0-0.614,0.073-0.81,0.219c-0.221,0.145-0.353,0.369-0.398,0.674h-0.441c0.06-0.435,0.242-0.76,0.547-0.975
		c0.28-0.199,0.655-0.3,1.125-0.3C196.561,1.478,196.963,1.625,197.223,1.92z M197.118,3.473L196.15,3.48
		c-0.979,0.004-1.47,0.332-1.47,0.982c0,0.215,0.083,0.39,0.247,0.524c0.16,0.136,0.381,0.202,0.66,0.202
		c0.405,0,0.766-0.135,1.08-0.404c0.301-0.266,0.45-0.553,0.45-0.863V3.473z"/>
	<path class="st0" d="M201.664,3.075V5.46h-0.451V3.105c0-0.826-0.367-1.238-1.102-1.238c-0.311,0-0.57,0.113-0.78,0.338
		c-0.22,0.22-0.343,0.525-0.368,0.915v2.34h-0.449V1.582h0.449V2.22c0.136-0.229,0.311-0.412,0.525-0.548
		c0.211-0.129,0.455-0.194,0.735-0.194C201.184,1.478,201.664,2.01,201.664,3.075z"/>
	<path class="st0" d="M205.533,0h0.45v5.46h-0.428V4.695c-0.271,0.58-0.723,0.869-1.357,0.869c-0.556,0-0.993-0.205-1.313-0.614
		c-0.285-0.375-0.428-0.853-0.428-1.433c0-0.57,0.143-1.043,0.428-1.418c0.31-0.414,0.739-0.622,1.29-0.622
		c0.62,0,1.072,0.308,1.357,0.923V0z M203.238,2.355c-0.215,0.279-0.322,0.667-0.322,1.162c0,0.484,0.104,0.875,0.314,1.17
		c0.235,0.33,0.572,0.495,1.013,0.495c0.42,0,0.747-0.16,0.982-0.479c0.215-0.301,0.323-0.676,0.323-1.125V3.487
		c0-0.47-0.115-0.857-0.346-1.162c-0.234-0.31-0.55-0.466-0.945-0.466C203.818,1.859,203.479,2.025,203.238,2.355z"/>
	<path class="st0" d="M212.216,2.272c0.135-0.26,0.308-0.458,0.517-0.593c0.195-0.135,0.431-0.202,0.705-0.202
		c0.41,0,0.736,0.128,0.976,0.382c0.235,0.261,0.353,0.615,0.353,1.065V5.46h-0.45V2.984c0-0.369-0.075-0.645-0.225-0.824
		c-0.165-0.195-0.423-0.293-0.772-0.293c-0.285,0-0.521,0.107-0.705,0.322c-0.19,0.205-0.285,0.473-0.285,0.803V5.46h-0.457V2.984
		c0-0.744-0.322-1.117-0.968-1.117c-0.296,0-0.538,0.117-0.728,0.353c-0.2,0.23-0.301,0.515-0.301,0.855V5.46h-0.449V1.582h0.449
		v0.586c0.275-0.461,0.65-0.69,1.125-0.69C211.615,1.478,212.021,1.742,212.216,2.272z"/>
	<path class="st0" d="M218.561,1.92c0.23,0.255,0.346,0.603,0.346,1.043V5.46h-0.428V4.717c-0.16,0.23-0.37,0.424-0.631,0.578
		c-0.305,0.18-0.643,0.27-1.012,0.27c-0.381,0-0.688-0.098-0.923-0.292c-0.235-0.2-0.353-0.468-0.353-0.803
		c0-0.495,0.203-0.854,0.607-1.079c0.325-0.186,0.758-0.278,1.298-0.278l0.989-0.007V2.963c0-0.735-0.375-1.104-1.125-1.104
		c-0.344,0-0.614,0.073-0.809,0.219c-0.221,0.145-0.354,0.369-0.398,0.674h-0.442c0.06-0.435,0.243-0.76,0.548-0.975
		c0.279-0.199,0.654-0.3,1.125-0.3C217.898,1.478,218.301,1.625,218.561,1.92z M218.455,3.473l-0.967,0.008
		c-0.98,0.004-1.471,0.332-1.471,0.982c0,0.215,0.083,0.39,0.248,0.524c0.16,0.136,0.38,0.202,0.66,0.202
		c0.404,0,0.766-0.135,1.08-0.404c0.3-0.266,0.449-0.553,0.449-0.863V3.473z"/>
	<path class="st0" d="M219.416,1.582h0.494l1.268,3.232l1.253-3.232h0.495l-2.138,5.363h-0.487l0.652-1.583L219.416,1.582z"/>
	<path class="st0" d="M229.083,3.075V5.46h-0.45V3.105c0-0.826-0.367-1.238-1.103-1.238c-0.31,0-0.569,0.113-0.78,0.338
		c-0.22,0.22-0.342,0.525-0.367,0.915v2.34h-0.449V1.582h0.449V2.22c0.135-0.229,0.311-0.412,0.525-0.548
		c0.21-0.129,0.455-0.194,0.734-0.194C228.604,1.478,229.083,2.01,229.083,3.075z"/>
	<path class="st0" d="M233.096,2.092c0.314,0.381,0.473,0.858,0.473,1.434c0,0.564-0.158,1.039-0.473,1.425
		c-0.351,0.409-0.809,0.614-1.373,0.614S230.7,5.359,230.35,4.95c-0.314-0.386-0.473-0.86-0.473-1.425
		c0-0.575,0.16-1.053,0.48-1.434c0.335-0.409,0.79-0.614,1.365-0.614C232.293,1.478,232.75,1.683,233.096,2.092z M230.68,2.377
		c-0.229,0.295-0.345,0.678-0.345,1.148c0,0.465,0.115,0.845,0.345,1.14c0.256,0.34,0.604,0.51,1.043,0.51
		c0.445,0,0.795-0.17,1.05-0.51c0.229-0.315,0.345-0.694,0.345-1.14c0-0.461-0.115-0.843-0.345-1.148c-0.25-0.34-0.6-0.51-1.05-0.51
		C231.277,1.867,230.93,2.037,230.68,2.377z"/>
	<path class="st0" d="M235.301,0.33v1.252h1.012v0.391h-1.012v2.625c0,0.17,0.029,0.293,0.09,0.367
		c0.06,0.07,0.172,0.105,0.337,0.105h0.487v0.39h-0.547c-0.301,0-0.516-0.077-0.646-0.232c-0.114-0.13-0.173-0.34-0.173-0.63V1.973
		h-0.824V1.582h0.824V0.518L235.301,0.33z"/>
	<path class="st0" d="M239.492,0h0.45v2.4c0.285-0.615,0.737-0.923,1.357-0.923c0.55,0,0.979,0.208,1.29,0.622
		c0.285,0.375,0.428,0.848,0.428,1.418c0,0.58-0.143,1.058-0.428,1.433c-0.32,0.409-0.755,0.614-1.305,0.614
		c-0.645,0-1.1-0.289-1.365-0.869V5.46h-0.428V0z M240.272,2.325c-0.229,0.295-0.345,0.683-0.345,1.162v0.091
		c0,0.459,0.107,0.834,0.322,1.125c0.23,0.319,0.558,0.479,0.982,0.479c0.436,0,0.772-0.165,1.013-0.495
		c0.21-0.295,0.315-0.686,0.315-1.17s-0.107-0.873-0.323-1.162c-0.239-0.33-0.58-0.496-1.021-0.496
		C240.817,1.859,240.502,2.016,240.272,2.325z"/>
	<path class="st0" d="M246.76,2.1c0.275,0.371,0.422,0.888,0.442,1.553h-3.149c0.024,0.475,0.152,0.848,0.383,1.117
		c0.239,0.271,0.559,0.405,0.959,0.405c0.346,0,0.631-0.093,0.855-0.277c0.18-0.155,0.317-0.382,0.412-0.683h0.457
		c-0.09,0.375-0.262,0.683-0.517,0.923c-0.315,0.284-0.718,0.427-1.208,0.427c-0.545,0-0.979-0.185-1.305-0.555
		c-0.335-0.369-0.502-0.867-0.502-1.492c0-0.57,0.159-1.047,0.479-1.433c0.33-0.405,0.768-0.607,1.313-0.607
		C245.994,1.478,246.455,1.686,246.76,2.1z M244.465,2.266c-0.234,0.265-0.37,0.604-0.404,1.02h2.67
		c-0.076-0.945-0.523-1.418-1.344-1.418C245.002,1.867,244.695,2,244.465,2.266z"/>
	<path class="st0" d="M250.42,1.582h0.449v2.371c0,0.404,0.086,0.707,0.256,0.906c0.18,0.211,0.457,0.315,0.832,0.315
		c0.295,0,0.558-0.114,0.787-0.345c0.226-0.225,0.354-0.522,0.383-0.893V1.582h0.45V5.46h-0.45V4.808
		c-0.3,0.505-0.73,0.757-1.289,0.757c-0.945,0-1.418-0.529-1.418-1.59V1.582z"/>
	<path class="st0" d="M257.387,2.67h-0.441c-0.051-0.27-0.158-0.467-0.323-0.592c-0.175-0.141-0.438-0.211-0.787-0.211
		c-0.29,0-0.522,0.058-0.698,0.173c-0.18,0.12-0.27,0.274-0.27,0.465c0,0.195,0.115,0.353,0.346,0.473
		c0.154,0.075,0.427,0.165,0.816,0.271c0.476,0.119,0.811,0.239,1.006,0.359c0.31,0.189,0.465,0.45,0.465,0.78
		c0,0.784-0.525,1.177-1.575,1.177c-0.995,0-1.538-0.441-1.628-1.327h0.443c0.045,0.341,0.164,0.585,0.359,0.735
		c0.18,0.135,0.45,0.202,0.811,0.202c0.75,0,1.125-0.255,1.125-0.765c0-0.235-0.128-0.415-0.383-0.54
		c-0.141-0.07-0.428-0.16-0.862-0.271c-0.455-0.119-0.771-0.234-0.945-0.345c-0.295-0.175-0.442-0.423-0.442-0.742
		c0-0.315,0.14-0.567,0.42-0.758c0.266-0.185,0.605-0.277,1.02-0.277C256.762,1.478,257.277,1.875,257.387,2.67z"/>
	<path class="st0" d="M261.167,2.1c0.274,0.371,0.423,0.888,0.442,1.553h-3.15c0.025,0.475,0.152,0.848,0.383,1.117
		c0.24,0.271,0.561,0.405,0.961,0.405c0.344,0,0.629-0.093,0.854-0.277c0.18-0.155,0.317-0.382,0.412-0.683h0.458
		c-0.09,0.375-0.263,0.683-0.518,0.923c-0.315,0.284-0.718,0.427-1.207,0.427c-0.546,0-0.98-0.185-1.306-0.555
		c-0.335-0.369-0.503-0.867-0.503-1.492c0-0.57,0.16-1.047,0.48-1.433c0.33-0.405,0.768-0.607,1.313-0.607
		C260.402,1.478,260.861,1.686,261.167,2.1z M258.872,2.266c-0.235,0.265-0.37,0.604-0.405,1.02h2.67
		c-0.074-0.945-0.521-1.418-1.342-1.418C259.41,1.867,259.102,2,258.872,2.266z"/>
	<path class="st0" d="M265.254,0h0.451v5.46h-0.428V4.695c-0.271,0.58-0.723,0.869-1.357,0.869c-0.556,0-0.993-0.205-1.313-0.614
		c-0.285-0.375-0.428-0.853-0.428-1.433c0-0.57,0.143-1.043,0.428-1.418c0.31-0.414,0.739-0.622,1.289-0.622
		c0.621,0,1.072,0.308,1.357,0.923V0z M262.959,2.355c-0.215,0.279-0.322,0.667-0.322,1.162c0,0.484,0.105,0.875,0.315,1.17
		c0.235,0.33,0.572,0.495,1.013,0.495c0.42,0,0.747-0.16,0.982-0.479c0.215-0.301,0.322-0.676,0.322-1.125V3.487
		c0-0.47-0.115-0.857-0.346-1.162c-0.234-0.31-0.549-0.466-0.944-0.466C263.539,1.859,263.199,2.025,262.959,2.355z"/>
	<path class="st0" d="M271.412,0.105v0.396h-0.652c-0.201,0-0.343,0.051-0.428,0.15c-0.09,0.096-0.135,0.255-0.135,0.48v0.449h1.162
		v0.391h-1.162V5.46h-0.451V1.973h-1.034V1.582h1.034V1.125c0-0.33,0.08-0.578,0.24-0.742c0.166-0.186,0.41-0.277,0.735-0.277
		H271.412z"/>
	<path class="st0" d="M274.989,2.092c0.315,0.381,0.473,0.858,0.473,1.434c0,0.564-0.157,1.039-0.473,1.425
		c-0.351,0.409-0.808,0.614-1.372,0.614c-0.565,0-1.023-0.205-1.373-0.614c-0.314-0.386-0.473-0.86-0.473-1.425
		c0-0.575,0.16-1.053,0.48-1.434c0.334-0.409,0.789-0.614,1.365-0.614C274.187,1.478,274.645,1.683,274.989,2.092z M272.574,2.377
		c-0.23,0.295-0.346,0.678-0.346,1.148c0,0.465,0.115,0.845,0.346,1.14c0.255,0.34,0.603,0.51,1.043,0.51
		c0.444,0,0.795-0.17,1.049-0.51c0.23-0.315,0.346-0.694,0.346-1.14c0-0.461-0.115-0.843-0.346-1.148
		c-0.25-0.34-0.6-0.51-1.049-0.51C273.172,1.867,272.824,2.037,272.574,2.377z"/>
	<path class="st0" d="M278.447,1.561v0.457c-0.186-0.055-0.383-0.082-0.594-0.082c-0.354,0-0.635,0.154-0.84,0.465
		c-0.205,0.279-0.307,0.617-0.307,1.012V5.46h-0.45V1.582h0.45v0.743c0.104-0.245,0.247-0.438,0.428-0.577
		c0.209-0.181,0.459-0.271,0.75-0.271C278.124,1.478,278.312,1.505,278.447,1.561z"/>
	<path class="st0" d="M284.304,1.92c0.229,0.255,0.345,0.603,0.345,1.043V5.46h-0.427V4.717c-0.16,0.23-0.37,0.424-0.63,0.578
		c-0.305,0.18-0.643,0.27-1.013,0.27c-0.38,0-0.688-0.098-0.923-0.292c-0.234-0.2-0.353-0.468-0.353-0.803
		c0-0.495,0.202-0.854,0.608-1.079c0.324-0.186,0.757-0.278,1.297-0.278l0.99-0.007V2.963c0-0.735-0.375-1.104-1.125-1.104
		c-0.346,0-0.615,0.073-0.811,0.219c-0.22,0.145-0.352,0.369-0.397,0.674h-0.442c0.061-0.435,0.242-0.76,0.548-0.975
		c0.28-0.199,0.655-0.3,1.125-0.3C283.642,1.478,284.044,1.625,284.304,1.92z M284.199,3.473l-0.968,0.008
		c-0.979,0.004-1.47,0.332-1.47,0.982c0,0.215,0.082,0.39,0.247,0.524c0.16,0.136,0.38,0.202,0.66,0.202
		c0.405,0,0.765-0.135,1.08-0.404c0.3-0.266,0.45-0.553,0.45-0.863V3.473z"/>
	<path class="st0" d="M288.744,3.075V5.46h-0.451V3.105c0-0.826-0.367-1.238-1.102-1.238c-0.311,0-0.57,0.113-0.78,0.338
		c-0.22,0.22-0.343,0.525-0.368,0.915v2.34h-0.449V1.582h0.449V2.22c0.136-0.229,0.311-0.412,0.525-0.548
		c0.211-0.129,0.455-0.194,0.735-0.194C288.264,1.478,288.744,2.01,288.744,3.075z"/>
	<path class="st0" d="M289.254,1.582h0.494l1.268,3.232l1.253-3.232h0.495l-2.138,5.363h-0.487l0.652-1.583L289.254,1.582z"/>
	<path class="st0" d="M298.539,1.814c0.295,0.226,0.472,0.57,0.531,1.035h-0.449c-0.051-0.324-0.18-0.57-0.391-0.734
		c-0.209-0.165-0.484-0.248-0.824-0.248c-0.41,0-0.735,0.158-0.976,0.473c-0.235,0.295-0.353,0.697-0.353,1.207
		c0,0.496,0.113,0.891,0.338,1.186s0.553,0.442,0.982,0.442c0.72,0,1.135-0.367,1.245-1.103h0.442
		c-0.075,0.49-0.26,0.863-0.555,1.117c-0.291,0.25-0.668,0.375-1.133,0.375c-0.575,0-1.02-0.194-1.335-0.584
		c-0.296-0.355-0.442-0.833-0.442-1.434c0-0.59,0.152-1.074,0.457-1.455c0.32-0.409,0.763-0.614,1.328-0.614
		C297.871,1.478,298.248,1.59,298.539,1.814z"/>
	<path class="st0" d="M302.873,2.092c0.315,0.381,0.473,0.858,0.473,1.434c0,0.564-0.157,1.039-0.473,1.425
		c-0.35,0.409-0.807,0.614-1.372,0.614s-1.022-0.205-1.372-0.614c-0.315-0.386-0.473-0.86-0.473-1.425
		c0-0.575,0.16-1.053,0.48-1.434c0.334-0.409,0.789-0.614,1.364-0.614C302.07,1.478,302.528,1.683,302.873,2.092z M300.459,2.377
		c-0.23,0.295-0.346,0.678-0.346,1.148c0,0.465,0.115,0.845,0.346,1.14c0.254,0.34,0.602,0.51,1.042,0.51
		c0.444,0,0.795-0.17,1.05-0.51c0.23-0.315,0.346-0.694,0.346-1.14c0-0.461-0.115-0.843-0.346-1.148c-0.25-0.34-0.6-0.51-1.05-0.51
		C301.057,1.867,300.709,2.037,300.459,2.377z"/>
	<path class="st0" d="M306.932,2.272c0.135-0.26,0.307-0.458,0.517-0.593c0.195-0.135,0.431-0.202,0.705-0.202
		c0.41,0,0.735,0.128,0.976,0.382c0.234,0.261,0.352,0.615,0.352,1.065V5.46h-0.449V2.984c0-0.369-0.075-0.645-0.225-0.824
		c-0.166-0.195-0.424-0.293-0.773-0.293c-0.285,0-0.52,0.107-0.705,0.322c-0.189,0.205-0.285,0.473-0.285,0.803V5.46h-0.457V2.984
		c0-0.744-0.322-1.117-0.967-1.117c-0.296,0-0.538,0.117-0.729,0.353c-0.199,0.23-0.3,0.515-0.3,0.855V5.46h-0.45V1.582h0.45v0.586
		c0.274-0.461,0.649-0.69,1.125-0.69C306.331,1.478,306.736,1.742,306.932,2.272z"/>
	<path class="st0" d="M313.217,2.272c0.135-0.26,0.307-0.458,0.517-0.593c0.195-0.135,0.431-0.202,0.705-0.202
		c0.41,0,0.735,0.128,0.976,0.382c0.234,0.261,0.352,0.615,0.352,1.065V5.46h-0.449V2.984c0-0.369-0.075-0.645-0.225-0.824
		c-0.166-0.195-0.424-0.293-0.773-0.293c-0.285,0-0.52,0.107-0.705,0.322c-0.189,0.205-0.285,0.473-0.285,0.803V5.46h-0.457V2.984
		c0-0.744-0.322-1.117-0.967-1.117c-0.296,0-0.538,0.117-0.729,0.353c-0.199,0.23-0.3,0.515-0.3,0.855V5.46h-0.45V1.582h0.45v0.586
		c0.274-0.461,0.649-0.69,1.125-0.69C312.616,1.478,313.021,1.742,313.217,2.272z"/>
	<path class="st0" d="M319.658,2.1c0.275,0.371,0.423,0.888,0.443,1.553h-3.15c0.025,0.475,0.152,0.848,0.383,1.117
		c0.24,0.271,0.56,0.405,0.96,0.405c0.345,0,0.63-0.093,0.854-0.277c0.18-0.155,0.318-0.382,0.412-0.683h0.458
		c-0.09,0.375-0.263,0.683-0.517,0.923c-0.316,0.284-0.719,0.427-1.208,0.427c-0.546,0-0.979-0.185-1.306-0.555
		c-0.334-0.369-0.502-0.867-0.502-1.492c0-0.57,0.16-1.047,0.48-1.433c0.33-0.405,0.768-0.607,1.313-0.607
		C318.894,1.478,319.354,1.686,319.658,2.1z M317.363,2.266c-0.234,0.265-0.369,0.604-0.404,1.02h2.67
		c-0.075-0.945-0.522-1.418-1.343-1.418C317.901,1.867,317.594,2,317.363,2.266z"/>
	<path class="st0" d="M323.012,1.561v0.457c-0.186-0.055-0.383-0.082-0.594-0.082c-0.354,0-0.635,0.154-0.84,0.465
		c-0.205,0.279-0.307,0.617-0.307,1.012V5.46h-0.45V1.582h0.45v0.743c0.104-0.245,0.247-0.438,0.428-0.577
		c0.209-0.181,0.459-0.271,0.75-0.271C322.688,1.478,322.876,1.505,323.012,1.561z"/>
	<path class="st0" d="M326.289,1.814c0.295,0.226,0.472,0.57,0.531,1.035h-0.449c-0.051-0.324-0.18-0.57-0.391-0.734
		c-0.209-0.165-0.484-0.248-0.824-0.248c-0.41,0-0.735,0.158-0.976,0.473c-0.235,0.295-0.353,0.697-0.353,1.207
		c0,0.496,0.113,0.891,0.338,1.186s0.553,0.442,0.982,0.442c0.72,0,1.135-0.367,1.245-1.103h0.442
		c-0.075,0.49-0.26,0.863-0.555,1.117c-0.291,0.25-0.668,0.375-1.133,0.375c-0.575,0-1.02-0.194-1.335-0.584
		c-0.296-0.355-0.442-0.833-0.442-1.434c0-0.59,0.152-1.074,0.457-1.455c0.32-0.409,0.763-0.614,1.328-0.614
		C325.621,1.478,325.998,1.59,326.289,1.814z"/>
	<path class="st0" d="M328.275,0.3c0.076,0.06,0.113,0.147,0.113,0.263c0,0.1-0.04,0.189-0.12,0.27
		c-0.08,0.07-0.167,0.105-0.263,0.105c-0.109,0-0.199-0.035-0.27-0.105c-0.075-0.074-0.113-0.164-0.113-0.27
		c0-0.115,0.038-0.203,0.113-0.263c0.07-0.075,0.16-0.112,0.27-0.112C328.111,0.188,328.201,0.225,328.275,0.3z M327.781,1.582
		h0.449V5.46h-0.449V1.582z"/>
	<path class="st0" d="M332.25,1.92c0.23,0.255,0.346,0.603,0.346,1.043V5.46h-0.428V4.717c-0.16,0.23-0.369,0.424-0.63,0.578
		c-0.305,0.18-0.643,0.27-1.013,0.27c-0.38,0-0.688-0.098-0.922-0.292c-0.235-0.2-0.354-0.468-0.354-0.803
		c0-0.495,0.203-0.854,0.608-1.079c0.325-0.186,0.757-0.278,1.298-0.278l0.989-0.007V2.963c0-0.735-0.375-1.104-1.125-1.104
		c-0.345,0-0.614,0.073-0.81,0.219c-0.221,0.145-0.353,0.369-0.398,0.674h-0.441c0.06-0.435,0.242-0.76,0.547-0.975
		c0.28-0.199,0.655-0.3,1.125-0.3C331.588,1.478,331.99,1.625,332.25,1.92z M332.146,3.473l-0.968,0.008
		c-0.979,0.004-1.47,0.332-1.47,0.982c0,0.215,0.083,0.39,0.247,0.524c0.16,0.136,0.381,0.202,0.66,0.202
		c0.405,0,0.766-0.135,1.08-0.404c0.301-0.266,0.45-0.553,0.45-0.863V3.473z"/>
	<path class="st0" d="M333.684,0h0.449v5.46h-0.449V0z"/>
	<path class="st0" d="M340.816,2.1c0.285,0.375,0.428,0.854,0.428,1.433c0,0.565-0.141,1.038-0.42,1.418
		c-0.32,0.409-0.754,0.614-1.299,0.614c-0.619,0-1.072-0.305-1.357-0.914v2.295h-0.449V1.582h0.428v0.766
		c0.285-0.58,0.74-0.87,1.365-0.87C340.061,1.478,340.496,1.686,340.816,2.1z M338.477,2.355c-0.215,0.289-0.322,0.672-0.322,1.146
		v0.083c0,0.47,0.114,0.853,0.344,1.147c0.235,0.3,0.551,0.45,0.945,0.45c0.436,0,0.775-0.16,1.02-0.479
		c0.211-0.295,0.316-0.686,0.316-1.171s-0.104-0.874-0.309-1.17c-0.24-0.335-0.577-0.503-1.012-0.503
		C339.039,1.859,338.711,2.025,338.477,2.355z"/>
	<path class="st0" d="M342.039,1.582h0.449v2.371c0,0.404,0.085,0.707,0.256,0.906c0.18,0.211,0.457,0.315,0.832,0.315
		c0.295,0,0.557-0.114,0.787-0.345c0.225-0.225,0.353-0.522,0.383-0.893V1.582h0.449V5.46h-0.449V4.808
		c-0.301,0.505-0.73,0.757-1.29,0.757c-0.945,0-1.417-0.529-1.417-1.59V1.582z"/>
	<path class="st0" d="M348.331,1.561v0.457c-0.185-0.055-0.383-0.082-0.593-0.082c-0.355,0-0.635,0.154-0.84,0.465
		c-0.205,0.279-0.308,0.617-0.308,1.012V5.46h-0.45V1.582h0.45v0.743c0.104-0.245,0.247-0.438,0.428-0.577
		c0.21-0.181,0.46-0.271,0.75-0.271C348.008,1.478,348.195,1.505,348.331,1.561z"/>
	<path class="st0" d="M351.938,2.1c0.285,0.375,0.428,0.854,0.428,1.433c0,0.565-0.14,1.038-0.42,1.418
		c-0.32,0.409-0.752,0.614-1.297,0.614c-0.62,0-1.072-0.305-1.357-0.914v2.295h-0.45V1.582h0.427v0.766
		c0.285-0.58,0.74-0.87,1.365-0.87C351.184,1.478,351.618,1.686,351.938,2.1z M349.598,2.355c-0.215,0.289-0.322,0.672-0.322,1.146
		v0.083c0,0.47,0.115,0.853,0.346,1.147c0.234,0.3,0.549,0.45,0.944,0.45c0.435,0,0.775-0.16,1.021-0.479
		c0.21-0.295,0.314-0.686,0.314-1.171s-0.102-0.874-0.307-1.17c-0.24-0.335-0.578-0.503-1.014-0.503
		C350.16,1.859,349.833,2.025,349.598,2.355z"/>
	<path class="st0" d="M356.229,2.092c0.314,0.381,0.473,0.858,0.473,1.434c0,0.564-0.158,1.039-0.473,1.425
		c-0.351,0.409-0.809,0.614-1.373,0.614s-1.022-0.205-1.373-0.614c-0.314-0.386-0.473-0.86-0.473-1.425
		c0-0.575,0.16-1.053,0.48-1.434c0.335-0.409,0.79-0.614,1.365-0.614C355.426,1.478,355.883,1.683,356.229,2.092z M353.813,2.377
		c-0.229,0.295-0.345,0.678-0.345,1.148c0,0.465,0.115,0.845,0.345,1.14c0.256,0.34,0.604,0.51,1.043,0.51
		c0.445,0,0.795-0.17,1.05-0.51c0.229-0.315,0.345-0.694,0.345-1.14c0-0.461-0.115-0.843-0.345-1.148c-0.25-0.34-0.6-0.51-1.05-0.51
		C354.41,1.867,354.063,2.037,353.813,2.377z"/>
	<path class="st0" d="M360.36,2.67h-0.442c-0.051-0.27-0.158-0.467-0.322-0.592c-0.176-0.141-0.438-0.211-0.787-0.211
		c-0.291,0-0.523,0.058-0.698,0.173c-0.18,0.12-0.271,0.274-0.271,0.465c0,0.195,0.115,0.353,0.346,0.473
		c0.154,0.075,0.428,0.165,0.817,0.271c0.476,0.119,0.81,0.239,1.005,0.359c0.311,0.189,0.465,0.45,0.465,0.78
		c0,0.784-0.525,1.177-1.574,1.177c-0.996,0-1.538-0.441-1.628-1.327h0.442c0.045,0.341,0.165,0.585,0.359,0.735
		c0.181,0.135,0.451,0.202,0.811,0.202c0.75,0,1.125-0.255,1.125-0.765c0-0.235-0.127-0.415-0.383-0.54
		c-0.14-0.07-0.428-0.16-0.861-0.271c-0.455-0.119-0.771-0.234-0.945-0.345c-0.295-0.175-0.443-0.423-0.443-0.742
		c0-0.315,0.141-0.567,0.42-0.758c0.266-0.185,0.605-0.277,1.021-0.277C359.735,1.478,360.25,1.875,360.36,2.67z"/>
	<path class="st0" d="M364.141,2.1c0.274,0.371,0.422,0.888,0.441,1.553h-3.149c0.024,0.475,0.152,0.848,0.383,1.117
		c0.239,0.271,0.56,0.405,0.96,0.405c0.345,0,0.63-0.093,0.855-0.277c0.18-0.155,0.316-0.382,0.412-0.683h0.457
		c-0.09,0.375-0.262,0.683-0.518,0.923c-0.314,0.284-0.717,0.427-1.207,0.427c-0.545,0-0.98-0.185-1.305-0.555
		c-0.336-0.369-0.503-0.867-0.503-1.492c0-0.57,0.159-1.047,0.479-1.433c0.33-0.405,0.768-0.607,1.313-0.607
		C363.375,1.478,363.835,1.686,364.141,2.1z M361.846,2.266c-0.235,0.265-0.371,0.604-0.405,1.02h2.67
		c-0.075-0.945-0.522-1.418-1.343-1.418C362.383,1.867,362.075,2,361.846,2.266z"/>
	<path class="st0" d="M368.168,2.67h-0.443c-0.05-0.27-0.157-0.467-0.322-0.592c-0.175-0.141-0.438-0.211-0.787-0.211
		c-0.29,0-0.522,0.058-0.697,0.173c-0.18,0.12-0.271,0.274-0.271,0.465c0,0.195,0.115,0.353,0.345,0.473
		c0.155,0.075,0.428,0.165,0.818,0.271c0.475,0.119,0.81,0.239,1.004,0.359c0.311,0.189,0.466,0.45,0.466,0.78
		c0,0.784-0.525,1.177-1.575,1.177c-0.995,0-1.537-0.441-1.627-1.327h0.441c0.045,0.341,0.166,0.585,0.36,0.735
		c0.181,0.135,0.45,0.202,0.81,0.202c0.75,0,1.125-0.255,1.125-0.765c0-0.235-0.127-0.415-0.382-0.54
		c-0.14-0.07-0.428-0.16-0.862-0.271c-0.455-0.119-0.771-0.234-0.945-0.345c-0.295-0.175-0.442-0.423-0.442-0.742
		c0-0.315,0.14-0.567,0.42-0.758c0.265-0.185,0.604-0.277,1.021-0.277C367.543,1.478,368.058,1.875,368.168,2.67z"/>
	<path class="st0" d="M369.93,5.332c0,0.59-0.25,1.023-0.75,1.298l-0.165-0.263c0.354-0.234,0.548-0.539,0.577-0.914L369.48,5.46
		c-0.111,0-0.203-0.032-0.278-0.098c-0.069-0.065-0.104-0.155-0.104-0.271c0-0.124,0.032-0.217,0.098-0.277
		c0.069-0.069,0.162-0.104,0.277-0.104C369.777,4.71,369.93,4.918,369.93,5.332z"/>
	<path class="st0" d="M376.5,2.092c0.314,0.381,0.473,0.858,0.473,1.434c0,0.564-0.158,1.039-0.473,1.425
		c-0.35,0.409-0.808,0.614-1.373,0.614c-0.564,0-1.021-0.205-1.372-0.614c-0.315-0.386-0.473-0.86-0.473-1.425
		c0-0.575,0.16-1.053,0.48-1.434c0.335-0.409,0.79-0.614,1.364-0.614C375.697,1.478,376.154,1.683,376.5,2.092z M374.085,2.377
		c-0.229,0.295-0.345,0.678-0.345,1.148c0,0.465,0.115,0.845,0.345,1.14c0.255,0.34,0.603,0.51,1.042,0.51
		c0.445,0,0.795-0.17,1.051-0.51c0.229-0.315,0.345-0.694,0.345-1.14c0-0.461-0.115-0.843-0.345-1.148
		c-0.25-0.34-0.6-0.51-1.051-0.51C374.683,1.867,374.335,2.037,374.085,2.377z"/>
	<path class="st0" d="M378.705,0.33v1.252h1.012v0.391h-1.012v2.625c0,0.17,0.029,0.293,0.09,0.367
		c0.061,0.07,0.172,0.105,0.338,0.105h0.487v0.39h-0.548c-0.3,0-0.515-0.077-0.645-0.232c-0.115-0.13-0.173-0.34-0.173-0.63V1.973
		h-0.825V1.582h0.825V0.518L378.705,0.33z"/>
	<path class="st0" d="M380.4,0h0.457v2.287c0.135-0.265,0.314-0.467,0.54-0.607c0.22-0.135,0.465-0.202,0.735-0.202
		c0.444,0,0.789,0.13,1.035,0.39c0.249,0.266,0.375,0.638,0.375,1.117V5.46h-0.451V3.045c0-0.37-0.095-0.662-0.285-0.877
		c-0.194-0.2-0.462-0.301-0.802-0.301c-0.32,0-0.593,0.131-0.817,0.391c-0.221,0.25-0.33,0.57-0.33,0.959V5.46H380.4V0z"/>
	<path class="st0" d="M387.435,2.1c0.274,0.371,0.423,0.888,0.442,1.553h-3.15c0.025,0.475,0.152,0.848,0.383,1.117
		c0.24,0.271,0.561,0.405,0.961,0.405c0.344,0,0.629-0.093,0.854-0.277c0.18-0.155,0.317-0.382,0.412-0.683h0.458
		c-0.09,0.375-0.263,0.683-0.518,0.923c-0.315,0.284-0.718,0.427-1.207,0.427c-0.546,0-0.98-0.185-1.306-0.555
		c-0.335-0.369-0.503-0.867-0.503-1.492c0-0.57,0.16-1.047,0.48-1.433c0.33-0.405,0.768-0.607,1.313-0.607
		C386.67,1.478,387.129,1.686,387.435,2.1z M385.14,2.266c-0.235,0.265-0.37,0.604-0.405,1.02h2.67
		c-0.074-0.945-0.521-1.418-1.342-1.418C385.678,1.867,385.369,2,385.14,2.266z"/>
	<path class="st0" d="M390.787,1.561v0.457c-0.186-0.055-0.383-0.082-0.593-0.082c-0.354,0-0.635,0.154-0.84,0.465
		c-0.205,0.279-0.308,0.617-0.308,1.012V5.46h-0.449V1.582h0.449v0.743c0.105-0.245,0.248-0.438,0.428-0.577
		c0.21-0.181,0.46-0.271,0.75-0.271C390.465,1.478,390.652,1.505,390.787,1.561z"/>
	<path class="st0" d="M390.861,1.582h0.503l1.05,3.301l0.975-3.301h0.436l0.975,3.301l1.059-3.301h0.494l-1.327,3.878h-0.435
		l-0.976-3.292l-0.99,3.292h-0.427L390.861,1.582z"/>
	<path class="st0" d="M397.582,0.3c0.074,0.06,0.112,0.147,0.112,0.263c0,0.1-0.04,0.189-0.12,0.27
		c-0.08,0.07-0.168,0.105-0.263,0.105c-0.11,0-0.2-0.035-0.271-0.105c-0.074-0.074-0.111-0.164-0.111-0.27
		c0-0.115,0.037-0.203,0.111-0.263c0.07-0.075,0.16-0.112,0.271-0.112C397.416,0.188,397.507,0.225,397.582,0.3z M397.086,1.582
		h0.451V5.46h-0.451V1.582z"/>
	<path class="st0" d="M401.571,2.67h-0.442c-0.051-0.27-0.158-0.467-0.322-0.592c-0.176-0.141-0.438-0.211-0.787-0.211
		c-0.291,0-0.523,0.058-0.698,0.173c-0.18,0.12-0.271,0.274-0.271,0.465c0,0.195,0.115,0.353,0.346,0.473
		c0.154,0.075,0.428,0.165,0.817,0.271c0.476,0.119,0.81,0.239,1.005,0.359c0.311,0.189,0.465,0.45,0.465,0.78
		c0,0.784-0.525,1.177-1.574,1.177c-0.996,0-1.538-0.441-1.628-1.327h0.442c0.045,0.341,0.165,0.585,0.359,0.735
		c0.181,0.135,0.451,0.202,0.811,0.202c0.75,0,1.125-0.255,1.125-0.765c0-0.235-0.127-0.415-0.383-0.54
		c-0.14-0.07-0.428-0.16-0.861-0.271c-0.455-0.119-0.771-0.234-0.945-0.345c-0.295-0.175-0.443-0.423-0.443-0.742
		c0-0.315,0.141-0.567,0.42-0.758c0.266-0.185,0.605-0.277,1.021-0.277C400.946,1.478,401.461,1.875,401.571,2.67z"/>
	<path class="st0" d="M405.352,2.1c0.274,0.371,0.422,0.888,0.441,1.553h-3.149c0.024,0.475,0.152,0.848,0.383,1.117
		c0.239,0.271,0.56,0.405,0.96,0.405c0.345,0,0.63-0.093,0.855-0.277c0.18-0.155,0.316-0.382,0.412-0.683h0.457
		c-0.09,0.375-0.262,0.683-0.518,0.923c-0.314,0.284-0.717,0.427-1.207,0.427c-0.545,0-0.98-0.185-1.305-0.555
		c-0.336-0.369-0.503-0.867-0.503-1.492c0-0.57,0.159-1.047,0.479-1.433c0.33-0.405,0.768-0.607,1.313-0.607
		C404.586,1.478,405.046,1.686,405.352,2.1z M403.057,2.266c-0.235,0.265-0.371,0.604-0.405,1.02h2.67
		c-0.075-0.945-0.522-1.418-1.343-1.418C403.594,1.867,403.286,2,403.057,2.266z"/>
	<path class="st0" d="M409.154,0h0.449v5.46h-0.449V0z"/>
	<path class="st0" d="M413.639,2.1c0.275,0.371,0.422,0.888,0.442,1.553h-3.149c0.024,0.475,0.152,0.848,0.383,1.117
		c0.239,0.271,0.559,0.405,0.959,0.405c0.346,0,0.631-0.093,0.855-0.277c0.18-0.155,0.317-0.382,0.412-0.683h0.457
		c-0.09,0.375-0.262,0.683-0.517,0.923c-0.315,0.284-0.718,0.427-1.208,0.427c-0.545,0-0.979-0.185-1.305-0.555
		c-0.335-0.369-0.502-0.867-0.502-1.492c0-0.57,0.159-1.047,0.479-1.433c0.33-0.405,0.768-0.607,1.313-0.607
		C412.873,1.478,413.334,1.686,413.639,2.1z M411.344,2.266c-0.234,0.265-0.37,0.604-0.404,1.02h2.67
		c-0.076-0.945-0.523-1.418-1.344-1.418C411.881,1.867,411.574,2,411.344,2.266z"/>
	<path class="st0" d="M417.786,2.362v-0.78h0.45v3.593c0,1.25-0.58,1.875-1.74,1.875c-0.505,0-0.897-0.11-1.178-0.33
		c-0.265-0.21-0.43-0.521-0.494-0.93h0.449c0.055,0.29,0.176,0.505,0.36,0.646c0.2,0.159,0.487,0.239,0.862,0.239
		c0.859,0,1.29-0.482,1.29-1.447V4.484c-0.285,0.591-0.747,0.886-1.388,0.886c-0.54,0-0.973-0.192-1.297-0.577
		c-0.301-0.36-0.451-0.815-0.451-1.365c0-0.551,0.15-1.006,0.451-1.365c0.324-0.391,0.757-0.585,1.297-0.585
		C417.039,1.478,417.501,1.772,417.786,2.362z M415.453,2.325c-0.229,0.28-0.345,0.647-0.345,1.103c0,0.439,0.108,0.8,0.323,1.08
		c0.234,0.314,0.572,0.473,1.012,0.473c0.43,0,0.766-0.15,1.006-0.451c0.225-0.284,0.337-0.652,0.337-1.102
		c0-0.45-0.112-0.818-0.337-1.103c-0.236-0.31-0.568-0.466-0.998-0.466S415.688,2.016,415.453,2.325z"/>
	<path class="st0" d="M422.031,1.92c0.229,0.255,0.345,0.603,0.345,1.043V5.46h-0.427V4.717c-0.16,0.23-0.371,0.424-0.631,0.578
		c-0.305,0.18-0.643,0.27-1.012,0.27c-0.381,0-0.688-0.098-0.924-0.292c-0.234-0.2-0.352-0.468-0.352-0.803
		c0-0.495,0.202-0.854,0.607-1.079c0.324-0.186,0.758-0.278,1.297-0.278l0.99-0.007V2.963c0-0.735-0.375-1.104-1.125-1.104
		c-0.345,0-0.615,0.073-0.81,0.219c-0.22,0.145-0.353,0.369-0.397,0.674h-0.443c0.061-0.435,0.243-0.76,0.549-0.975
		c0.279-0.199,0.654-0.3,1.125-0.3C421.369,1.478,421.771,1.625,422.031,1.92z M421.926,3.473l-0.967,0.008
		c-0.98,0.004-1.471,0.332-1.471,0.982c0,0.215,0.082,0.39,0.248,0.524c0.16,0.136,0.379,0.202,0.66,0.202
		c0.404,0,0.765-0.135,1.08-0.404c0.299-0.266,0.449-0.553,0.449-0.863V3.473z"/>
	<path class="st0" d="M423.464,0h0.45v5.46h-0.45V0z"/>
	<path class="st0" d="M427.642,0h0.45v5.46h-0.45V0z"/>
	<path class="st0" d="M429.898,0.3c0.076,0.06,0.113,0.147,0.113,0.263c0,0.1-0.04,0.189-0.12,0.27
		c-0.08,0.07-0.167,0.105-0.263,0.105c-0.109,0-0.199-0.035-0.27-0.105c-0.075-0.074-0.113-0.164-0.113-0.27
		c0-0.115,0.038-0.203,0.113-0.263c0.07-0.075,0.16-0.112,0.27-0.112C429.734,0.188,429.824,0.225,429.898,0.3z M429.404,1.582
		h0.449V5.46h-0.449V1.582z"/>
	<path class="st0" d="M433.873,1.92c0.23,0.255,0.346,0.603,0.346,1.043V5.46h-0.428V4.717c-0.16,0.23-0.369,0.424-0.63,0.578
		c-0.305,0.18-0.643,0.27-1.013,0.27c-0.38,0-0.688-0.098-0.922-0.292c-0.235-0.2-0.354-0.468-0.354-0.803
		c0-0.495,0.203-0.854,0.608-1.079c0.325-0.186,0.757-0.278,1.298-0.278l0.989-0.007V2.963c0-0.735-0.375-1.104-1.125-1.104
		c-0.345,0-0.614,0.073-0.81,0.219c-0.221,0.145-0.353,0.369-0.398,0.674h-0.441c0.06-0.435,0.242-0.76,0.547-0.975
		c0.28-0.199,0.655-0.3,1.125-0.3C433.211,1.478,433.613,1.625,433.873,1.92z M433.769,3.473l-0.968,0.008
		c-0.979,0.004-1.47,0.332-1.47,0.982c0,0.215,0.083,0.39,0.247,0.524c0.16,0.136,0.381,0.202,0.66,0.202
		c0.405,0,0.766-0.135,1.08-0.404c0.301-0.266,0.45-0.553,0.45-0.863V3.473z"/>
	<path class="st0" d="M435.164,0h0.449v2.4c0.285-0.615,0.738-0.923,1.357-0.923c0.551,0,0.98,0.208,1.291,0.622
		c0.285,0.375,0.428,0.848,0.428,1.418c0,0.58-0.143,1.058-0.428,1.433c-0.32,0.409-0.756,0.614-1.305,0.614
		c-0.646,0-1.101-0.289-1.365-0.869V5.46h-0.428V0z M435.943,2.325c-0.229,0.295-0.344,0.683-0.344,1.162v0.091
		c0,0.459,0.107,0.834,0.322,1.125c0.229,0.319,0.557,0.479,0.982,0.479c0.435,0,0.771-0.165,1.012-0.495
		c0.211-0.295,0.315-0.686,0.315-1.17s-0.107-0.873-0.323-1.162c-0.239-0.33-0.58-0.496-1.02-0.496
		C436.488,1.859,436.174,2.016,435.943,2.325z"/>
	<path class="st0" d="M440.203,0.3c0.076,0.06,0.113,0.147,0.113,0.263c0,0.1-0.04,0.189-0.12,0.27
		c-0.08,0.07-0.167,0.105-0.263,0.105c-0.109,0-0.199-0.035-0.27-0.105c-0.075-0.074-0.113-0.164-0.113-0.27
		c0-0.115,0.038-0.203,0.113-0.263c0.07-0.075,0.16-0.112,0.27-0.112C440.039,0.188,440.129,0.225,440.203,0.3z M439.709,1.582
		h0.449V5.46h-0.449V1.582z"/>
	<path class="st0" d="M441.471,0h0.45v5.46h-0.45V0z"/>
	<path class="st0" d="M443.729,0.3c0.075,0.06,0.113,0.147,0.113,0.263c0,0.1-0.041,0.189-0.121,0.27
		c-0.08,0.07-0.167,0.105-0.262,0.105c-0.11,0-0.2-0.035-0.271-0.105c-0.075-0.074-0.112-0.164-0.112-0.27
		c0-0.115,0.037-0.203,0.112-0.263c0.07-0.075,0.16-0.112,0.271-0.112C443.563,0.188,443.654,0.225,443.729,0.3z M443.233,1.582
		h0.45V5.46h-0.45V1.582z"/>
	<path class="st0" d="M445.791,0.33v1.252h1.012v0.391h-1.012v2.625c0,0.17,0.029,0.293,0.09,0.367
		c0.061,0.07,0.172,0.105,0.338,0.105h0.487v0.39h-0.548c-0.3,0-0.515-0.077-0.645-0.232c-0.115-0.13-0.173-0.34-0.173-0.63V1.973
		h-0.825V1.582h0.825V0.518L445.791,0.33z"/>
	<path class="st0" d="M447.051,1.582h0.495l1.267,3.232l1.254-3.232h0.494l-2.137,5.363h-0.488l0.652-1.583L447.051,1.582z"/>
	<path class="st0" d="M456.358,2.272c0.135-0.26,0.308-0.458,0.517-0.593c0.195-0.135,0.431-0.202,0.705-0.202
		c0.41,0,0.736,0.128,0.976,0.382c0.235,0.261,0.353,0.615,0.353,1.065V5.46h-0.45V2.984c0-0.369-0.075-0.645-0.225-0.824
		c-0.165-0.195-0.423-0.293-0.772-0.293c-0.285,0-0.521,0.107-0.705,0.322c-0.19,0.205-0.285,0.473-0.285,0.803V5.46h-0.457V2.984
		c0-0.744-0.322-1.117-0.968-1.117c-0.296,0-0.538,0.117-0.728,0.353c-0.2,0.23-0.301,0.515-0.301,0.855V5.46h-0.449V1.582h0.449
		v0.586c0.275-0.461,0.65-0.69,1.125-0.69C455.758,1.478,456.163,1.742,456.358,2.272z"/>
	<path class="st0" d="M459.854,1.582h0.449v2.371c0,0.404,0.086,0.707,0.256,0.906c0.18,0.211,0.457,0.315,0.832,0.315
		c0.295,0,0.558-0.114,0.787-0.345c0.226-0.225,0.354-0.522,0.383-0.893V1.582h0.45V5.46h-0.45V4.808
		c-0.3,0.505-0.73,0.757-1.289,0.757c-0.945,0-1.418-0.529-1.418-1.59V1.582z"/>
	<path class="st0" d="M466.82,2.67h-0.441c-0.051-0.27-0.158-0.467-0.323-0.592c-0.175-0.141-0.438-0.211-0.787-0.211
		c-0.29,0-0.522,0.058-0.698,0.173c-0.18,0.12-0.27,0.274-0.27,0.465c0,0.195,0.115,0.353,0.346,0.473
		c0.154,0.075,0.427,0.165,0.816,0.271c0.476,0.119,0.811,0.239,1.006,0.359c0.31,0.189,0.465,0.45,0.465,0.78
		c0,0.784-0.525,1.177-1.575,1.177c-0.995,0-1.538-0.441-1.628-1.327h0.443c0.045,0.341,0.164,0.585,0.359,0.735
		c0.18,0.135,0.45,0.202,0.811,0.202c0.75,0,1.125-0.255,1.125-0.765c0-0.235-0.128-0.415-0.383-0.54
		c-0.141-0.07-0.428-0.16-0.862-0.271c-0.455-0.119-0.771-0.234-0.945-0.345c-0.295-0.175-0.442-0.423-0.442-0.742
		c0-0.315,0.14-0.567,0.42-0.758c0.266-0.185,0.605-0.277,1.02-0.277C466.195,1.478,466.711,1.875,466.82,2.67z"/>
	<path class="st0" d="M468.591,0.33v1.252h1.013v0.391h-1.013v2.625c0,0.17,0.03,0.293,0.09,0.367
		c0.06,0.07,0.173,0.105,0.337,0.105h0.488v0.39h-0.548c-0.3,0-0.515-0.077-0.646-0.232c-0.114-0.13-0.172-0.34-0.172-0.63V1.973
		h-0.825V1.582h0.825V0.518L468.591,0.33z"/>
	<path class="st0" d="M472.783,0h0.449v2.4c0.285-0.615,0.738-0.923,1.357-0.923c0.551,0,0.98,0.208,1.291,0.622
		c0.285,0.375,0.428,0.848,0.428,1.418c0,0.58-0.143,1.058-0.428,1.433c-0.32,0.409-0.756,0.614-1.305,0.614
		c-0.646,0-1.101-0.289-1.365-0.869V5.46h-0.428V0z M473.563,2.325c-0.229,0.295-0.344,0.683-0.344,1.162v0.091
		c0,0.459,0.107,0.834,0.322,1.125c0.229,0.319,0.557,0.479,0.982,0.479c0.435,0,0.771-0.165,1.012-0.495
		c0.211-0.295,0.315-0.686,0.315-1.17s-0.107-0.873-0.323-1.162c-0.239-0.33-0.58-0.496-1.02-0.496
		C474.107,1.859,473.793,2.016,473.563,2.325z"/>
	<path class="st0" d="M480.051,2.1c0.274,0.371,0.422,0.888,0.441,1.553h-3.149c0.024,0.475,0.152,0.848,0.383,1.117
		c0.239,0.271,0.56,0.405,0.96,0.405c0.345,0,0.63-0.093,0.855-0.277c0.18-0.155,0.316-0.382,0.412-0.683h0.457
		c-0.09,0.375-0.262,0.683-0.518,0.923c-0.314,0.284-0.717,0.427-1.207,0.427c-0.545,0-0.98-0.185-1.305-0.555
		c-0.336-0.369-0.503-0.867-0.503-1.492c0-0.57,0.159-1.047,0.479-1.433c0.33-0.405,0.768-0.607,1.313-0.607
		C479.285,1.478,479.745,1.686,480.051,2.1z M477.756,2.266c-0.235,0.265-0.371,0.604-0.405,1.02h2.67
		c-0.075-0.945-0.522-1.418-1.343-1.418C478.293,1.867,477.985,2,477.756,2.266z"/>
	<path class="st0" d="M486.808,2.1c0.285,0.375,0.428,0.854,0.428,1.433c0,0.565-0.14,1.038-0.42,1.418
		c-0.32,0.409-0.753,0.614-1.298,0.614c-0.619,0-1.072-0.305-1.357-0.914v2.295h-0.449V1.582h0.427v0.766
		c0.285-0.58,0.74-0.87,1.365-0.87C486.053,1.478,486.488,1.686,486.808,2.1z M484.468,2.355c-0.215,0.289-0.322,0.672-0.322,1.146
		v0.083c0,0.47,0.114,0.853,0.345,1.147c0.234,0.3,0.55,0.45,0.945,0.45c0.435,0,0.775-0.16,1.02-0.479
		c0.211-0.295,0.315-0.686,0.315-1.171s-0.103-0.874-0.308-1.17c-0.24-0.335-0.578-0.503-1.013-0.503
		C485.03,1.859,484.703,2.025,484.468,2.355z"/>
	<path class="st0" d="M488.03,1.582h0.45v2.371c0,0.404,0.084,0.707,0.255,0.906c0.18,0.211,0.457,0.315,0.832,0.315
		c0.296,0,0.558-0.114,0.788-0.345c0.225-0.225,0.352-0.522,0.383-0.893V1.582h0.449V5.46h-0.449V4.808
		c-0.301,0.505-0.73,0.757-1.291,0.757c-0.945,0-1.417-0.529-1.417-1.59V1.582z"/>
	<path class="st0" d="M494.322,1.561v0.457c-0.185-0.055-0.383-0.082-0.592-0.082c-0.355,0-0.635,0.154-0.84,0.465
		c-0.205,0.279-0.309,0.617-0.309,1.012V5.46h-0.449V1.582h0.449v0.743c0.105-0.245,0.248-0.438,0.428-0.577
		c0.211-0.181,0.461-0.271,0.75-0.271C494,1.478,494.188,1.505,494.322,1.561z"/>
	<path class="st0" d="M497.697,2.67h-0.442c-0.05-0.27-0.157-0.467-0.323-0.592c-0.174-0.141-0.438-0.211-0.787-0.211
		c-0.289,0-0.521,0.058-0.697,0.173c-0.18,0.12-0.27,0.274-0.27,0.465c0,0.195,0.115,0.353,0.345,0.473
		c0.155,0.075,0.427,0.165,0.817,0.271c0.475,0.119,0.811,0.239,1.005,0.359c0.31,0.189,0.466,0.45,0.466,0.78
		c0,0.784-0.525,1.177-1.576,1.177c-0.994,0-1.537-0.441-1.627-1.327h0.442c0.045,0.341,0.165,0.585,0.36,0.735
		c0.18,0.135,0.449,0.202,0.81,0.202c0.75,0,1.125-0.255,1.125-0.765c0-0.235-0.128-0.415-0.382-0.54
		c-0.141-0.07-0.428-0.16-0.863-0.271c-0.455-0.119-0.77-0.234-0.945-0.345c-0.295-0.175-0.441-0.423-0.441-0.742
		c0-0.315,0.139-0.567,0.42-0.758c0.265-0.185,0.604-0.277,1.02-0.277C497.072,1.478,497.588,1.875,497.697,2.67z"/>
	<path class="st0" d="M498.529,1.582h0.45v2.371c0,0.404,0.085,0.707,0.255,0.906c0.18,0.211,0.457,0.315,0.832,0.315
		c0.296,0,0.559-0.114,0.788-0.345c0.226-0.225,0.353-0.522,0.383-0.893V1.582h0.45V5.46h-0.45V4.808
		c-0.3,0.505-0.73,0.757-1.29,0.757c-0.945,0-1.418-0.529-1.418-1.59V1.582z"/>
	<path class="st0" d="M505.58,2.1c0.274,0.371,0.422,0.888,0.441,1.553h-3.149c0.024,0.475,0.152,0.848,0.383,1.117
		c0.239,0.271,0.56,0.405,0.96,0.405c0.345,0,0.63-0.093,0.855-0.277c0.18-0.155,0.316-0.382,0.412-0.683h0.457
		c-0.09,0.375-0.262,0.683-0.518,0.923c-0.314,0.284-0.717,0.427-1.207,0.427c-0.545,0-0.98-0.185-1.305-0.555
		c-0.336-0.369-0.503-0.867-0.503-1.492c0-0.57,0.159-1.047,0.479-1.433c0.33-0.405,0.768-0.607,1.313-0.607
		C504.814,1.478,505.274,1.686,505.58,2.1z M503.285,2.266c-0.235,0.265-0.371,0.604-0.405,1.02h2.67
		c-0.075-0.945-0.522-1.418-1.343-1.418C503.822,1.867,503.515,2,503.285,2.266z"/>
	<path class="st0" d="M509.667,0h0.45v5.46h-0.428V4.695c-0.27,0.58-0.723,0.869-1.357,0.869c-0.555,0-0.992-0.205-1.313-0.614
		c-0.285-0.375-0.428-0.853-0.428-1.433c0-0.57,0.143-1.043,0.428-1.418c0.311-0.414,0.74-0.622,1.29-0.622
		c0.62,0,1.072,0.308,1.357,0.923V0z M507.372,2.355c-0.215,0.279-0.323,0.667-0.323,1.162c0,0.484,0.105,0.875,0.316,1.17
		c0.234,0.33,0.572,0.495,1.012,0.495c0.42,0,0.748-0.16,0.982-0.479c0.215-0.301,0.322-0.676,0.322-1.125V3.487
		c0-0.47-0.115-0.857-0.345-1.162c-0.235-0.31-0.55-0.466-0.944-0.466C507.952,1.859,507.611,2.025,507.372,2.355z"/>
	<path class="st0" d="M511.826,4.814c0.076,0.065,0.113,0.156,0.113,0.271c0,0.101-0.04,0.19-0.12,0.271
		c-0.08,0.069-0.167,0.104-0.263,0.104c-0.109,0-0.199-0.038-0.27-0.112c-0.075-0.075-0.113-0.162-0.113-0.263
		c0-0.114,0.038-0.205,0.113-0.271c0.064-0.069,0.154-0.104,0.27-0.104C511.667,4.71,511.757,4.745,511.826,4.814z"/>
</g>
</svg>